<svg width="30" height="26" viewBox="0 0 30 26" fill="none" xmlns="http://www.w3.org/2000/svg">
<path d="M17.7986 6.71704V22.1795C17.7968 22.3457 17.8421 22.5096 17.9302 22.656C18.0182 22.8024 18.1462 22.9266 18.3023 23.017L19.8415 23.9295C19.9906 24.0185 20.1614 24.0741 20.3396 24.0918C20.5178 24.1094 20.6981 24.0886 20.8654 24.031C21.0328 23.9734 21.1821 23.8808 21.301 23.7609C21.4199 23.641 21.5048 23.4974 21.5486 23.342L23.3956 16.717" stroke="black" stroke-opacity="0.38" stroke-width="2" stroke-linecap="round" stroke-linejoin="round"/>
<path d="M23.3955 16.7171C24.8799 16.7171 26.3036 16.1903 27.3532 15.2526C28.4028 14.3149 28.9925 13.0432 28.9925 11.7171C28.9925 10.391 28.4028 9.11922 27.3532 8.18154C26.3036 7.24386 24.8799 6.71708 23.3955 6.71708H17.7985C17.7985 6.71708 10.1726 6.71708 2.84048 1.22958C2.6774 1.10902 2.4794 1.03224 2.26944 1.00815C2.05949 0.984058 1.84619 1.01364 1.6543 1.09346C1.4624 1.17329 1.29978 1.30008 1.18529 1.45914C1.0708 1.61819 1.00914 1.80298 1.00746 1.99208V21.4421C1.00914 21.6312 1.0708 21.816 1.18529 21.975C1.29978 22.1341 1.4624 22.2609 1.6543 22.3407C1.84619 22.4205 2.05949 22.4501 2.26944 22.426C2.4794 22.4019 2.6774 22.3251 2.84048 22.2046C10.1726 16.7171 17.7985 16.7171 17.7985 16.7171H23.3955Z" stroke="black" stroke-opacity="0.38" stroke-width="2" stroke-linecap="round" stroke-linejoin="round"/>
</svg>
