<svg width="81" height="76" viewBox="0 0 81 76" fill="none" xmlns="http://www.w3.org/2000/svg">
<path d="M1.875 29.1508V71.1865C1.875 72.0441 2.21412 72.8665 2.81775 73.4729C3.42138 74.0793 4.24008 74.42 5.09375 74.42H75.9062C76.7599 74.42 77.5786 74.0793 78.1823 73.4729C78.7859 72.8665 79.125 72.0441 79.125 71.1865V29.1508L40.5 3.28265L1.875 29.1508Z" stroke="#0500FF" stroke-width="2" stroke-linecap="round" stroke-linejoin="round"/>
<path d="M33.459 51.7854L2.88086 73.4904" stroke="#0500FF" stroke-width="2" stroke-linecap="round" stroke-linejoin="round"/>
<path d="M78.1191 73.4904L47.541 51.7854" stroke="#0500FF" stroke-width="2" stroke-linecap="round" stroke-linejoin="round"/>
<path d="M79.125 29.1508L47.541 51.7854H33.459L1.875 29.1508" stroke="#0500FF" stroke-width="2" stroke-linecap="round" stroke-linejoin="round"/>
<path d="M48.3333 38L33 22.4561L39.8186 15.5439L48.3333 24.2L72.1814 0L79 6.9122L48.3333 38Z" fill="#2EC4B6"/>
</svg>
