<svg width="14" height="14" viewBox="0 0 14 14" fill="none" xmlns="http://www.w3.org/2000/svg">
<path d="M2.58293 11.4171C2.03005 10.8642 2.39663 9.70433 2.11418 9.02524C1.83173 8.34615 0.75 7.7512 0.75 7C0.75 6.2488 1.81971 5.67788 2.11418 4.97476C2.40865 4.27163 2.03005 3.13582 2.58293 2.58293C3.13582 2.03005 4.29567 2.39663 4.97476 2.11418C5.65385 1.83173 6.2488 0.75 7 0.75C7.7512 0.75 8.32211 1.81971 9.02524 2.11418C9.72836 2.40865 10.8642 2.03005 11.4171 2.58293C11.97 3.13582 11.6034 4.29567 11.8858 4.97476C12.1683 5.65385 13.25 6.2488 13.25 7C13.25 7.7512 12.1803 8.32211 11.8858 9.02524C11.5913 9.72836 11.97 10.8642 11.4171 11.4171C10.8642 11.97 9.70433 11.6034 9.02524 11.8858C8.34615 12.1683 7.7512 13.25 7 13.25C6.2488 13.25 5.67788 12.1803 4.97476 11.8858C4.27163 11.5913 3.13582 11.97 2.58293 11.4171Z" stroke="white" stroke-linecap="round" stroke-linejoin="round"/>
<path d="M7.10096 10.125C7.10096 10.1808 7.05576 10.226 7 10.226C6.94424 10.226 6.89904 10.1808 6.89904 10.125C6.89904 10.0692 6.94424 10.024 7 10.024C7.05576 10.024 7.10096 10.0692 7.10096 10.125Z" fill="white" stroke="white"/>
<path d="M7 7.96154V7.48077C7.3328 7.48077 7.65814 7.38208 7.93485 7.19719C8.21157 7.01229 8.42724 6.74949 8.5546 6.44202C8.68196 6.13455 8.71529 5.79621 8.65036 5.4698C8.58543 5.14339 8.42517 4.84357 8.18984 4.60824C7.95451 4.37291 7.65469 4.21265 7.32828 4.14772C7.00187 4.08279 6.66353 4.11612 6.35606 4.24348C6.04859 4.37083 5.78579 4.58651 5.60089 4.86323C5.41599 5.13994 5.31731 5.46528 5.31731 5.79808" stroke="white" stroke-linecap="round" stroke-linejoin="round"/>
</svg>
