<svg width="339" height="393" viewBox="0 0 339 393" fill="none" xmlns="http://www.w3.org/2000/svg">
<g clip-path="url(#clip0_45_558)">
<path d="M269.604 296.254L163.84 205.585L157.879 314.544L268.581 343.213L301.367 337.588L315.186 279.227L269.604 296.254Z" fill="black"/>
<path d="M200.389 160.431C179.315 122.497 89.9583 144.186 89.9583 144.186L26.9453 353.592L215.141 352.96L180.188 208.022C180.188 208.022 221.404 198.365 200.389 160.431Z" fill="black"/>
<path d="M257.532 334.489L261.656 348.297C261.868 349 262.274 349.63 262.827 350.113C263.381 350.596 264.059 350.914 264.785 351.03C265.51 351.147 266.254 351.056 266.931 350.77C267.607 350.483 268.19 350.012 268.611 349.41L336.772 252.394C337.205 251.763 337.442 251.018 337.453 250.253C337.464 249.488 337.249 248.737 336.834 248.094C336.419 247.451 335.823 246.945 335.121 246.64C334.419 246.334 333.642 246.243 332.888 246.377L320.846 248.543C319.235 248.822 317.792 249.704 316.811 251.01L258.555 328.834C257.96 329.634 257.558 330.561 257.38 331.542C257.203 332.523 257.254 333.532 257.532 334.489Z" fill="white"/>
<path d="M265.419 352.599H264.546C263.541 352.448 262.6 352.014 261.832 351.348C261.065 350.682 260.502 349.812 260.211 348.839L256.086 335.001C255.73 333.812 255.656 332.557 255.87 331.335C256.084 330.113 256.581 328.958 257.321 327.961L315.577 250.137C316.792 248.542 318.567 247.467 320.545 247.129L332.587 244.993C333.642 244.781 334.736 244.897 335.722 245.328C336.708 245.759 337.537 246.482 338.097 247.4C338.708 248.284 339.035 249.333 339.035 250.408C339.035 251.483 338.708 252.532 338.097 253.416L269.845 350.313C269.346 351.022 268.683 351.6 267.913 351.998C267.142 352.396 266.287 352.602 265.419 352.599ZM258.947 334.068L263.101 347.876C263.228 348.311 263.477 348.701 263.818 348.999C264.16 349.298 264.58 349.493 265.028 349.561C265.473 349.624 265.927 349.566 266.34 349.391C266.754 349.216 267.112 348.931 267.376 348.568L335.568 251.551C335.841 251.158 335.987 250.691 335.987 250.213C335.987 249.734 335.841 249.267 335.568 248.874C335.326 248.461 334.96 248.135 334.523 247.94C334.085 247.746 333.598 247.694 333.129 247.791L321.087 249.957C319.883 250.196 318.811 250.871 318.076 251.852L259.82 329.676C259.364 330.3 259.056 331.021 258.92 331.782C258.785 332.543 258.825 333.325 259.037 334.068H258.947Z" fill="black"/>
<path d="M282.159 284.973L286.765 275.166L298.386 275.527L290.257 288.553L282.159 297.217V284.973Z" fill="white"/>
<path d="M280.654 301.037L280.804 284.341L285.832 273.632L301.066 274.113L291.552 289.335L280.654 301.037ZM283.664 285.304V293.396L289.174 287.38L295.737 276.821L287.729 276.58L283.664 285.304Z" fill="black"/>
<path d="M326.927 268.819C330.141 273.409 332.218 278.696 332.988 284.245C333.757 289.794 333.197 295.446 331.353 300.737C325.332 319.929 304.468 332.985 304.468 332.985H282.159L326.927 268.819Z" fill="white"/>
<path d="M304.889 334.489H279.269L326.807 266.322L328.071 267.856C331.468 272.63 333.67 278.148 334.493 283.947C335.315 289.747 334.734 295.659 332.798 301.188C326.777 320.681 306.124 333.707 305.251 334.279L304.889 334.489ZM285.049 331.481H304.016C306.756 329.676 324.579 317.342 329.908 300.285C331.515 295.549 332.078 290.521 331.559 285.546C331.039 280.572 329.449 275.769 326.897 271.466L285.049 331.481Z" fill="black"/>
<path d="M108.956 97.1671C108.956 97.1671 113.532 123.971 117.717 131.732C121.901 139.493 156.494 155.076 168.687 156.31C180.88 157.543 184.373 144.637 187.112 132.243C189.852 119.849 190.785 113.412 193.916 98.1899C197.047 82.968 194.338 76.6807 194.338 76.6807V73.4318C197.949 66.0385 199.745 57.8916 199.576 49.6665" fill="white"/>
<path d="M170.283 157.784H168.537C156.494 156.55 121.059 141.088 116.392 132.424C112.147 124.542 107.661 98.5207 107.36 97.4077L110.371 96.8963C110.371 97.167 114.977 123.55 118.981 131.01C122.985 138.471 156.675 153.542 168.808 154.775C179.345 155.858 182.657 145.029 185.577 131.822C187.112 124.843 188.046 119.94 189.13 114.284C190.033 109.681 190.966 104.658 192.411 97.7987C195.422 83.3891 192.923 77.2523 192.893 77.1921V76.5905L193.043 72.7098C196.562 65.5144 198.306 57.5825 198.131 49.5762H201.142C201.298 57.8967 199.504 66.1382 195.904 73.6424V76.2897C196.445 77.8239 198.342 84.5925 195.452 98.3703C194.037 105.229 193.104 110.223 192.231 114.795C191.147 120.511 190.183 125.415 188.648 132.454C186.33 142.742 182.958 157.784 170.283 157.784Z" fill="black"/>
<path d="M91.7047 128.754L88.694 128.573C88.694 128.152 91.1929 84.051 88.3328 70.5739C85.4727 57.0969 89.7779 31.4665 89.9585 30.2932V29.7216L98.9905 22.6222C101.278 18.3279 104.34 14.493 108.022 11.3111C114.676 5.5352 133.974 -0.721967 148.967 0.0601823C155.681 0.361009 167.935 3.24894 188.106 15.282L188.768 15.673C192.738 17.9416 197.17 19.2825 201.733 19.5951C206.295 19.9077 210.869 19.1839 215.112 17.478L215.954 17.0869L216.677 17.6585C217.92 18.6743 218.903 19.9702 219.547 21.4397C220.191 22.9093 220.476 24.5105 220.38 26.1117C220.38 34.5951 212.823 46.4777 203.069 53.7577L201.263 51.3511C210.295 44.6727 217.279 33.6023 217.37 26.0817C217.434 25.0864 217.297 24.0884 216.966 23.1475C216.635 22.2067 216.117 21.3424 215.443 20.6066C210.867 22.3371 205.963 23.0246 201.087 22.6186C196.212 22.2126 191.489 20.7235 187.263 18.2602L186.601 17.8691C166.821 6.16696 155.079 3.33919 148.696 3.06845C133.432 2.37655 115.248 9.08495 109.889 13.5673C106.441 16.555 103.591 20.1685 101.489 24.2166L101.339 24.5475L92.7885 31.4364C92.1563 35.2569 88.6037 57.7587 91.223 70.0024C94.1433 83.8103 91.7047 126.919 91.7047 128.754Z" fill="black"/>
<path d="M130.211 84.3819C129.699 83.4794 117.626 62.3614 124.19 49.8169C126.99 44.5524 132.559 41.6344 140.778 41.0929C155.832 40.1002 187.985 49.3656 189.34 49.7567L188.497 52.765C188.166 52.765 155.591 43.2288 140.989 44.1914C133.884 44.6728 129.127 47.1997 126.839 51.3511C120.818 62.4516 132.529 82.7875 132.65 82.9981L130.211 84.3819Z" fill="black"/>
<path d="M181.603 66.9941C178.535 65.7102 175.234 65.0751 171.909 65.1289C165.935 65.2384 160.003 66.1387 154.266 67.8063L155.5 71.2959C162.544 71.2327 169.584 71.6347 176.575 72.4992C181.242 73.5521 181.603 66.9941 181.603 66.9941Z" fill="black"/>
<path d="M192.471 74.9961C190.755 75.8616 189.339 77.2216 188.405 78.9002C187.471 80.5789 187.063 82.4989 187.233 84.412C188.129 91.1636 190.111 97.7262 193.104 103.845C193.71 104.831 193.977 105.989 193.863 107.141C193.749 108.292 193.26 109.375 192.471 110.223C190.906 111.547 181.753 109.982 181.753 109.982" fill="white"/>
<path d="M189.25 112.269C186.654 112.199 184.067 111.927 181.512 111.456L181.994 108.448C185.136 109.139 188.368 109.321 191.568 108.99C192.051 108.401 192.336 107.674 192.381 106.914C192.489 106.161 192.329 105.395 191.929 104.748C188.695 98.3168 186.597 91.3761 185.727 84.2315C185.585 82.0716 186.08 79.9173 187.15 78.0352C188.22 76.1532 189.819 74.6259 191.749 73.6424L193.314 76.2295C191.805 76.9647 190.56 78.1489 189.752 79.6195C188.943 81.09 188.61 82.7747 188.798 84.4421C189.737 90.8026 191.593 96.9937 194.308 102.823C195.179 104.116 195.574 105.672 195.426 107.225C195.278 108.777 194.595 110.23 193.495 111.336C192.211 112.079 190.727 112.404 189.25 112.269Z" fill="black"/>
<path d="M193.073 70.1227C188.798 69.3105 191.327 76.1392 191.327 76.1392L198.914 78.3954L199.576 74.9058C197.914 72.7204 195.656 71.0598 193.073 70.1227Z" fill="black"/>
<path d="M184.102 105.56C182.932 105.206 181.699 105.116 180.49 105.299C179.282 105.481 178.13 105.93 177.117 106.613C175.16 108.027 174.678 104.989 174.618 102.341C174.606 101.911 174.68 101.483 174.837 101.082C174.993 100.681 175.229 100.315 175.529 100.007C175.83 99.6981 176.189 99.4529 176.586 99.2855C176.982 99.1181 177.409 99.032 177.84 99.0322H183.048" fill="white"/>
<path d="M176.214 108.478C175.859 108.477 175.509 108.395 175.19 108.237C173.835 107.576 173.203 105.771 173.113 102.371C173.085 101.744 173.188 101.117 173.416 100.532C173.644 99.9466 173.992 99.4153 174.438 98.972C174.877 98.5139 175.406 98.1497 175.99 97.9015C176.575 97.6533 177.204 97.5263 177.84 97.528H183.048V100.536H177.84C177.61 100.531 177.381 100.574 177.169 100.662C176.956 100.75 176.764 100.881 176.605 101.048C176.441 101.207 176.313 101.399 176.23 101.612C176.147 101.825 176.111 102.053 176.124 102.281C176.094 103.296 176.216 104.31 176.485 105.289C177.681 104.545 179.023 104.066 180.42 103.884C181.817 103.703 183.237 103.823 184.584 104.236L183.62 107.064C182.677 106.784 181.684 106.714 180.711 106.86C179.738 107.005 178.81 107.363 177.99 107.907C177.48 108.292 176.854 108.494 176.214 108.478Z" fill="black"/>
<path d="M166.489 121.022C166.489 121.022 171.939 121.985 176.695 122.346C181.452 122.707 188.076 122.346 188.076 122.346" fill="white"/>
<path d="M181.784 124.001C180.067 124.001 178.231 124.001 176.605 123.82C171.788 123.489 166.459 122.557 166.249 122.527L166.76 119.519C166.76 119.519 172.179 120.481 176.816 120.812C181.452 121.143 187.925 120.812 187.985 120.812V123.82C187.985 123.82 185.035 124.001 181.784 124.001Z" fill="black"/>
<path d="M153.122 77.4027C159.024 75.8672 165.194 75.6617 171.186 76.8011L153.122 77.4027Z" fill="white"/>
<path d="M153.514 78.8768L152.731 75.8685C158.905 74.2375 165.368 74.0216 171.638 75.2368L170.825 78.2451C165.078 77.1861 159.168 77.4017 153.514 78.8768Z" fill="black"/>
<path d="M163.569 82.1258C163.827 81.3031 164.375 80.6021 165.112 80.1538C165.848 79.7054 166.723 79.5402 167.573 79.6891C168.211 79.8529 168.76 80.2588 169.103 80.8206C169.446 81.3824 169.556 82.0557 169.41 82.6974C169.139 83.7202 168.175 83.8104 166.76 83.6901C164.894 83.4194 163.298 83.1186 163.569 82.1258Z" fill="black"/>
<path d="M188.046 83.0583C190.833 81.6495 193.996 81.1647 197.078 81.6744L188.046 83.0583Z" fill="white"/>
<path d="M188.738 84.412L187.414 81.7346C190.551 80.1375 194.124 79.6092 197.59 80.2305L196.626 83.0883C193.923 82.6802 191.16 83.1439 188.738 84.412Z" fill="black"/>
<path d="M191.056 85.7657C191.32 84.9406 191.874 84.239 192.616 83.7909C193.358 83.3429 194.237 83.1788 195.091 83.329C195.724 83.4994 196.268 83.9066 196.61 84.4665C196.952 85.0264 197.065 85.6962 196.927 86.3372C196.656 87.3601 195.693 87.4503 194.278 87.33C192.261 87.0592 190.665 86.7584 191.056 85.7657Z" fill="black"/>
<path d="M100.195 123.399C46.0029 117.924 55.2456 167.831 55.2456 167.831C55.2456 167.831 17.4919 173.547 5.17832 232.99C-5.931 286.718 11.5007 353.832 11.5007 353.832H222.247C222.247 353.832 240.642 297.217 219.537 265.901C226.341 234.314 190.605 205.585 190.605 205.585C186.119 172.344 154.477 128.904 100.195 123.399Z" fill="white"/>
<path d="M223.301 355.337H10.417L10.1159 354.193C9.93526 353.532 -7.2857 286.146 3.76341 232.689C14.8125 179.233 46.3944 168.523 53.6199 166.508C52.9576 161.394 51.6028 144.066 62.4411 132.274C70.4796 123.58 83.2448 120.03 100.406 121.775C153.152 127.099 186.872 168.313 192.05 204.652C196.445 208.323 227.184 235.186 221.163 265.45C241.906 297.066 224.475 351.817 223.692 354.133L223.301 355.337ZM12.7051 352.328H221.163C223.481 344.507 237.21 294.78 218.333 266.743L217.972 266.202V265.57C224.505 235.277 189.943 207.059 189.581 206.758L189.13 206.397V205.796C184.373 170.448 151.557 130.108 100.074 124.903C83.9071 123.279 71.9849 126.498 64.6389 134.47C53.078 147.014 56.7209 167.35 56.7811 167.561L57.0521 169.095L55.5166 169.335C55.1553 169.335 18.606 175.713 6.68376 233.321C-3.46216 282.296 10.417 343.303 12.7051 352.328Z" fill="black"/>
<path d="M234.41 242.767L246.934 231.065L258.736 239.789" fill="black"/>
<path d="M286.343 290.448L223.391 216.686L232.423 208.864L295.526 282.627C296.038 283.229 296.427 283.926 296.669 284.679C296.912 285.431 297.003 286.224 296.939 287.012C296.875 287.8 296.656 288.567 296.294 289.27C295.933 289.973 295.437 290.599 294.834 291.11C294.233 291.624 293.536 292.014 292.784 292.259C292.032 292.503 291.24 292.598 290.451 292.536C289.663 292.475 288.894 292.259 288.19 291.9C287.485 291.542 286.857 291.049 286.343 290.448Z" fill="white"/>
<path d="M290.95 294.058H290.408C289.419 293.985 288.454 293.717 287.57 293.267C286.686 292.818 285.901 292.197 285.26 291.441L221.163 216.505L232.633 206.758L296.58 281.664C297.51 282.757 298.109 284.093 298.304 285.515C298.499 286.936 298.284 288.384 297.682 289.687C297.081 290.99 296.119 292.094 294.91 292.869C293.701 293.643 292.296 294.056 290.86 294.058H290.95ZM287.397 289.456C287.766 289.951 288.233 290.365 288.768 290.673C289.304 290.98 289.897 291.175 290.511 291.245C291.125 291.314 291.746 291.257 292.337 291.077C292.928 290.897 293.476 290.598 293.946 290.198C294.417 289.798 294.8 289.305 295.073 288.751C295.345 288.197 295.501 287.593 295.53 286.977C295.56 286.36 295.463 285.744 295.244 285.167C295.026 284.589 294.692 284.063 294.262 283.62L232.272 211L225.378 216.836L287.397 289.456Z" fill="black"/>
<path d="M211.83 269.992C216.72 260.531 222.647 251.642 229.502 243.489C239.136 232.87 277.131 233.772 283.002 236.901C288.873 240.03 286.615 244.873 284.387 247.971C283.541 248.9 282.484 249.612 281.305 250.047C280.126 250.481 278.859 250.626 277.613 250.468C277.613 250.468 283.182 263.284 279.871 268.067C277.314 271.141 273.791 273.262 269.875 274.083L264.998 285.695C264.998 285.695 250.276 301.398 231.881 300.586C213.486 299.774 196.897 300.586 196.897 300.586" fill="white"/>
<path d="M233.206 302.18H231.76C213.696 301.398 197.078 302.18 196.927 302.18L196.777 299.172C196.927 299.172 213.546 298.36 231.881 299.172C248.379 299.894 261.988 286.688 263.734 284.943L268.792 272.91L269.574 272.76C273.11 271.951 276.282 270.006 278.606 267.224C280.684 264.216 278.275 255.733 276.258 251.07L275.204 248.633L277.824 248.964C278.801 249.094 279.795 248.993 280.725 248.669C281.656 248.346 282.498 247.808 283.183 247.099C283.882 246.318 284.416 245.404 284.752 244.411C285.089 243.418 285.22 242.368 285.139 241.323C284.896 240.652 284.517 240.038 284.024 239.52C283.532 239.002 282.938 238.592 282.279 238.315C276.92 235.307 239.648 234.615 230.616 244.602C223.85 252.652 218.004 261.43 213.185 270.774L210.475 269.39C215.427 259.816 221.435 250.825 228.389 242.587C238.474 231.426 277.251 232.208 283.694 235.668C284.75 236.144 285.688 236.847 286.442 237.725C287.196 238.604 287.749 239.637 288.06 240.752C288.259 242.21 288.145 243.695 287.724 245.106C287.304 246.517 286.587 247.822 285.621 248.934C284.914 249.803 284.036 250.518 283.042 251.035C282.048 251.553 280.959 251.861 279.841 251.942C281.346 256.004 284.025 264.697 281.105 268.939C278.54 272.184 274.973 274.489 270.959 275.497L266.112 286.868C265.51 287.5 251.45 302.18 233.206 302.18Z" fill="black"/>
<path d="M101.971 185.941C92.9391 180.556 79.8126 177.277 62.8325 183.955C52.5952 187.753 43.7182 194.504 37.3286 203.353C30.9389 212.201 27.325 222.747 26.9455 233.652C26.9455 233.652 13.1265 350.313 77.8557 391.436C147.914 381.629 209.903 355.938 218.363 307.686C221.765 301.669 216.587 288.433 215.744 264.607C200.209 254.199 146.348 282.867 127.562 293.456C127.245 293.629 126.881 293.697 126.523 293.652C126.165 293.606 125.831 293.449 125.567 293.202C125.304 292.956 125.125 292.632 125.056 292.278C124.987 291.924 125.032 291.558 125.183 291.23C126.137 289.385 126.692 287.361 126.811 285.287C126.93 283.214 126.612 281.139 125.876 279.197C122.022 269.601 113.833 272.669 113.833 272.669L115.489 241.022" fill="white"/>
<path d="M77.5243 393L77.0427 392.699C12.2834 351.636 25.4701 234.645 25.4701 233.472C25.9254 222.312 29.6602 211.533 36.2084 202.481C42.7566 193.429 51.8281 186.504 62.2904 182.572C77.0125 176.766 90.6207 177.488 102.724 184.647L101.188 187.234C89.9283 180.556 77.1029 179.924 63.4044 185.369C53.4917 189.076 44.8907 195.617 38.6747 204.177C32.4586 212.736 28.9028 222.936 28.4507 233.502C28.3001 234.855 15.5349 349.41 78.1867 389.751C126.056 382.982 207.073 363.308 216.888 307.325L217.038 306.813C218.724 303.805 217.911 298.119 216.767 290.147C215.486 281.926 214.652 273.641 214.268 265.329C198.432 256.515 144.602 285.454 128.314 294.66C127.716 294.999 127.024 295.139 126.341 295.057C125.658 294.976 125.018 294.678 124.517 294.207C124.015 293.736 123.678 293.117 123.554 292.441C123.43 291.764 123.526 291.066 123.828 290.448C124.702 288.798 125.21 286.98 125.319 285.117C125.429 283.254 125.136 281.389 124.461 279.648C121.299 271.737 115.188 273.632 114.495 273.963L112.358 274.745L114.104 240.842H117.115L115.549 270.533C118.56 270.203 124.22 270.714 127.26 278.385C128.075 280.512 128.434 282.787 128.314 285.061C128.195 287.336 127.6 289.56 126.568 291.591L127.561 293.186L126.839 291.862C148.486 279.648 200.63 252.394 216.587 263.073L217.219 263.524V264.276C217.57 272.75 218.404 281.197 219.718 289.576C220.952 298.27 221.795 304.106 219.718 307.926C209.361 365.805 126.387 385.84 77.976 392.639L77.5243 393Z" fill="black"/>
<path d="M122.624 295.713C110.1 305.7 100.135 312.228 91.2832 331.06C82.4319 349.892 74.7547 326.457 80.8965 316.861" fill="white"/>
<path d="M84.5994 339.663C83.5193 339.579 82.4821 339.204 81.5972 338.579C80.7123 337.954 80.0125 337.103 79.5716 336.114C77.9762 333.01 77.144 329.571 77.144 326.081C77.144 322.592 77.9762 319.153 79.5716 316.049L82.1006 317.643C80.808 320.284 80.1361 323.186 80.1361 326.126C80.1361 329.067 80.808 331.968 82.1006 334.61C82.5522 335.392 83.4253 336.685 84.5994 336.655C85.1414 336.655 87.1886 336.114 89.8681 330.428C97.9668 313.161 107.209 305.911 117.927 297.488L121.631 294.479L123.497 296.826L119.764 299.834C108.956 308.377 100.375 315.086 92.668 331.692C90.2294 336.866 87.58 339.543 84.8102 339.663H84.5994Z" fill="black"/>
<path d="M105.373 275.106C93.6012 280.701 87.881 284.131 78.6985 283.258L105.373 275.106Z" fill="white"/>
<path d="M81.7693 285.003C80.6826 284.99 79.5972 284.92 78.5178 284.793L78.849 281.784C86.4057 282.627 91.3734 280.22 100.375 275.768L104.741 273.662L106.005 276.4L101.67 278.475C93.7217 282.476 88.4831 285.003 81.7693 285.003Z" fill="black"/>
<path d="M180.188 208.022C170.463 211.632 143.548 191.566 127.411 183.173C111.274 174.78 78.6985 168.794 78.6985 168.794" fill="white"/>
<path d="M177.539 209.947C169.169 209.947 155.38 201.554 142.013 193.432C136.443 190.032 131.174 186.813 126.719 184.407C110.973 176.194 78.7287 170.238 78.5481 170.178L79.09 167.169C80.4147 167.41 112.207 173.186 128.224 181.669C132.77 184.046 138.069 187.265 143.699 190.694C156.946 198.756 173.444 208.744 179.827 206.457L180.85 209.285C179.8 209.72 178.675 209.945 177.539 209.947Z" fill="black"/>
<path d="M118.319 66.5429C118.319 66.5429 99.2914 73.9132 98.2376 62.9029C97.1839 51.8927 91.855 33.2113 108.293 26.8037C107.45 15.252 129.88 3.85064 151.496 13.1161C173.113 22.3816 202.135 28.1574 210.053 26.8037C206.892 33.9333 198.011 43.1687 186.631 41.8451C175.25 40.5214 128.465 34.3244 123.407 41.8451C118.349 49.3657 118.319 66.5429 118.319 66.5429Z" fill="#0500FF"/>
<path d="M114.646 106.643C109.287 107.696 103.205 99.6639 101.008 88.5935C98.8098 77.5231 101.339 67.8064 106.668 66.7535C110.551 65.9714 114.827 70.0024 117.717 76.4702" fill="white"/>
<path d="M113.652 108.087C111.979 107.917 110.368 107.365 108.942 106.473C107.517 105.581 106.316 104.373 105.433 102.943C102.404 98.733 100.348 93.904 99.412 88.804C97.0035 76.771 100.014 66.4526 106.246 65.2192C110.792 64.3167 115.639 68.3779 118.981 75.8083L116.212 77.0417C113.592 71.0252 109.829 67.5657 106.848 68.1673C102.965 68.9495 100.165 77.3726 102.362 88.2325C103.19 92.8629 105.018 97.257 107.721 101.108C109.889 104.116 112.268 105.41 114.224 105.019L114.797 108.027C114.418 108.085 114.035 108.105 113.652 108.087Z" fill="black"/>
</g>
<defs>
<clipPath id="clip0_45_558">
<rect width="339" height="393" fill="white"/>
</clipPath>
</defs>
</svg>
