<svg width="397" height="410" viewBox="0 0 397 410" fill="none" xmlns="http://www.w3.org/2000/svg">
<g clip-path="url(#clip0_45_170)">
<path d="M358.78 229.699H356.314V256.867H358.78V229.699Z" fill="#0500FF"/>
<path d="M357.542 123.494C355.071 86.1319 349.636 85.0909 319.224 79.239L311.417 77.7199C293.432 74.1468 287.478 59.0388 281.203 43.0304C274.211 25.3059 266.997 6.99058 242.094 3.24874C229.544 1.36375 219.143 4.34601 211.114 12.0829C194.734 27.8661 193.598 58.5323 193.573 58.8418H191.103C191.103 57.5476 192.264 26.6563 209.483 10.0571C218.056 1.78572 229.247 -1.42156 242.391 0.575962C268.603 4.4022 276.509 24.3211 283.426 41.8768C289.454 57.1818 295.136 71.6428 311.812 74.9626L319.619 76.482C350.13 82.3339 357.542 83.7124 360.012 123.269L357.542 123.494Z" fill="#0500FF"/>
<path d="M38.6827 140.783C37.6166 138.726 14.9804 87.4049 29.5092 55.8119C35.3356 43.1296 46.3934 35.4638 62.385 33.0118C74.4593 31.18 85.889 28.9254 96.9468 26.7271C131.037 20.0196 157.938 14.6929 172.913 27.8543C179.979 34.0546 183.921 44.0032 184.938 58.2356L182.459 58.4611C181.492 45.046 177.872 35.9147 171.401 30.0809C157.294 17.6804 130.839 22.8942 97.3683 29.5172C86.2857 31.6873 74.8312 33.97 62.6578 35.8019C47.5339 38.1411 37.1455 45.2996 31.7158 56.9955C17.7572 87.2921 40.6662 138.867 40.8893 139.374L38.6827 140.783Z" fill="#0500FF"/>
<path d="M222.159 349.294H137.375V362.89H222.159V349.294Z" fill="#D0D5DD"/>
<path d="M222.159 362.918H137.375V363.34H222.159V362.918Z" fill="#D0D5DD"/>
<path d="M222.159 363.34H137.375V363.761H222.159V363.34Z" fill="#D0D5DD"/>
<path d="M222.159 363.761H137.375V364.182H222.159V363.761Z" fill="#D0D5DD"/>
<path d="M222.159 364.183H137.375V364.604H222.159V364.183Z" fill="#D0D5DD"/>
<path d="M222.159 364.604H137.375V365.025H222.159V364.604Z" fill="#D0D5DD"/>
<path d="M222.159 365.025H137.375V365.447H222.159V365.025Z" fill="#D0D5DD"/>
<path d="M222.159 365.447H137.375V365.868H222.159V365.447Z" fill="#D0D5DD"/>
<path d="M222.159 365.868H137.375V366.289H222.159V365.868Z" fill="#D0D5DD"/>
<path d="M222.159 366.289H137.375V366.711H222.159V366.289Z" fill="#D0D5DD"/>
<path d="M222.159 366.711H137.375V367.132H222.159V366.711Z" fill="#D0D5DD"/>
<path d="M222.159 367.132H137.375V367.553H222.159V367.132Z" fill="#D0D5DD"/>
<path d="M222.159 367.582H137.375V368.003H222.159V367.582Z" fill="#D0D5DD"/>
<path d="M222.159 368.003H137.375V368.424H222.159V368.003Z" fill="#D0D5DD"/>
<path d="M222.159 368.424H137.375V368.846H222.159V368.424Z" fill="#D0D5DD"/>
<path d="M222.159 368.846H137.375V369.267H222.159V368.846Z" fill="#D0D5DD"/>
<path d="M222.159 369.267H137.375V369.688H222.159V369.267Z" fill="#D0D5DD"/>
<path d="M222.159 369.688H137.375V370.11H222.159V369.688Z" fill="#D0D5DD"/>
<path d="M222.159 370.11H137.375V370.531H222.159V370.11Z" fill="#D0D5DD"/>
<path d="M222.159 370.531H137.375V370.953H222.159V370.531Z" fill="#D0D5DD"/>
<path d="M222.159 370.953H137.375V371.374H222.159V370.953Z" fill="#D0D5DD"/>
<path d="M222.159 371.374H137.375V371.795H222.159V371.374Z" fill="#D0D5DD"/>
<path d="M222.159 371.795H137.375V372.217H222.159V371.795Z" fill="#D0D5DD"/>
<path d="M222.159 372.217H137.375V372.638H222.159V372.217Z" fill="#D0D5DD"/>
<path d="M222.159 372.638H137.375V373.059H222.159V372.638Z" fill="#D0D5DD"/>
<path d="M222.159 373.088H137.375V373.509H222.159V373.088Z" fill="#D0D5DD"/>
<path d="M222.159 373.509H137.375V373.93H222.159V373.509Z" fill="#D0D5DD"/>
<path d="M222.159 373.93H137.375V374.352H222.159V373.93Z" fill="#D0D5DD"/>
<path d="M222.159 374.352H137.375V374.773H222.159V374.352Z" fill="#D0D5DD"/>
<path d="M222.159 374.773H137.375V375.194H222.159V374.773Z" fill="#D0D5DD"/>
<path d="M222.159 375.194H137.375V375.616H222.159V375.194Z" fill="#D0D5DD"/>
<path d="M222.159 375.616H137.375V376.037H222.159V375.616Z" fill="#D0D5DD"/>
<path d="M222.159 376.037H137.375V377.049H222.159V376.037Z" fill="#D0D5DD"/>
<path d="M222.159 377.048H137.375V378.06H222.159V377.048Z" fill="#D0D5DD"/>
<path d="M222.159 378.088H137.375V379.099H222.159V378.088Z" fill="#D0D5DD"/>
<path d="M222.159 379.099H137.375V380.11H222.159V379.099Z" fill="#D0D5DD"/>
<path d="M222.159 380.139H137.375V381.15H222.159V380.139Z" fill="#D0D5DD"/>
<path d="M222.159 381.15H137.375V382.161H222.159V381.15Z" fill="#D0D5DD"/>
<path d="M222.159 382.161H137.375V383.172H222.159V382.161Z" fill="#D0D5DD"/>
<path d="M222.159 383.201H137.375V384.212H222.159V383.201Z" fill="#D0D5DD"/>
<path d="M222.159 384.212H137.375V385.223H222.159V384.212Z" fill="#D0D5DD"/>
<path d="M222.159 385.251H137.375V386.178H222.159V385.251Z" fill="#D0D5DD"/>
<path d="M137.385 386.114L137.372 388.529L141.651 388.56L141.664 386.144L137.385 386.114Z" fill="#D0D5DD"/>
<path d="M141.927 386.15V388.594H141.654L141.679 386.15H141.927Z" fill="#D0D5DD"/>
<path d="M142.201 386.15V388.594H141.928V386.15H142.201Z" fill="#D0D5DD"/>
<path d="M142.474 386.15V388.594H142.201V386.15H142.474Z" fill="#D0D5DD"/>
<path d="M142.748 386.15L142.724 388.594H142.475V386.15H142.748Z" fill="#D0D5DD"/>
<path d="M143.022 386.15L142.997 388.594H142.724L142.749 386.15H143.022Z" fill="#D0D5DD"/>
<path d="M143.271 386.15V388.594H142.998L143.022 386.15H143.271Z" fill="#D0D5DD"/>
<path d="M143.544 386.15V388.594H143.271V386.15H143.544Z" fill="#D0D5DD"/>
<path d="M143.818 386.15V388.594H143.545V386.15H143.818Z" fill="#D0D5DD"/>
<path d="M144.092 386.15L144.067 388.594H143.819V386.15H144.092Z" fill="#D0D5DD"/>
<path d="M144.365 386.15L144.34 388.594H144.067L144.092 386.15H144.365Z" fill="#D0D5DD"/>
<path d="M144.639 386.15L144.614 388.594H144.341L144.366 386.15H144.639Z" fill="#D0D5DD"/>
<path d="M144.888 386.15V388.594H144.615L144.64 386.15H144.888Z" fill="#D0D5DD"/>
<path d="M145.161 386.15V388.594H144.888V386.15H145.161Z" fill="#D0D5DD"/>
<path d="M145.435 386.15V388.594H145.162V386.15H145.435Z" fill="#D0D5DD"/>
<path d="M145.709 386.15L145.684 388.594H145.436V386.15H145.709Z" fill="#D0D5DD"/>
<path d="M145.982 386.15L145.957 388.594H145.684L145.709 386.15H145.982Z" fill="#D0D5DD"/>
<path d="M146.256 386.15L146.231 388.594H145.958L145.983 386.15H146.256Z" fill="#D0D5DD"/>
<path d="M146.53 386.15L146.505 388.594H146.232L146.257 386.15H146.53Z" fill="#D0D5DD"/>
<path d="M146.778 386.15V388.594H146.505L146.53 386.15H146.778Z" fill="#D0D5DD"/>
<path d="M147.052 386.15V388.594H146.779V386.15H147.052Z" fill="#D0D5DD"/>
<path d="M147.326 386.15L147.301 388.594H147.053V386.15H147.326Z" fill="#D0D5DD"/>
<path d="M147.599 386.15L147.575 388.594H147.302L147.326 386.15H147.599Z" fill="#D0D5DD"/>
<path d="M147.873 386.15L147.848 388.594H147.575L147.6 386.15H147.873Z" fill="#D0D5DD"/>
<path d="M148.147 386.15L148.122 388.594H147.849L147.874 386.15H148.147Z" fill="#D0D5DD"/>
<path d="M148.395 386.15V388.594H148.122L148.147 386.15H148.395Z" fill="#D0D5DD"/>
<path d="M148.669 386.15V388.594H148.396V386.15H148.669Z" fill="#D0D5DD"/>
<path d="M148.943 386.15L148.918 388.594H148.67V386.15H148.943Z" fill="#D0D5DD"/>
<path d="M149.216 386.15L149.192 388.594H148.918L148.943 386.15H149.216Z" fill="#D0D5DD"/>
<path d="M149.49 386.15L149.465 388.594H149.192L149.217 386.15H149.49Z" fill="#D0D5DD"/>
<path d="M149.764 386.15L149.739 388.594H149.466L149.491 386.15H149.764Z" fill="#D0D5DD"/>
<path d="M150.013 386.15V388.594H149.74L149.764 386.15H150.013Z" fill="#D0D5DD"/>
<path d="M150.286 386.15V388.594H150.013V386.15H150.286Z" fill="#D0D5DD"/>
<path d="M150.56 386.15L150.535 388.594H150.287V386.15H150.56Z" fill="#D0D5DD"/>
<path d="M150.834 386.15L150.809 388.594H150.536L150.56 386.15H150.834Z" fill="#D0D5DD"/>
<path d="M151.107 386.15L151.082 388.594H150.809L150.834 386.15H151.107Z" fill="#D0D5DD"/>
<path d="M151.356 386.15V388.594H151.083L151.108 386.15H151.356Z" fill="#D0D5DD"/>
<path d="M151.63 386.15V388.594H151.356V386.15H151.63Z" fill="#D0D5DD"/>
<path d="M151.903 386.15V388.594H151.63V386.15H151.903Z" fill="#D0D5DD"/>
<path d="M152.177 386.15L152.152 388.594H151.904V386.15H152.177Z" fill="#D0D5DD"/>
<path d="M152.45 386.15L152.426 388.594H152.153L152.177 386.15H152.45Z" fill="#D0D5DD"/>
<path d="M152.724 386.15L152.699 388.594H152.426L152.451 386.15H152.724Z" fill="#D0D5DD"/>
<path d="M152.973 386.15V388.594H152.7L152.725 386.15H152.973Z" fill="#D0D5DD"/>
<path d="M153.247 386.15V388.594H152.974V386.15H153.247Z" fill="#D0D5DD"/>
<path d="M153.52 386.15V388.594H153.247V386.15H153.52Z" fill="#D0D5DD"/>
<path d="M153.794 386.15L153.769 388.594H153.521V386.15H153.794Z" fill="#D0D5DD"/>
<path d="M154.068 386.15L154.043 388.594H153.77L153.795 386.15H154.068Z" fill="#D0D5DD"/>
<path d="M154.341 386.15L154.316 388.594H154.043L154.068 386.15H154.341Z" fill="#D0D5DD"/>
<path d="M154.59 386.15V388.594H154.317L154.342 386.15H154.59Z" fill="#E4E7EC"/>
<path d="M154.864 386.15V388.594H154.591V386.15H154.864Z" fill="#D0D5DD"/>
<path d="M155.137 386.15V388.594H154.864V386.15H155.137Z" fill="#D0D5DD"/>
<path d="M155.411 386.15L155.386 388.594H155.138V386.15H155.411Z" fill="#D0D5DD"/>
<path d="M155.685 386.15L155.66 388.594H155.387L155.412 386.15H155.685Z" fill="#D0D5DD"/>
<path d="M155.958 386.15L155.933 388.594H155.66L155.685 386.15H155.958Z" fill="#D0D5DD"/>
<path d="M156.207 386.15V388.594H155.934L155.959 386.15H156.207Z" fill="#D0D5DD"/>
<path d="M156.656 386.15L156.631 388.594H156.208V386.15H156.656Z" fill="#D0D5DD"/>
<path d="M157.078 386.15L157.054 388.594H156.631L156.655 386.15H157.078Z" fill="#D0D5DD"/>
<path d="M157.502 386.15L157.477 388.594H157.054L157.079 386.15H157.502Z" fill="#D0D5DD"/>
<path d="M157.924 386.15L157.899 388.594H157.477L157.501 386.15H157.924Z" fill="#D0D5DD"/>
<path d="M158.347 386.15L158.322 388.594H157.899L157.924 386.15H158.347Z" fill="#D0D5DD"/>
<path d="M158.77 386.15L158.745 388.594H158.322L158.347 386.15H158.77Z" fill="#D0D5DD"/>
<path d="M159.193 386.15L159.168 388.594H158.745L158.77 386.15H159.193Z" fill="#D0D5DD"/>
<path d="M159.616 386.15V388.594H159.168L159.193 386.15H159.616Z" fill="#D0D5DD"/>
<path d="M160.039 386.15V388.594H159.616V386.15H160.039Z" fill="#D0D5DD"/>
<path d="M160.462 386.15V388.594H160.039V386.15H160.462Z" fill="#D0D5DD"/>
<path d="M160.885 386.15V388.594H160.462V386.15H160.885Z" fill="#D0D5DD"/>
<path d="M161.308 386.15V388.594H160.885V386.15H161.308Z" fill="#D0D5DD"/>
<path d="M161.755 386.15L161.731 388.594H161.308V386.15H161.755Z" fill="#D0D5DD"/>
<path d="M162.179 386.15L162.154 388.594H161.731L161.756 386.15H162.179Z" fill="#D0D5DD"/>
<path d="M162.601 386.15L162.576 388.594H162.154L162.178 386.15H162.601Z" fill="#D0D5DD"/>
<path d="M163.024 386.15L162.999 388.594H162.576L162.601 386.15H163.024Z" fill="#D0D5DD"/>
<path d="M163.447 386.15L163.422 388.594H162.999L163.024 386.15H163.447Z" fill="#D0D5DD"/>
<path d="M163.87 386.15L163.845 388.594H163.422L163.447 386.15H163.87Z" fill="#D0D5DD"/>
<path d="M164.293 386.15L164.268 388.594H163.845L163.87 386.15H164.293Z" fill="#D0D5DD"/>
<path d="M164.716 386.15V388.594H164.268L164.293 386.15H164.716Z" fill="#D0D5DD"/>
<path d="M165.139 386.15V388.594H164.716V386.15H165.139Z" fill="#D0D5DD"/>
<path d="M165.562 386.15V388.594H165.139V386.15H165.562Z" fill="#D0D5DD"/>
<path d="M165.985 386.15V388.594H165.562V386.15H165.985Z" fill="#D0D5DD"/>
<path d="M166.408 386.15V388.594H165.985V386.15H166.408Z" fill="#98A2B3"/>
<path d="M166.856 386.15L166.831 388.594H166.408V386.15H166.856Z" fill="#D0D5DD"/>
<path d="M167.278 386.15L167.253 388.594H166.831L166.855 386.15H167.278Z" fill="#D0D5DD"/>
<path d="M167.701 386.15L167.676 388.594H167.253L167.278 386.15H167.701Z" fill="#D0D5DD"/>
<path d="M168.124 386.15L168.099 388.594H167.676L167.701 386.15H168.124Z" fill="#D0D5DD"/>
<path d="M168.547 386.15L168.522 388.594H168.099L168.124 386.15H168.547Z" fill="#D0D5DD"/>
<path d="M168.97 386.15V388.594H168.522L168.547 386.15H168.97Z" fill="#D0D5DD"/>
<path d="M169.393 386.15L169.368 388.594H168.97V386.15H169.393Z" fill="#D0D5DD"/>
<path d="M169.816 386.15V388.594H169.368L169.393 386.15H169.816Z" fill="#D0D5DD"/>
<path d="M170.239 386.15V388.594H169.816V386.15H170.239Z" fill="#D0D5DD"/>
<path d="M170.662 386.15V388.594H170.239V386.15H170.662Z" fill="#D0D5DD"/>
<path d="M171.085 386.15V388.594H170.662V386.15H171.085Z" fill="#D0D5DD"/>
<path d="M171.508 386.15V388.594H171.085V386.15H171.508Z" fill="#D0D5DD"/>
<path d="M171.955 386.15L171.93 388.594H171.508V386.15H171.955Z" fill="#D0D5DD"/>
<path d="M172.378 386.15L172.353 388.594H171.93L171.955 386.15H172.378Z" fill="#D0D5DD"/>
<path d="M172.801 386.15L172.776 388.594H172.354L172.378 386.15H172.801Z" fill="#D0D5DD"/>
<path d="M173.224 386.15L173.199 388.594H172.776L172.801 386.15H173.224Z" fill="#D0D5DD"/>
<path d="M173.647 386.15L173.622 388.594H173.199L173.224 386.15H173.647Z" fill="#D0D5DD"/>
<path d="M174.07 386.15V388.594H173.622L173.647 386.15H174.07Z" fill="#D0D5DD"/>
<path d="M174.493 386.15V388.594H174.07V386.15H174.493Z" fill="#D0D5DD"/>
<path d="M174.916 386.15V388.594H174.493V386.15H174.916Z" fill="#D0D5DD"/>
<path d="M175.339 386.15V388.594H174.916V386.15H175.339Z" fill="#D0D5DD"/>
<path d="M175.762 386.15V388.594H175.339V386.15H175.762Z" fill="#D0D5DD"/>
<path d="M176.21 386.15L176.185 388.594H175.762V386.15H176.21Z" fill="#D0D5DD"/>
<path d="M176.632 386.15L176.608 388.594H176.185L176.209 386.15H176.632Z" fill="#D0D5DD"/>
<path d="M177.055 386.15L177.031 388.594H176.608L176.633 386.15H177.055Z" fill="#D0D5DD"/>
<path d="M177.478 386.15L177.453 388.594H177.031L177.055 386.15H177.478Z" fill="#D0D5DD"/>
<path d="M177.901 386.15L177.876 388.594H177.453L177.478 386.15H177.901Z" fill="#D0D5DD"/>
<path d="M178.324 386.15L178.299 388.594H177.876L177.901 386.15H178.324Z" fill="#D0D5DD"/>
<path d="M178.747 386.15L178.722 388.594H178.299L178.324 386.15H178.747Z" fill="#D0D5DD"/>
<path d="M179.17 386.15V388.594H178.722L178.747 386.15H179.17Z" fill="#D0D5DD"/>
<path d="M179.593 386.15V388.594H179.17V386.15H179.593Z" fill="#D0D5DD"/>
<path d="M180.016 386.15V388.594H179.593V386.15H180.016Z" fill="#D0D5DD"/>
<path d="M180.439 386.15V388.594H180.016V386.15H180.439Z" fill="#D0D5DD"/>
<path d="M180.862 386.15V388.594H180.439V386.15H180.862Z" fill="#D0D5DD"/>
<path d="M181.309 386.15L181.285 388.594H180.862V386.15H181.309Z" fill="#D0D5DD"/>
<path d="M181.732 386.15L181.707 388.594H181.284L181.309 386.15H181.732Z" fill="#D0D5DD"/>
<path d="M182.155 386.15L182.13 388.594H181.707L181.732 386.15H182.155Z" fill="#D0D5DD"/>
<path d="M182.578 386.15L182.553 388.594H182.13L182.155 386.15H182.578Z" fill="#D0D5DD"/>
<path d="M183.001 386.15L182.976 388.594H182.553L182.578 386.15H183.001Z" fill="#D0D5DD"/>
<path d="M183.424 386.15L183.399 388.594H182.976L183.001 386.15H183.424Z" fill="#D0D5DD"/>
<path d="M183.847 386.15L183.822 388.594H183.399L183.424 386.15H183.847Z" fill="#D0D5DD"/>
<path d="M184.27 386.15V388.594H183.822L183.847 386.15H184.27Z" fill="#D0D5DD"/>
<path d="M184.693 386.15V388.594H184.27V386.15H184.693Z" fill="#D0D5DD"/>
<path d="M185.116 386.15V388.594H184.693V386.15H185.116Z" fill="#F9FAFB"/>
<path d="M185.539 386.15V388.594H185.116V386.15H185.539Z" fill="#F9FAFB"/>
<path d="M185.962 386.15V388.594H185.539V386.15H185.962Z" fill="#D0D5DD"/>
<path d="M186.385 386.15V388.594H185.962V386.15H186.385Z" fill="#D0D5DD"/>
<path d="M186.832 386.15L186.807 388.594H186.385V386.15H186.832Z" fill="#D0D5DD"/>
<path d="M187.852 386.15V388.594H186.807L186.832 386.15H187.852Z" fill="#D0D5DD"/>
<path d="M188.897 386.15L188.872 388.594H187.852V386.15H188.897Z" fill="#D0D5DD"/>
<path d="M189.917 386.15V388.594H188.872L188.897 386.15H189.917Z" fill="#D0D5DD"/>
<path d="M190.962 386.15L190.937 388.594H189.917V386.15H190.962Z" fill="#D0D5DD"/>
<path d="M191.982 386.15V388.594H190.937L190.962 386.15H191.982Z" fill="#D0D5DD"/>
<path d="M193.027 386.15L193.002 388.594H191.982V386.15H193.027Z" fill="#D0D5DD"/>
<path d="M194.047 386.15V388.594H193.002L193.027 386.15H194.047Z" fill="#D0D5DD"/>
<path d="M195.092 386.15L195.067 388.594H194.047V386.15H195.092Z" fill="#D0D5DD"/>
<path d="M196.112 386.15V388.594H195.067L195.092 386.15H196.112Z" fill="#D0D5DD"/>
<path d="M197.157 386.15L197.132 388.594H196.112V386.15H197.157Z" fill="#D0D5DD"/>
<path d="M198.176 386.15V388.594H197.132L197.156 386.15H198.176Z" fill="#D0D5DD"/>
<path d="M198.474 386.15L198.45 388.594H198.177V386.15H198.474Z" fill="#D0D5DD"/>
<path d="M198.773 386.15L198.748 388.594H198.45L198.475 386.15H198.773Z" fill="#D0D5DD"/>
<path d="M199.047 386.15V388.594H198.749L198.774 386.15H199.047Z" fill="#D0D5DD"/>
<path d="M199.345 386.15V388.594H199.047V386.15H199.345Z" fill="#D0D5DD"/>
<path d="M199.644 386.15L199.619 388.594H199.346V386.15H199.644Z" fill="#D0D5DD"/>
<path d="M199.942 386.15L199.917 388.594H199.619L199.644 386.15H199.942Z" fill="#D0D5DD"/>
<path d="M200.216 386.15V388.594H199.918L199.943 386.15H200.216Z" fill="#D0D5DD"/>
<path d="M200.514 386.15V388.594H200.217V386.15H200.514Z" fill="#D0D5DD"/>
<path d="M200.813 386.15L200.788 388.594H200.515V386.15H200.813Z" fill="#D0D5DD"/>
<path d="M201.112 386.15L201.087 388.594H200.789L200.814 386.15H201.112Z" fill="#D0D5DD"/>
<path d="M201.385 386.15V388.594H201.087L201.112 386.15H201.385Z" fill="#D0D5DD"/>
<path d="M201.684 386.15V388.594H201.386V386.15H201.684Z" fill="#FCFCFD"/>
<path d="M201.982 386.15L201.957 388.594H201.684V386.15H201.982Z" fill="#FCFCFD"/>
<path d="M202.281 386.15L202.256 388.594H201.958L201.983 386.15H202.281Z" fill="#FCFCFD"/>
<path d="M202.554 386.15V388.594H202.256L202.281 386.15H202.554Z" fill="#D0D5DD"/>
<path d="M202.853 386.15V388.594H202.555V386.15H202.853Z" fill="#D0D5DD"/>
<path d="M203.151 386.15L203.127 388.594H202.854V386.15H203.151Z" fill="#FCFCFD"/>
<path d="M203.45 386.15L203.425 388.594H203.127L203.152 386.15H203.45Z" fill="#FCFCFD"/>
<path d="M203.724 386.15V388.594H203.426L203.451 386.15H203.724Z" fill="#FCFCFD"/>
<path d="M204.022 386.15V388.594H203.724V386.15H204.022Z" fill="#FCFCFD"/>
<path d="M204.321 386.15L204.296 388.594H204.023V386.15H204.321Z" fill="#FCFCFD"/>
<path d="M204.619 386.15L204.594 388.594H204.296L204.321 386.15H204.619Z" fill="white"/>
<path d="M204.597 386.068L204.583 388.484L222.147 388.609L222.16 386.193L204.597 386.068Z" fill="white"/>
<path d="M268.776 305.03H266.293V59.618H98.6513V305.03H96.1677V56.8072H268.776V305.03Z" fill="black"/>
<path d="M236.72 67.9217H107.264V83.9759H236.72V67.9217Z" fill="#0500FF"/>
<path d="M249.706 69.4848L247.947 71.4712L258.502 83.3895L260.261 81.4031L249.706 69.4848Z" fill="black"/>
<path d="M258.457 69.4238L247.902 81.3421L249.661 83.3285L260.216 71.4102L258.457 69.4238Z" fill="black"/>
<path d="M180.006 102.5H107.264V106.205H180.006V102.5Z" fill="black"/>
<path d="M180.006 112.38H107.264V114.849H180.006V112.38Z" fill="black"/>
<path d="M180.006 122.259H107.264V124.729H180.006V122.259Z" fill="black"/>
<path d="M180.006 130.904H107.264V134.608H180.006V130.904Z" fill="black"/>
<path d="M258.913 267.982H189.87V270.452H258.913V267.982Z" fill="black"/>
<path d="M258.913 276.626H189.87V280.331H258.913V276.626Z" fill="black"/>
<path d="M258.913 286.506H189.87V288.976H258.913V286.506Z" fill="black"/>
<path d="M258.913 296.386H189.87V298.855H258.913V296.386Z" fill="black"/>
<path d="M176.307 266.747H107.264V270.452H176.307V266.747Z" fill="black"/>
<path d="M176.307 276.626H107.264V279.096H176.307V276.626Z" fill="black"/>
<path d="M176.307 286.506H107.264V288.976H176.307V286.506Z" fill="black"/>
<path d="M176.307 295.151H107.264V298.855H176.307V295.151Z" fill="black"/>
<path d="M207.131 200.06H152.882V202.53H207.131V200.06Z" fill="black"/>
<path d="M207.131 208.705H152.882V211.175H207.131V208.705Z" fill="black"/>
<path d="M258.913 104.97H192.335V135.843H258.913V104.97Z" fill="#0500FF"/>
<path d="M258.913 153.133H107.264V184.006H258.913V153.133Z" fill="#0500FF"/>
<path d="M134.388 224.759H107.264V255.633H134.388V224.759Z" fill="#0500FF"/>
<path d="M176.307 224.759H149.183V255.633H176.307V224.759Z" fill="#0500FF"/>
<path d="M218.227 224.759H189.87V255.633H218.227V224.759Z" fill="#0500FF"/>
<path d="M258.913 224.759H231.789V255.633H258.913V224.759Z" fill="#0500FF"/>
<path d="M263.201 260.572C263.201 260.572 290.969 280.994 290.969 328.363C290.969 375.733 286.839 394.234 266.884 406.295H107.072C79.1307 406.295 82.4897 354.237 82.9873 320.907C83.4849 287.576 111.053 267.606 111.053 267.606" fill="white"/>
<path d="M267.2 407.52H107.09C104.357 407.615 101.637 407.064 99.1019 405.902C96.5666 404.741 94.2718 402.994 92.363 400.773C80.397 386.883 81.0687 354.503 81.616 328.474C81.616 325.651 81.7404 323.223 81.7653 320.739C82.2877 287.032 110.1 266.508 110.399 266.31L111.742 268.71C111.469 268.908 84.7505 288.641 84.3774 320.767C84.3774 323.28 84.3774 325.849 84.2281 328.531C83.7057 353.938 83.034 385.754 94.179 398.797C95.8535 400.757 97.8729 402.296 100.106 403.312C102.339 404.329 104.736 404.801 107.14 404.697H266.578C286.206 392.699 289.714 374.151 289.714 328.276C289.714 282.402 262.797 261.906 262.523 261.681L263.867 259.337C264.165 259.535 292.202 280.68 292.202 328.276C292.202 373.445 288.769 394.505 267.474 407.322L267.2 407.52Z" fill="black"/>
<path d="M107.264 328.494V408.765H266.311V328.494" fill="white"/>
<path d="M267.543 410H106.031V328.494H108.507V407.196H265.067V328.494H267.543V410Z" fill="black"/>
<path d="M125.556 221.054C125.556 221.054 106.967 227.122 100.514 248.501C94.0611 269.881 136.749 280.331 188.049 280.331C239.349 280.331 272.01 264.767 267.047 245.804C262.083 226.841 254.34 221.054 254.34 221.054" fill="white"/>
<path d="M188.059 282.801C141.986 282.801 109.417 274.7 100.952 261.123C99.794 259.357 99.0396 257.285 98.7578 255.098C98.4759 252.91 98.6755 250.676 99.3383 248.6C105.867 226.466 124.435 220.076 125.205 219.819L125.9 222.672C125.726 222.672 107.778 228.919 101.697 249.627C101.156 251.274 100.989 253.051 101.21 254.793C101.432 256.534 102.035 258.182 102.963 259.582C110.857 271.962 143.45 279.949 188.059 279.949C225.294 279.949 255.083 271.249 263.895 257.842C264.994 256.317 265.749 254.504 266.095 252.565C266.442 250.625 266.368 248.617 265.881 246.718C261.115 228.291 253.767 222.444 253.693 222.387L255.058 220.019C255.381 220.276 263.2 226.38 268.264 245.919C268.854 248.252 268.936 250.715 268.503 253.092C268.07 255.47 267.136 257.688 265.782 259.554C256.572 273.759 226.759 282.801 188.059 282.801Z" fill="black"/>
<path d="M178.495 118.798C178.495 118.798 158.195 100.372 145.874 116.579C142.341 121.009 139.904 126.395 138.803 132.204C137.703 138.013 137.978 144.042 139.601 149.696C139.601 149.696 124.545 150.342 122.889 159.892C122.094 166.185 123.132 172.597 125.85 178.178C121.707 181.203 118.473 185.552 116.567 190.661C114.661 195.771 114.171 201.403 115.16 206.828C118.673 225.844 162.586 238.343 162.586 238.343C162.586 238.343 180.151 229.383 198.469 219.636C216.787 209.89 178.495 118.798 178.495 118.798Z" fill="black"/>
<path d="M148.428 139.197C149.401 143.055 173.701 156.922 189.094 155.244C189.094 155.244 177.767 170.732 189.718 189.519C189.718 189.519 176.495 204.252 180.013 222.508C181.435 229.861 206.633 258.516 219.107 252.282C231.581 246.048 245.427 245.544 252.163 227.848C258.9 210.151 260.022 185.773 252.413 173.165C244.804 160.556 221.227 151.079 218.508 140.455C218.508 140.455 221.776 131.118 209.527 122.283C187.747 106.544 184.054 120.69 184.054 120.69C174.574 114.931 143.763 120.802 148.428 139.197Z" fill="black"/>
<path d="M77.6739 140.783H1.23291V246.988H77.6739V140.783Z" fill="white"/>
<path d="M78.9068 248.223H0V139.548H78.9068V248.223ZM2.49468 245.44H76.4121V142.331H2.49468V245.44Z" fill="black"/>
<path d="M395.767 123.494H319.326V229.699H395.767V123.494Z" fill="white"/>
<path d="M396.925 232.169H318.093V122.259H397L396.925 232.169ZM320.587 229.35H394.506V125.077H320.587V229.35Z" fill="black"/>
<path d="M395.767 256.867H319.326V363.072H395.767V256.867Z" fill="white"/>
<path d="M396.925 365.542H318.093V255.633H397L396.925 365.542ZM320.512 362.728H394.431V258.447H320.587L320.512 362.728Z" fill="black"/>
<path d="M72.7422 146.958H7.39746V163.012H72.7422V146.958Z" fill="#0500FF"/>
<path d="M389.603 130.904H325.491V167.952H389.603V130.904Z" fill="#0500FF"/>
<path d="M389.603 265.512H325.491V275.392H389.603V265.512Z" fill="#0500FF"/>
<path d="M389.603 319.849H325.491V354.428H389.603V319.849Z" fill="#0500FF"/>
<path d="M389.603 180.301H325.491V182.771H389.603V180.301Z" fill="black"/>
<path d="M389.603 188.946H325.491V192.651H389.603V188.946Z" fill="black"/>
<path d="M389.603 198.825H325.491V201.295H389.603V198.825Z" fill="black"/>
<path d="M389.603 208.705H325.491V211.175H389.603V208.705Z" fill="black"/>
<path d="M389.603 281.566H325.491V284.036H389.603V281.566Z" fill="black"/>
<path d="M389.603 291.446H325.491V293.916H389.603V291.446Z" fill="black"/>
<path d="M389.603 300.09H325.491V302.56H389.603V300.09Z" fill="black"/>
<path d="M389.603 309.97H325.491V312.44H389.603V309.97Z" fill="black"/>
</g>
<defs>
<clipPath id="clip0_45_170">
<rect width="397" height="410" fill="white"/>
</clipPath>
</defs>
</svg>
