<svg width="428" height="323" viewBox="0 0 428 323" fill="none" xmlns="http://www.w3.org/2000/svg">
<g clip-path="url(#clip0_45_603)">
<path d="M238.65 277.037C238.65 277.037 231.233 297.532 206.61 291.219C186.677 286.082 165.708 269.549 157.691 239.49" fill="white"/>
<path d="M215.527 293.706C212.396 293.681 209.281 293.259 206.256 292.449C182.178 286.273 163.499 266.571 156.355 239.736L159.082 239.053C166.008 264.904 183.923 283.868 207.047 289.798C230.17 295.728 237.178 277.283 237.451 276.49L240.014 277.419C238.012 282.267 234.613 286.406 230.251 289.308C225.889 292.209 220.762 293.74 215.527 293.706Z" fill="black"/>
<path d="M209.473 220.635C216.127 205.304 243.04 173.524 243.04 173.524C243.081 170.46 243.805 167.444 245.159 164.697C246.513 161.95 248.463 159.541 250.866 157.647C259.265 150.597 288.087 136.742 288.087 136.742" fill="white"/>
<path d="M210.728 221.181L208.246 220.116C214.545 205.496 238.405 176.912 241.65 173.032C241.794 169.861 242.614 166.757 244.053 163.93C245.492 161.102 247.517 158.615 249.994 156.636C258.42 149.558 286.315 136.114 287.487 135.54L288.66 137.999C288.387 137.999 259.919 151.854 251.739 158.74C249.494 160.49 247.668 162.721 246.394 165.27C245.121 167.818 244.431 170.619 244.377 173.469V174.016L244.022 174.453C243.804 174.726 217.218 206.206 210.728 221.181Z" fill="black"/>
<path d="M375.345 66.6222C375.345 66.6222 385.952 70.3659 397.76 92.9923C408.34 113.241 410.985 156.554 386.852 182.296C370.273 200.085 353.176 117.614 353.176 117.614L375.345 66.6222Z" fill="black"/>
<path d="M382.19 186.231C381.573 186.23 380.958 186.147 380.363 185.985C365.638 181.858 353.34 124.473 351.977 117.969V117.532L374.664 64.9827L375.863 65.3926C376.327 65.5565 387.125 69.5736 399.041 92.4186C409.949 113.132 412.185 157.428 388.134 183.279C387.404 184.16 386.498 184.878 385.474 185.386C384.45 185.894 383.331 186.182 382.19 186.231ZM354.731 117.914C358.412 135.485 370.055 180.328 381.099 183.498C382.014 183.693 382.966 183.616 383.838 183.277C384.71 182.937 385.464 182.349 386.007 181.585C409.267 156.636 407.004 113.87 396.56 93.8396C387.425 76.3506 378.999 70.3933 376.027 68.6991L354.731 117.914Z" fill="black"/>
<path d="M261.992 105.726C277.564 104.728 293.052 102.673 308.347 99.5779L352.522 105.863C352.522 105.863 340.06 123.598 332.398 132.561C324.736 141.524 283.643 149.804 283.643 149.804C283.643 149.804 280.916 145.268 274.671 136.414C268.314 127.206 263.991 116.743 261.992 105.726Z" fill="black"/>
<path d="M278.462 59.0255C278.462 59.0255 281.734 49.9804 280.807 47.0291C272.899 22.1619 300.249 -6.50362 342.596 3.30661C364.82 8.52599 383.771 37.9021 378.536 57.6318C378.127 59.1621 352.631 78.8919 352.495 78.8646C348.677 103.458 309.22 118.816 305.757 119.035C282.961 120.346 273.363 106.628 273.363 78.8646C273.743 71.9797 275.476 65.2377 278.462 59.0255Z" fill="white"/>
<path d="M302.785 120.592C295.332 121.032 288.009 118.497 282.416 113.542C275.408 106.902 271.999 95.5884 271.999 78.9738C272.403 71.8787 274.172 64.9287 277.207 58.5062C278.489 54.9264 279.934 49.1605 279.498 47.4389C277.873 41.8254 277.774 35.8786 279.212 30.2141C280.65 24.5495 283.573 19.3732 287.678 15.2209C300.085 1.80359 320.782 -3.1152 342.978 2.10417C354.513 4.83683 365.911 13.9639 373.464 26.6981C379.981 37.6287 382.353 49.1332 379.926 58.2329C379.381 60.3097 357.785 76.897 353.831 79.8482C349.441 104.606 309.847 120.401 305.893 120.619C304.775 120.565 303.767 120.592 302.785 120.592ZM325.908 2.78733C311.238 2.78733 298.34 7.76076 289.724 17.0791C285.955 20.8831 283.269 25.628 281.946 30.822C280.623 36.016 280.71 41.4701 282.198 46.6191C283.234 49.8437 280.425 57.905 279.852 59.4626C276.964 65.5498 275.27 72.1365 274.862 78.8645C274.862 94.6866 277.998 105.344 284.434 111.438C289.424 116.165 296.431 118.215 305.812 117.668C309.411 117.45 347.668 101.791 351.295 78.6459L351.54 77.0336L352.413 77.3342C356.012 74.6015 375.618 59.326 377.39 57.0852C379.545 48.7233 377.39 37.9566 371.173 27.8731C364.002 15.8768 353.258 7.18693 342.405 4.64556C336.995 3.39737 331.46 2.77389 325.908 2.78733Z" fill="black"/>
<path d="M224.689 306.058C223.326 251.404 236.905 214.104 236.905 214.104C236.905 214.104 256.756 169.425 265.946 160.981C275.135 152.537 297.113 143.574 297.113 143.574L282.088 107.612C282.088 107.612 303.494 106.082 321.136 104.278C338.779 102.475 364.765 86.6252 364.765 86.6252C375.672 102.502 371.309 121.958 371.309 121.958C379.49 116.138 387.916 124.336 390.724 135.622C389.061 139.147 408.612 146.88 416.52 160.981C424.428 175.081 428.763 190.029 425.846 198.937C424.658 202.427 422.581 205.545 419.819 207.982C419.973 225.947 417.922 243.862 413.711 261.324C406.567 293.351 402.559 306.303 402.559 306.303L224.689 306.058Z" fill="white"/>
<path d="M403.459 307.424H223.353V306.085C221.989 251.924 235.514 214.022 235.651 213.639C236.496 211.726 255.747 168.523 265.046 159.97C273.226 152.537 290.487 144.913 295.368 142.836L280.098 106.246L282.007 106.109C282.197 106.109 303.576 104.551 321 102.775C338.424 100.999 363.674 85.4775 363.92 85.3135L365.038 84.6304L365.774 85.6961C372.142 95.6424 374.708 107.56 373 119.253C375.322 118.338 377.904 118.338 380.226 119.253C385.489 121.166 389.961 127.26 391.951 135.13V135.594L391.733 136.059C393.663 138.164 395.864 140.002 398.278 141.524C404.413 145.924 412.839 151.963 417.365 160.27C426.009 175.655 429.636 190.63 426.8 199.32C425.597 202.844 423.546 206.016 420.828 208.556C420.867 226.417 418.807 244.219 414.693 261.597C407.603 293.296 403.54 306.549 403.513 306.686L403.459 307.424ZM225.998 304.691H401.441C402.477 301.139 406.295 287.612 412.348 260.805C416.481 243.45 418.513 225.66 418.401 207.819V207.135L418.92 206.698C421.474 204.405 423.407 201.499 424.537 198.254C427.264 190.248 423.61 176.12 415.32 161.391C410.93 153.63 402.804 147.727 396.86 143.519C391.87 139.939 388.679 137.671 389.279 135.321C387.507 128.626 383.635 123.297 379.381 121.658C378.165 121.204 376.853 121.073 375.572 121.279C374.291 121.485 373.086 122.02 372.073 122.833L369.183 124.937L369.946 121.439C369.946 121.248 373.873 103.212 364.302 88.2375C359.066 91.3527 337.197 103.814 321.354 105.426C306.93 106.902 289.778 108.159 284.161 108.623L298.995 144.148L297.713 144.667C297.495 144.667 275.898 153.63 266.955 161.828C258.011 170.026 238.35 214.186 238.159 214.677C237.969 215.169 225.016 251.787 225.998 304.691Z" fill="black"/>
<path d="M333.625 195.057C329.046 200.782 326.631 207.944 326.808 215.279L333.625 195.057Z" fill="white"/>
<path d="M328.172 215.279H325.445C325.249 207.593 327.803 200.092 332.644 194.128L334.634 195.986C330.307 201.468 328.022 208.29 328.172 215.279Z" fill="black"/>
<path d="M409.867 198.691C407.511 194.811 404.386 191.456 400.686 188.834C396.985 186.211 392.788 184.376 388.352 183.443C381.064 181.893 373.508 182.139 366.336 184.162C359.163 186.185 352.589 189.924 347.177 195.057" fill="white"/>
<path d="M408.667 199.32C406.383 195.629 403.381 192.437 399.839 189.935C396.297 187.432 392.288 185.67 388.052 184.755C380.983 183.263 373.659 183.51 366.706 185.476C359.754 187.441 353.38 191.066 348.132 196.041L346.25 194.073C351.819 188.79 358.585 184.94 365.966 182.855C373.347 180.77 381.123 180.512 388.625 182.104C393.256 183.074 397.638 184.993 401.495 187.739C405.352 190.485 408.601 194 411.039 198.063L408.667 199.32Z" fill="black"/>
<path d="M306.084 247.743C306.084 247.743 316.146 227.712 321.736 220.635C329.542 211.461 338.048 202.91 347.177 195.057" fill="white"/>
<path d="M307.311 248.371L304.885 247.141C305.294 246.294 315.056 226.892 320.645 219.815C328.525 210.577 337.103 201.962 346.305 194.046L348.077 196.123C339.011 203.919 330.56 212.407 322.8 221.509C317.373 228.368 307.42 248.153 307.311 248.371Z" fill="black"/>
<path d="M409.867 220.635C404.931 233.26 396.015 252.989 383.717 268.511C371.03 284.215 356.364 298.204 340.088 310.129" fill="white"/>
<path d="M340.797 311.25L339.242 309.009C355.412 297.137 370 283.243 382.653 267.664C394.624 252.552 403.377 233.478 408.612 220.143L411.148 221.154C405.695 234.653 396.969 253.946 384.78 269.358C371.972 285.154 357.19 299.234 340.797 311.25Z" fill="black"/>
<path d="M284.079 92.0086H283.888C279.607 92.0086 277.153 86.9806 277.071 86.7619L279.525 85.5596C280.016 86.598 281.788 89.2487 283.943 89.276C285.669 89.3195 287.369 88.8436 288.824 87.9097L290.46 90.0958C288.572 91.3604 286.349 92.0269 284.079 92.0086Z" fill="black"/>
<path d="M283.288 49.7617C283.288 49.7617 265.618 64.8186 265.237 70.0653C264.855 75.312 278.298 74.0003 278.298 74.0003" fill="white"/>
<path d="M274.89 75.5306C271.672 75.5306 267.146 75.1207 265.073 73.0985C264.651 72.6985 264.323 72.2084 264.116 71.6644C263.908 71.1203 263.825 70.5365 263.873 69.956C264.282 64.4907 279.389 51.2919 282.416 48.6959L284.161 50.8001C277.507 56.484 266.846 66.7588 266.6 70.1472C266.581 70.3339 266.605 70.5227 266.671 70.6982C266.738 70.8738 266.844 71.0314 266.982 71.1584C268.727 72.8526 274.753 72.9619 278.162 72.6613L278.407 75.394C277.238 75.5057 276.064 75.5513 274.89 75.5306Z" fill="black"/>
<path d="M296.186 57.3037C296.186 57.3037 296.186 52.4669 293.214 50.8C292.291 50.3433 291.254 50.1722 290.234 50.3085C289.215 50.4448 288.258 50.8822 287.488 51.5652" fill="white"/>
<path d="M297.549 57.3312H294.823C294.823 56.2108 294.468 53.0955 292.559 52.0571C291.881 51.7459 291.129 51.6346 290.39 51.7362C289.651 51.8378 288.956 52.1482 288.387 52.631L286.56 50.6088C287.54 49.7289 288.762 49.1667 290.066 48.996C291.371 48.8253 292.696 49.0541 293.868 49.6524C297.631 51.6472 297.549 57.0852 297.549 57.3312Z" fill="black"/>
<path d="M342.596 3.41581C364.82 8.63518 402.341 38.1752 366.401 89.2486C366.401 89.2486 356.367 83.7833 352.495 78.9738C371.882 64.6 358.657 33.9396 341.369 62.086C315.846 50.2262 346.987 27.9824 336.325 21.0961C309.384 3.7164 284.515 22.2165 284.515 22.2165C284.515 22.2165 300.249 -6.50374 342.596 3.41581Z" fill="black"/>
<path d="M366.81 91.0522L365.747 90.451C365.31 90.2324 355.412 84.8217 351.431 79.8209L350.559 78.7005L351.677 77.8807C354.91 75.6786 357.444 72.5914 358.977 68.9869C360.509 65.3824 360.976 61.4124 360.32 57.5498C360.151 56.2771 359.615 55.0818 358.777 54.1108C357.938 53.1398 356.835 52.4355 355.603 52.0845C351.867 51.5106 347.095 55.4183 342.514 62.8511L341.887 63.8896L340.796 63.3977C338.508 62.5519 336.413 61.2519 334.637 59.5756C332.861 57.8993 331.441 55.8812 330.462 53.6421C328.144 47.3297 331.307 40.5527 334.089 34.5135C336.87 28.4743 338.697 24.2387 335.588 22.2165C309.711 5.54733 285.497 23.1183 285.251 23.2823L280.207 27.026L283.234 21.5607C283.397 21.2601 300.058 -7.95199 342.896 2.10419C356.53 5.30139 373.246 16.2867 379.817 33.6117C386.116 50.1716 381.835 69.6828 367.492 90.0411L366.81 91.0522ZM354.485 79.1378C357.984 82.3166 361.847 85.0685 365.992 87.3358C379.408 67.8519 383.198 50.0623 377.281 34.4315C371.091 18.0356 354.812 7.56949 342.269 4.61822C312.274 -2.4047 296.131 10.0836 289.396 17.6257C296.827 13.7443 305.151 11.902 313.522 12.2859C321.893 12.6699 330.014 15.2663 337.061 19.8118C342.324 23.2276 339.406 29.4854 336.57 35.5519C334.007 41.0172 331.116 47.275 332.998 52.5217C334.538 55.9947 337.349 58.7432 340.851 60.2005C347.641 49.6524 353.231 48.7506 356.012 49.2698C357.795 49.688 359.41 50.6333 360.65 51.9831C361.89 53.3328 362.697 55.0246 362.965 56.8393C363.762 60.9787 363.391 65.2589 361.893 69.1983C360.394 73.1376 357.829 76.5799 354.485 79.1378Z" fill="black"/>
<path d="M303.876 49.7617C301.404 46.3392 297.799 43.9083 293.705 42.9027C292.126 42.4404 290.46 42.3653 288.846 42.684C287.232 43.0026 285.719 43.7056 284.434 44.7336" fill="white"/>
<path d="M304.776 49.2425C302.487 45.9433 299.182 43.4862 295.368 42.2469C291.823 41.1812 286.533 41.0992 283.697 44.0231C282.797 44.9522 284.243 46.4005 285.142 45.4714C285.281 45.2966 285.459 45.1563 285.661 45.0615C286.254 44.6701 286.896 44.3578 287.569 44.1324C290.036 43.4025 292.669 43.4694 295.095 44.3237C297.274 45.0794 299.258 46.3116 300.903 47.9308C301.678 48.6435 302.382 49.4307 303.003 50.2809C303.739 51.3466 305.512 50.2809 304.776 49.2425Z" fill="black"/>
<path d="M296.841 67.2507H295.804C287.624 66.2669 283.179 64.3541 282.552 56.9212L285.279 56.6753C285.715 61.8127 288.006 63.5889 296.186 64.518C296.787 64.6302 297.406 64.605 297.996 64.4441C298.587 64.2833 299.133 63.9909 299.595 63.5889C301.349 61.3326 302.239 58.5213 302.103 55.6642V55.0357L304.23 53.1502L304.367 51.6199C300.892 50.2032 297.342 48.9808 293.732 47.9581C290.214 47.0501 286.529 47.0032 282.988 47.8215L281.952 47.9854L281.516 45.2528L282.525 45.0888C286.456 44.2093 290.54 44.2749 294.441 45.2801C298.486 46.4284 302.456 47.8247 306.33 49.4611L307.257 49.8437L306.848 54.4345L304.83 56.2381C304.862 59.6645 303.651 62.9858 301.422 65.5838C300.167 66.7122 298.525 67.3097 296.841 67.2507Z" fill="black"/>
<path d="M222.971 246.759C219.916 234.379 213.476 223.099 204.374 214.186C201.674 211.625 198.833 209.217 195.867 206.971" fill="white"/>
<path d="M221.635 246.977C218.63 234.859 212.335 223.812 203.447 215.06C200.72 212.546 197.994 210.141 195.049 207.9L196.712 205.742C199.705 208.025 202.573 210.47 205.301 213.065C214.691 222.149 221.311 233.721 224.389 246.431L221.635 246.977Z" fill="black"/>
<path d="M298.64 114.799L307.093 148.383L333.571 179.891C333.571 179.891 345.65 167.402 359.639 163.631C373.627 159.86 401.168 159.068 401.168 159.068L365.283 127.67L362.257 99.5779C362.257 99.5779 335.316 124.008 298.64 114.799Z" fill="#D0D5DD"/>
<path d="M310.584 144.339L310.12 141.606C351.568 134.419 361.221 124.882 361.302 124.8L363.293 126.686C362.884 127.123 353.176 136.906 310.584 144.339Z" fill="black"/>
<path d="M295.368 153.685L323.4 182.323C314.684 188.57 307.824 197.07 303.548 206.917C298.095 219.624 303.548 243.89 303.548 243.89L258.065 200.686C260.808 190.74 265.526 181.451 271.936 173.375C278.345 165.299 286.315 158.602 295.368 153.685Z" fill="#D0D5DD"/>
<path d="M222.835 304.035C222.835 304.035 285.306 324.694 308.402 321.224C321 319.338 346.223 309.364 347.177 300.292" fill="white"/>
<path d="M302.376 323C276.144 323 224.771 306.112 222.426 305.32L223.271 302.724C223.898 302.942 285.715 323.273 308.211 319.885C321.845 317.835 345.023 307.779 345.841 300.155L348.568 300.456C347.45 311.113 319.718 320.923 308.648 322.59C306.57 322.879 304.474 323.016 302.376 323Z" fill="black"/>
<path d="M324.927 249.956C324.927 249.956 301.558 241.949 248.576 256.405C235.896 259.876 224.498 270.533 224.498 270.533" fill="white"/>
<path d="M225.507 271.571L223.653 269.577C224.116 269.139 235.433 258.646 248.194 255.121C300.931 240.72 324.327 248.344 325.281 248.699L324.408 251.268C324.163 251.268 300.685 243.616 248.93 257.744C236.823 261.051 225.616 271.571 225.507 271.571Z" fill="black"/>
<path d="M198.157 218.394C198.157 218.394 196.603 228.696 184.823 239.408C173.043 250.12 168.326 246.759 168.326 246.759C168.326 246.759 182.996 281.928 201.838 283.049C220.681 284.169 222.835 257.498 222.835 257.498C222.835 257.498 220.353 246.13 214.845 256.924C209.337 267.718 214.109 229.27 198.157 218.394Z" fill="#D0D5DD"/>
<path d="M119.434 262.909L203.693 220.553L137.377 190.739L29.2314 222.356L119.434 262.909Z" fill="black"/>
<path d="M119.462 264.412L25.2776 222.083L137.459 189.291L206.883 220.498L119.462 264.412ZM33.1581 222.629L119.407 261.406L200.475 220.607L137.268 192.324L33.1581 222.629Z" fill="black"/>
<path d="M26.2318 220.662L137.377 190.739L113.708 87.445L3.76294 99.0041L26.2318 220.662Z" fill="white"/>
<path d="M25.1411 222.384L2.15405 97.8019L114.744 85.9695L138.985 191.723L25.1411 222.384ZM5.37175 100.207L27.1862 218.968L135.631 189.783L112.535 88.9481L5.37175 100.207Z" fill="black"/>
<path d="M198.839 209.24C198.839 209.24 186.35 188.307 166.499 195.057C146.648 201.807 142.83 192.926 140.731 198.773C138.631 204.621 150.002 210.824 159.191 207.737C168.381 204.649 186.459 210.988 186.459 210.988" fill="white"/>
<path d="M185.887 212.3C185.723 212.3 168.244 206.151 159.627 209.048C156.513 210.014 153.204 210.164 150.016 209.485C146.827 208.806 143.865 207.319 141.412 205.168C140.454 204.341 139.757 203.251 139.408 202.032C139.06 200.814 139.074 199.519 139.449 198.309C140.758 194.674 143.13 195.139 145.884 195.576C149.347 196.259 155.183 197.38 166.063 193.691C186.705 186.668 199.875 208.228 200.012 208.447L197.667 209.841C197.176 209.021 185.478 189.974 166.935 196.177C155.374 200.112 149.102 198.91 145.366 198.145C142.64 197.598 142.639 197.653 142.012 199.047C141.84 199.777 141.876 200.541 142.117 201.252C142.358 201.962 142.794 202.59 143.376 203.064C145.457 204.862 147.961 206.1 150.652 206.659C153.343 207.219 156.132 207.081 158.755 206.261C168.272 203.064 186.023 209.267 186.787 209.513L185.887 212.3Z" fill="black"/>
<path d="M236.742 280.753C231.97 269.249 225.834 269.822 225.834 269.822C225.834 269.822 203.147 270.15 198.757 270.287C194.367 270.424 185.696 271.735 177.079 282.256C171.777 289.099 168.694 297.406 168.244 306.058H177.079L197.012 307.424L196.221 309.747L205.792 310.047L215.418 300.456L226.053 305.128C226.053 305.128 241.513 292.23 236.742 280.753Z" fill="white"/>
<path d="M206.419 311.495L194.421 311.14L195.239 308.736L177.052 307.506H166.962V306.139C167.423 297.198 170.611 288.613 176.097 281.546C182.642 273.594 190.277 269.385 198.784 269.112C203.147 268.948 225.671 268.62 225.889 268.62C226.107 268.62 232.897 268.074 237.996 280.371C243.095 292.667 227.688 305.866 227.089 306.413L226.434 306.987L215.854 302.314L206.419 311.495ZM198.239 308.517L205.356 308.736L215.227 298.898L225.916 303.598C228.643 301.084 239.332 290.427 235.514 281.272C231.261 271.025 226.08 271.161 226.025 271.189C225.971 271.216 203.256 271.517 198.893 271.653C191.204 271.927 184.25 275.78 178.224 283.13C173.406 289.354 170.49 296.842 169.826 304.691H177.188L199.002 306.167L198.239 308.517Z" fill="black"/>
<path d="M188.886 282.256C185.39 284.492 182.644 287.729 181.006 291.547C179.124 297.012 177.161 306.139 177.161 306.139" fill="white"/>
<path d="M178.47 306.44L175.743 305.839C175.743 305.484 177.761 296.685 179.642 291.11C181.368 286.978 184.319 283.477 188.095 281.081L189.513 283.404C186.299 285.494 183.76 288.475 182.205 291.984C180.46 297.422 178.497 306.331 178.47 306.44Z" fill="black"/>
<path d="M200.475 282.256C195.376 285.548 191.392 290.312 189.05 295.919C186.05 304.445 186.895 306.85 186.895 306.85" fill="white"/>
<path d="M185.614 307.096C185.45 306.659 184.741 303.953 187.768 295.4C190.206 289.477 194.392 284.443 199.766 280.972L201.211 283.294C196.365 286.447 192.568 290.975 190.304 296.302C187.577 303.871 188.177 306.194 188.177 306.222L185.614 307.096Z" fill="black"/>
<path d="M208.792 287.339C205.111 290.072 197.094 307.506 197.094 307.506L208.792 287.339Z" fill="white"/>
<path d="M198.348 308.08L195.867 306.932C196.712 305.128 204.047 289.142 207.974 286.246L209.61 288.432C207.101 290.317 201.511 301.221 198.348 308.08Z" fill="black"/>
<path d="M1.66333 1.42096H60.1534L84.5583 127.478L29.0132 139.748L1.66333 1.42096Z" fill="white"/>
<path d="M27.9225 141.388L0 0.0546265H61.4077L86.2762 128.489L27.9225 141.388ZM3.38122 2.78728L30.1312 138.108L83.0041 126.44L59.0627 2.78728H3.38122Z" fill="black"/>
<path d="M84.2312 32.4366L142.285 30.0046L166.69 151.963L110.627 161.035L84.2312 32.4366Z" fill="white"/>
<path d="M109.563 162.593L82.5679 31.0977L143.376 28.5564L168.299 153.056L109.563 162.593ZM85.9491 33.8304L111.772 159.533L165.027 150.843L141.112 31.4257L85.9491 33.8304Z" fill="black"/>
<path d="M289.859 58.3678C291.075 58.2698 291.924 56.4829 291.755 54.3769C291.586 52.2708 290.463 50.643 289.247 50.741C288.031 50.839 287.182 52.6258 287.351 54.7319C287.52 56.838 288.643 58.4658 289.859 58.3678Z" fill="black"/>
<path d="M8.04419 8.6626L13.9068 33.3112L59.4173 30.0046L55.4634 8.6626H8.04419Z" fill="#0500FF"/>
<path d="M173.97 85.1769L231.697 81.5425L243.613 141.005L188.068 153.275L173.97 85.1769Z" fill="white"/>
<path d="M187.005 154.914L172.307 83.8652L232.815 80.0668L245.222 142.016L187.005 154.914ZM175.607 86.4339L189.241 151.635L242.113 139.967L230.606 83.0181L175.607 86.4339Z" fill="black"/>
<path d="M180.351 92.4184L186.214 117.067L231.697 113.76L227.034 88.784L180.351 92.4184Z" fill="#0500FF"/>
<path d="M91.7026 38.7764L98.8469 70.4479L145.257 65.8844L139.231 36.1257L91.7026 38.7764Z" fill="#0500FF"/>
<path d="M332.861 294.498C332.861 294.498 388.243 262.144 395.905 232.167C403.568 202.189 392.415 190.029 368.065 205.168C343.714 220.307 336.325 259.138 336.325 259.138C336.325 259.138 294.25 253.891 273.363 262.909C252.475 271.927 243.613 273.32 243.613 273.32C243.613 273.32 247.976 295.018 243.613 297.422C239.25 299.827 304.993 313.818 332.861 294.498Z" fill="#D0D5DD"/>
</g>
<defs>
<clipPath id="clip0_45_603">
<rect width="428" height="323" fill="white"/>
</clipPath>
</defs>
</svg>
