<svg width="54" height="54" viewBox="0 0 54 54" fill="none" xmlns="http://www.w3.org/2000/svg">
<path d="M9.86008 0C4.39803 0 0 4.39802 0 9.86006V44.1399C0 49.6019 4.39803 53.9999 9.86008 53.9999H28.4395V32.8893H22.8572V25.2888H28.4395V18.7954C28.4395 13.6937 31.7377 9.00956 39.3357 9.00956C42.4119 9.00956 44.6867 9.30488 44.6867 9.30488L44.5078 16.4025C44.5078 16.4025 42.1878 16.3806 39.6562 16.3806C36.9163 16.3806 36.477 17.643 36.477 19.7387V25.2889H44.7255L44.3661 32.8894H36.477V54H44.1399C49.602 54 54 49.602 54 44.1399V9.86011C54 4.39808 49.602 5.39999e-05 44.1399 5.39999e-05H9.86002L9.86008 0Z" fill="white"/>
</svg>
