<svg width="306" height="54" viewBox="0 0 306 54" fill="none" xmlns="http://www.w3.org/2000/svg">
<path fill-rule="evenodd" clip-rule="evenodd" d="M27 0C12.0825 0 0 12.3881 0 27.6829C0 39.9326 7.72875 50.2791 18.4613 53.9471C19.8113 54.1894 20.3175 53.3589 20.3175 52.6322C20.3175 51.9747 20.2838 49.7947 20.2838 47.4762C13.5 48.7566 11.745 45.7807 11.205 44.2235C10.9013 43.4276 9.585 40.9707 8.4375 40.3133C7.4925 39.7942 6.1425 38.5139 8.40375 38.4793C10.53 38.4447 12.0487 40.4863 12.555 41.3168C14.985 45.5038 18.8662 44.3273 20.4187 43.6006C20.655 41.8012 21.3638 40.5901 22.14 39.898C16.1325 39.206 9.855 36.8183 9.855 26.2296C9.855 23.2191 10.9012 20.7276 12.6225 18.7898C12.3525 18.0977 11.4075 15.2602 12.8925 11.4538C12.8925 11.4538 15.1537 10.7271 20.3175 14.2913C22.4775 13.6684 24.7725 13.357 27.0675 13.357C29.3625 13.357 31.6575 13.6684 33.8175 14.2913C38.9813 10.6925 41.2425 11.4538 41.2425 11.4538C42.7275 15.2602 41.7825 18.0977 41.5125 18.7898C43.2338 20.7276 44.28 23.1845 44.28 26.2296C44.28 36.8529 37.9688 39.206 31.9612 39.898C32.94 40.7631 33.7838 42.4241 33.7838 45.0194C33.7838 48.722 33.75 51.6979 33.75 52.6322C33.75 53.3589 34.2562 54.224 35.6062 53.9471C40.9661 52.0917 45.6236 48.5597 48.9232 43.8483C52.2228 39.1369 53.9984 33.4832 54 27.6829C54 12.3881 41.9175 0 27 0Z" fill="white"/>
<path d="M135.86 0C130.398 0 126 4.39802 126 9.86006V44.1399C126 49.6019 130.398 53.9999 135.86 53.9999H154.439V32.8893H148.857V25.2888H154.439V18.7954C154.439 13.6937 157.738 9.00956 165.336 9.00956C168.412 9.00956 170.687 9.30488 170.687 9.30488L170.508 16.4025C170.508 16.4025 168.188 16.3806 165.656 16.3806C162.916 16.3806 162.477 17.643 162.477 19.7387V25.2889H170.726L170.366 32.8894H162.477V54H170.14C175.602 54 180 49.602 180 44.1399V9.86011C180 4.39808 175.602 5.39999e-05 170.14 5.39999e-05H135.86L135.86 0Z" fill="white"/>
<path fill-rule="evenodd" clip-rule="evenodd" d="M267.869 0.162C270.748 0.0294545 271.666 0 279 0C286.334 0 287.252 0.0319091 290.129 0.162C293.006 0.292091 294.969 0.751091 296.687 1.41627C298.487 2.09618 300.119 3.159 301.469 4.53355C302.843 5.88109 303.904 7.51091 304.581 9.31255C305.249 11.0307 305.705 12.9944 305.838 15.8662C305.971 18.7503 306 19.6683 306 27C306 34.3342 305.968 35.2522 305.838 38.1314C305.708 41.0032 305.249 42.9668 304.581 44.685C303.904 46.4869 302.842 48.1194 301.469 49.4689C300.119 50.8435 298.487 51.9038 296.687 52.5813C294.969 53.2489 293.006 53.7055 290.134 53.838C287.252 53.9705 286.334 54 279 54C271.666 54 270.748 53.9681 267.869 53.838C264.997 53.7079 263.033 53.2489 261.315 52.5813C259.513 51.9037 257.881 50.8416 256.531 49.4689C255.157 48.1206 254.094 46.4888 253.416 44.6875C252.751 42.9693 252.295 41.0056 252.162 38.1338C252.029 35.2497 252 34.3317 252 27C252 19.6658 252.032 18.7478 252.162 15.8711C252.292 12.9944 252.751 11.0307 253.416 9.31255C254.096 7.51111 255.159 5.87941 256.534 4.53109C257.881 3.15778 259.512 2.09482 261.313 1.41627C263.031 0.751091 264.994 0.294545 267.866 0.162H267.869ZM289.91 5.022C287.063 4.89191 286.209 4.86491 279 4.86491C271.791 4.86491 270.937 4.89191 268.09 5.022C265.456 5.14227 264.027 5.58164 263.075 5.95227C261.816 6.44318 260.915 7.02491 259.97 7.96991C259.074 8.8414 258.385 9.90233 257.952 11.0749C257.582 12.0273 257.142 13.4558 257.022 16.0895C256.892 18.9368 256.865 19.791 256.865 27C256.865 34.209 256.892 35.0632 257.022 37.9105C257.142 40.5442 257.582 41.9727 257.952 42.9251C258.384 44.0959 259.074 45.1587 259.97 46.0301C260.841 46.926 261.904 47.6157 263.075 48.0477C264.027 48.4184 265.456 48.8577 268.09 48.978C270.937 49.1081 271.789 49.1351 279 49.1351C286.211 49.1351 287.063 49.1081 289.91 48.978C292.544 48.8577 293.973 48.4184 294.925 48.0477C296.184 47.5568 297.085 46.9751 298.03 46.0301C298.926 45.1587 299.616 44.0959 300.048 42.9251C300.418 41.9727 300.858 40.5442 300.978 37.9105C301.108 35.0632 301.135 34.209 301.135 27C301.135 19.791 301.108 18.9368 300.978 16.0895C300.858 13.4558 300.418 12.0273 300.048 11.0749C299.557 9.81573 298.975 8.91491 298.03 7.96991C297.159 7.07418 296.098 6.38479 294.925 5.95227C293.973 5.58164 292.544 5.14227 289.91 5.022ZM275.551 35.3234C277.477 36.1251 279.622 36.2333 281.619 35.6295C283.616 35.0257 285.341 33.7473 286.5 32.0128C287.659 30.2782 288.18 28.195 287.974 26.1191C287.768 24.0431 286.847 22.1031 285.37 20.6305C284.428 19.6891 283.289 18.9683 282.035 18.5199C280.781 18.0715 279.443 17.9068 278.118 18.0375C276.792 18.1682 275.512 18.5912 274.37 19.2759C273.228 19.9606 272.252 20.89 271.512 21.9973C270.772 23.1045 270.287 24.3621 270.091 25.6794C269.896 26.9966 269.995 28.3409 270.381 29.6154C270.767 30.8898 271.431 32.0628 272.325 33.0498C273.219 34.0368 274.321 34.8133 275.551 35.3234ZM269.187 17.1867C270.475 15.898 272.005 14.8758 273.689 14.1783C275.373 13.4809 277.178 13.1219 279 13.1219C280.822 13.1219 282.627 13.4809 284.311 14.1783C285.995 14.8758 287.525 15.898 288.813 17.1867C290.102 18.4754 291.124 20.0053 291.822 21.6891C292.519 23.3729 292.878 25.1775 292.878 27C292.878 28.8225 292.519 30.6271 291.822 32.3109C291.124 33.9947 290.102 35.5246 288.813 36.8133C286.211 39.4159 282.681 40.8781 279 40.8781C275.319 40.8781 271.789 39.4159 269.187 36.8133C266.584 34.2106 265.122 30.6807 265.122 27C265.122 23.3193 266.584 19.7894 269.187 17.1867ZM295.956 15.1887C296.275 14.8875 296.531 14.5252 296.708 14.1234C296.885 13.7216 296.979 13.2883 296.985 12.8494C296.992 12.4104 296.91 11.9746 296.745 11.5678C296.58 11.161 296.335 10.7914 296.025 10.481C295.714 10.1706 295.345 9.92559 294.938 9.76054C294.531 9.5955 294.095 9.51376 293.656 9.52016C293.217 9.52656 292.784 9.62097 292.382 9.7978C291.98 9.97463 291.618 10.2303 291.317 10.5496C290.731 11.1707 290.41 11.9957 290.423 12.8494C290.435 13.7031 290.78 14.5183 291.384 15.1221C291.987 15.7258 292.803 16.0705 293.656 16.0829C294.51 16.0954 295.335 15.7746 295.956 15.1887Z" fill="white"/>
</svg>
