<svg width="37" height="37" viewBox="0 0 37 37" fill="none" xmlns="http://www.w3.org/2000/svg">
<g clip-path="url(#clip0_66_3325)">
<path d="M16.3055 0.993324C7.83942 1.90275 1.02971 8.63248 0.109474 16.8173C-0.810758 25.3659 4.15849 33.005 11.7044 35.9152C12.2565 36.0971 12.8087 35.7333 12.8087 35.0058V32.0956C12.8087 32.0956 12.0725 32.2775 11.1523 32.2775C8.5756 32.2775 7.47133 30.0949 7.28728 28.8217C7.10323 28.0941 6.73514 27.5485 6.183 27.0028C5.63086 26.8209 5.44682 26.821 5.44682 26.6391C5.44682 26.2753 5.99896 26.2753 6.183 26.2753C7.28728 26.2753 8.20751 27.5485 8.5756 28.0941C9.49583 29.5492 10.6001 29.913 11.1523 29.913C11.8884 29.913 12.4406 29.7311 12.8087 29.5492C12.9927 28.276 13.5449 27.0028 14.6491 26.2753C10.4161 25.3659 7.28728 23.0014 7.28728 18.9999C7.28728 16.9992 8.20751 14.9984 9.49583 13.5434C9.31179 13.1796 9.12774 12.2702 9.12774 10.997C9.12774 10.2694 9.12774 9.17813 9.67988 8.08683C9.67988 8.08683 12.2565 8.08683 14.8332 10.4513C15.7534 10.0876 17.0417 9.90567 18.3301 9.90567C19.6184 9.90567 20.9067 10.0876 22.011 10.4513C24.4036 8.08683 27.1643 8.08683 27.1643 8.08683C27.5324 9.17813 27.5324 10.2694 27.5324 10.997C27.5324 12.4521 27.3483 13.1796 27.1643 13.5434C28.4526 14.9984 29.3728 16.8173 29.3728 18.9999C29.3728 23.0014 26.244 25.3659 22.011 26.2753C23.1153 27.1847 23.8514 28.8217 23.8514 30.4586V35.1876C23.8514 35.7333 24.4036 36.279 25.1398 36.0971C31.9495 33.3688 36.7347 26.8209 36.7347 19.1818C36.7347 8.26871 27.3483 -0.279869 16.3055 0.993324Z" fill="#0500FF"/>
</g>
<defs>
<clipPath id="clip0_66_3325">
<rect width="36.7347" height="36" fill="white" transform="translate(0 0.5)"/>
</clipPath>
</defs>
</svg>
