<svg width="670" height="477" viewBox="0 0 670 477" fill="none" xmlns="http://www.w3.org/2000/svg">
<path d="M434.765 473.007C434.16 421.996 413.488 373.279 377.23 337.421C340.972 301.562 292.052 281.453 241.078 281.453C190.103 281.453 141.182 301.562 104.925 337.421C68.6669 373.279 47.9945 421.996 47.3901 473.007H434.765Z" fill="#0500FF"/>
<path d="M391.759 133.533L393.121 145.471C393.148 145.749 393.252 146.013 393.421 146.235C393.594 146.454 393.818 146.627 394.074 146.739C394.327 146.848 394.604 146.89 394.878 146.862C395.154 146.832 395.418 146.728 395.641 146.562L396.362 146.003L396.022 141.451C395.728 137.583 396.49 133.707 398.227 130.238C399.963 126.769 402.609 123.838 405.881 121.758L432.586 104.776C433.554 104.182 434.598 103.724 435.691 103.413L429.658 96.722C429.209 96.2375 428.661 95.8562 428.051 95.6044C427.444 95.3479 426.79 95.2225 426.131 95.2364C425.47 95.2638 424.821 95.4263 424.225 95.7135C423.636 96.0117 423.117 96.4293 422.699 96.9399L391.759 133.533Z" stroke="black" stroke-width="1.56" stroke-miterlimit="10"/>
<path d="M435.65 103.264C434.557 103.574 433.513 104.032 432.545 104.627L405.84 121.608C402.568 123.688 399.923 126.62 398.186 130.088C396.449 133.557 395.687 137.432 395.981 141.301L396.321 145.853" stroke="black" stroke-width="1.56" stroke-miterlimit="10"/>
<path d="M406.603 235.924L412.99 275.447" stroke="black" stroke-width="1.56" stroke-miterlimit="10"/>
<path d="M396.348 145.935L403.866 203.87" stroke="black" stroke-width="1.56" stroke-miterlimit="10"/>
<path d="M290.619 348.946L336.239 464.857H362.345L336.239 330.997C342.367 334.963 352.227 338.847 364.319 341.982C392.999 349.409 434.179 352.599 467.488 342.541C495.051 334.2 517.112 316.796 522.219 285.301C522.882 281.167 523.385 277.078 523.73 273.035C504.366 286.514 363.407 266.507 316.738 282.084C306.947 285.26 272.671 301.6 290.619 348.946Z" fill="black"/>
<path d="M523.785 272.98C523.989 272.803 524.207 272.68 524.397 272.517" stroke="black" stroke-width="1.56" stroke-miterlimit="10"/>
<path d="M523.785 272.98C530.921 189.669 471.792 128.272 446.599 105.785C445.141 104.482 443.378 103.569 441.474 103.128C439.57 102.687 437.586 102.734 435.704 103.264" stroke="black" stroke-width="1.56" stroke-miterlimit="10"/>
<path d="M0.394788 474.656H408.931" stroke="black" stroke-width="1.56" stroke-miterlimit="10"/>
<path d="M547.507 474.656H669.088" stroke="black" stroke-width="1.56" stroke-miterlimit="10"/>
<path d="M364.346 342.05C393.053 349.477 434.315 352.653 467.529 342.581" stroke="black" stroke-width="1.56" stroke-miterlimit="10"/>
<path d="M370.515 351.822C397.279 357.827 420.92 360.83 441.437 360.83C475.101 360.83 500.648 352.789 518.814 336.68C563.535 297.021 555.473 216.749 546.949 131.761L546.172 123.775C545.874 121.687 544.783 119.796 543.124 118.495C541.466 117.194 539.369 116.585 537.273 116.794C535.176 117.003 533.241 118.015 531.873 119.618C530.504 121.221 529.806 123.291 529.926 125.397L530.757 133.478C538.86 214.119 546.486 290.507 508.029 324.592C497.733 333.709 484.32 339.719 467.57 342.65C434.261 352.707 393.08 349.464 364.387 342.091C363.922 344.194 364.305 346.395 365.453 348.217C366.6 350.039 368.419 351.334 370.515 351.822Z" stroke="black" stroke-width="1.56" stroke-miterlimit="10"/>
<path d="M408.945 474.642H547.507C536.204 466.983 509.377 461.586 478.219 461.586C447.062 461.586 420.248 466.983 408.945 474.642Z" stroke="black" stroke-width="1.56" stroke-miterlimit="10"/>
<path d="M466.807 358.759L478.233 461.586" stroke="black" stroke-width="1.56" stroke-miterlimit="10"/>
<path d="M363.475 54.2418C363.162 42.3577 375.84 22.8961 402.041 30.0648C428.242 37.2334 438.727 59.5704 433.852 71.3591C428.977 83.1478 418.055 89.1855 407.093 82.8209C407.093 82.8209 413.221 71.0459 404.519 65.2129C395.817 59.3799 394.619 71.7682 396.049 76.4292C397.479 81.0902 388.341 73.7034 384.338 66.4393C382.148 66.4628 379.976 66.0459 377.951 65.2129C375.914 64.3824 374.062 63.1545 372.503 61.6011C369.86 58.7134 366.804 56.2335 363.434 54.2418H363.475Z" fill="black"/>
<path d="M404.628 29.1378C403.451 28.4043 402.521 27.3346 401.958 26.0663C401.394 24.7981 401.224 23.3897 401.469 22.0237C403.593 10.9437 415.7 -5.36958 435.024 2.09888C457.629 10.8212 446.98 31.2913 436.658 31.1278C430.206 31.221 424.036 33.7867 419.418 38.2964L404.628 29.1378Z" fill="black"/>
<path d="M402.109 95.1275C402.109 95.1275 382.2 113.403 378.019 110.977C373.838 108.551 368.296 91.3387 368.296 91.3387C365.995 91.6655 363.652 91.5028 361.419 90.8616C359.294 89.7849 365.177 81.1038 364.769 74.3985C364.36 67.6932 362.44 58.8617 364.565 54.7732" stroke="black" stroke-width="1.56" stroke-miterlimit="10"/>
<path d="M424.401 95.8905C420.013 91.8088 416.065 87.2776 412.622 82.371" stroke="black" stroke-width="1.56" stroke-miterlimit="10"/>
<path d="M390.302 104.981C390.302 104.981 401.728 118.35 401.646 123.516" stroke="black" stroke-width="1.56" stroke-miterlimit="10"/>
<path d="M364.565 54.7732C365.681 59.8839 374.628 70.4052 382.908 69.5194" stroke="black" stroke-width="1.56" stroke-miterlimit="10"/>
<path d="M417.416 40.6269C420.057 38.092 427.806 32.15 434.533 33.5265C441.26 34.9029 442.84 31.741 442.84 31.741" stroke="black" stroke-width="1.56" stroke-miterlimit="10"/>
<path d="M257.991 207.727C257.991 207.727 227.146 222.841 229.175 223.454C232.076 224.503 242.575 220.129 242.575 220.129C242.575 220.129 247.192 224.544 249.562 223.972C252.559 223.279 255.459 222.217 258.195 220.81" stroke="black" stroke-width="1.56" stroke-miterlimit="10"/>
<path d="M364.346 474.642L362.399 464.857H339.576C328.681 464.857 318.032 469.286 308.554 474.642H364.346Z" stroke="black" stroke-miterlimit="10"/>
<path d="M419.771 91.2842L401.673 120.885L424.075 95.5634L419.771 91.2842Z" fill="black"/>
<path d="M336.239 464.857H362.345L336.239 330.997C342.367 334.963 352.227 338.847 364.306 341.995C392.999 349.423 434.179 352.599 467.488 342.541" stroke="black" stroke-width="1.56" stroke-miterlimit="10"/>
<path d="M523.785 272.98C512.196 281.048 457.057 277.069 404.628 275.992" stroke="black" stroke-width="1.56" stroke-miterlimit="10"/>
<path d="M364.374 342.05C393.053 349.477 434.233 352.666 467.543 342.609C495.105 334.268 517.167 316.864 522.273 285.369C522.936 281.235 523.44 277.146 523.785 273.103" stroke="black" stroke-width="1.56" stroke-miterlimit="10"/>
<path d="M336.321 464.884H362.413L336.321 330.997" stroke="black" stroke-width="1.56" stroke-miterlimit="10"/>
<path d="M40.7311 228.933H280.542V244.715H40.7311" stroke="black" stroke-width="1.16" stroke-miterlimit="10"/>
<path d="M257.392 244.715V475.296" stroke="black" stroke-width="1.16" stroke-miterlimit="10"/>
<path d="M420.765 136.885L403.865 203.87L266.434 206.473L264.337 224.585L415.618 236.278C418.981 236.545 422.344 235.763 425.246 234.04C428.147 232.318 430.445 229.739 431.823 226.657L455.532 165.083" stroke="black" stroke-width="1.56" stroke-miterlimit="10"/>
<path d="M175.603 224.408H259.067V229.192H175.603V224.408Z" fill="black"/>
<path d="M180.873 224.544L152.765 160.967L149.47 162.071L176.229 224.408L180.873 224.544Z" stroke="black" stroke-miterlimit="10"/>
<path d="M264.078 223.154L258.958 222.936L258.1 206.677L266.434 206.473" stroke="black" stroke-width="1.56" stroke-miterlimit="10"/>
<path d="M408.768 247.086C408.768 247.086 432.953 248.326 436.548 239.917C446.735 216.108 456.349 165.764 456.349 165.764C456.349 165.764 436.467 218.725 431.837 226.657C427.207 234.589 420.166 236.524 413.384 236.197L406.575 235.897L408.768 247.086Z" fill="black"/>
</svg>
