<svg width="204" height="237" viewBox="0 0 204 237" fill="none" xmlns="http://www.w3.org/2000/svg">
<g clip-path="url(#clip0_66_5612)">
<path d="M162.24 178.657L98.594 123.979L95.0068 189.687L161.624 206.976L181.354 203.583L189.669 168.389L162.24 178.657Z" fill="black"/>
<path d="M120.588 96.7485C107.906 73.8721 54.1342 86.9521 54.1342 86.9521L16.2148 213.235L129.466 212.854L108.432 125.448C108.432 125.448 133.234 119.625 120.588 96.7485Z" fill="black"/>
<path d="M154.975 201.715L157.457 210.042C157.584 210.466 157.828 210.846 158.161 211.137C158.494 211.429 158.903 211.62 159.339 211.69C159.776 211.76 160.223 211.706 160.631 211.533C161.038 211.36 161.388 211.076 161.642 210.713L202.659 152.207C202.92 151.827 203.063 151.378 203.069 150.916C203.076 150.455 202.946 150.002 202.696 149.614C202.447 149.227 202.088 148.921 201.665 148.737C201.243 148.553 200.776 148.498 200.322 148.579L193.075 149.885C192.106 150.053 191.238 150.585 190.647 151.373L155.591 198.305C155.232 198.787 154.99 199.346 154.883 199.938C154.777 200.529 154.808 201.138 154.975 201.715Z" fill="white"/>
<path d="M159.722 212.636H159.197C158.592 212.545 158.025 212.283 157.563 211.882C157.101 211.48 156.763 210.955 156.588 210.368L154.106 202.023C153.891 201.307 153.846 200.55 153.975 199.813C154.104 199.076 154.403 198.379 154.848 197.778L189.905 150.846C190.636 149.884 191.705 149.236 192.895 149.032L200.142 147.744C200.776 147.616 201.435 147.686 202.028 147.946C202.621 148.206 203.12 148.642 203.457 149.195C203.825 149.729 204.022 150.361 204.022 151.009C204.022 151.658 203.825 152.29 203.457 152.824L162.385 211.257C162.085 211.685 161.686 212.033 161.222 212.273C160.759 212.513 160.244 212.638 159.722 212.636ZM155.827 201.461L158.327 209.788C158.403 210.05 158.553 210.285 158.759 210.465C158.964 210.645 159.217 210.763 159.486 210.804C159.754 210.842 160.027 210.807 160.276 210.701C160.525 210.596 160.741 210.424 160.9 210.205L201.935 151.699C202.1 151.462 202.188 151.18 202.188 150.892C202.188 150.603 202.1 150.321 201.935 150.084C201.789 149.835 201.57 149.638 201.306 149.521C201.043 149.404 200.75 149.373 200.468 149.431L193.221 150.737C192.497 150.881 191.851 151.288 191.409 151.88L156.352 198.812C156.078 199.189 155.893 199.623 155.811 200.082C155.729 200.541 155.753 201.013 155.881 201.461H155.827Z" fill="black"/>
<path d="M169.795 171.854L172.567 165.94L179.56 166.158L174.668 174.013L169.795 179.238V171.854Z" fill="white"/>
<path d="M168.889 181.542L168.979 171.473L172.005 165.015L181.172 165.305L175.447 174.484L168.889 181.542ZM170.7 172.054V176.934L174.016 173.305L177.965 166.938L173.146 166.793L170.7 172.054Z" fill="black"/>
<path d="M196.735 162.112C198.669 164.88 199.919 168.069 200.382 171.415C200.845 174.761 200.508 178.17 199.398 181.36C195.775 192.935 183.22 200.808 183.22 200.808H169.795L196.735 162.112Z" fill="white"/>
<path d="M183.473 201.715H168.056L196.663 160.606L197.424 161.532C199.468 164.411 200.793 167.738 201.288 171.236C201.783 174.733 201.433 178.298 200.268 181.632C196.645 193.388 184.216 201.243 183.691 201.588L183.473 201.715ZM171.534 199.901H182.948C184.597 198.812 195.322 191.374 198.529 181.088C199.496 178.232 199.835 175.2 199.522 172.2C199.21 169.2 198.253 166.303 196.717 163.709L171.534 199.901Z" fill="black"/>
<path d="M65.5664 58.597C65.5664 58.597 68.3203 74.7611 70.8386 79.4415C73.3569 84.122 94.1735 93.5193 101.511 94.2631C108.848 95.0069 110.95 87.2242 112.599 79.7499C114.247 72.2757 114.809 68.3934 116.693 59.2138C118.577 50.0343 116.947 46.2427 116.947 46.2427V44.2834C119.12 39.8248 120.201 34.9119 120.099 29.9517" fill="white"/>
<path d="M102.471 95.1518H101.421C94.1737 94.408 72.8498 85.0833 70.0416 79.8586C67.4871 75.1055 64.7876 59.4131 64.6064 58.7419L66.4182 58.4335C66.4182 58.5968 69.1901 74.5068 71.5997 79.0059C74.0093 83.505 94.2824 92.5938 101.584 93.3377C107.925 93.9907 109.918 87.4598 111.675 79.4957C112.599 75.2869 113.161 72.3298 113.813 68.9192C114.356 66.1436 114.918 63.114 115.788 58.9777C117.599 50.288 116.096 46.5871 116.077 46.5508V46.188L116.168 43.8478C118.285 39.5086 119.335 34.7252 119.23 29.897H121.042C121.135 34.9146 120.056 39.8847 117.889 44.4101V46.0066C118.215 46.9318 119.357 51.0136 117.617 59.3224C116.766 63.4587 116.204 66.4702 115.679 69.2277C115.027 72.6745 114.447 75.6316 113.523 79.8767C112.128 86.0811 110.099 95.1518 102.471 95.1518Z" fill="black"/>
<path d="M55.1851 77.6454L53.3733 77.5365C53.3733 77.2825 54.8771 50.6871 53.1559 42.5598C51.4348 34.4324 54.0256 18.9759 54.1343 18.2684V17.9237L59.5694 13.6423C60.9459 11.0526 62.7886 8.74 65.0046 6.8211C69.0085 3.33794 80.6216 -0.435463 89.644 0.0362149C93.6842 0.217629 101.058 1.9592 113.196 9.21579L113.595 9.45161C115.984 10.8197 118.651 11.6283 121.397 11.8168C124.142 12.0053 126.895 11.5688 129.448 10.5401L129.955 10.3043L130.39 10.649C131.137 11.2615 131.729 12.043 132.117 12.9292C132.504 13.8154 132.676 14.781 132.618 15.7467C132.618 20.8626 128.071 28.0285 122.201 32.4187L121.114 30.9674C126.549 26.94 130.752 20.2639 130.806 15.7286C130.845 15.1284 130.763 14.5265 130.563 13.9591C130.364 13.3917 130.052 12.8705 129.647 12.4268C126.893 13.4704 123.942 13.885 121.008 13.6401C118.074 13.3953 115.232 12.4973 112.689 11.0118L112.291 10.776C100.388 3.71893 93.3218 2.01363 89.481 1.85036C80.2955 1.43311 69.3528 5.47863 66.1279 8.18171C64.053 9.98349 62.3378 12.1626 61.0732 14.6038L60.9826 14.8034L55.8373 18.9577C55.4568 21.2617 53.319 34.8315 54.8952 42.2151C56.6526 50.542 55.1851 76.5387 55.1851 77.6454Z" fill="black"/>
<path d="M78.357 50.8867C78.049 50.3425 70.784 37.6072 74.7335 30.0422C76.4184 26.8674 79.7701 25.1077 84.7161 24.7812C93.7747 24.1825 113.124 29.7701 113.939 30.0059L113.432 31.8201C113.233 31.8201 93.6298 26.0692 84.8429 26.6498C80.5673 26.94 77.7048 28.4639 76.3279 30.9674C72.7044 37.6616 79.752 49.9252 79.8245 50.0522L78.357 50.8867Z" fill="black"/>
<path d="M109.283 40.4011C107.437 39.6269 105.451 39.2439 103.45 39.2763C99.8551 39.3423 96.2851 39.8852 92.833 40.8909L93.5758 42.9953C97.8145 42.9572 102.051 43.1996 106.258 43.721C109.066 44.3559 109.283 40.4011 109.283 40.4011Z" fill="black"/>
<path d="M115.824 45.2266C114.791 45.7485 113.939 46.5687 113.377 47.581C112.815 48.5933 112.569 49.7512 112.671 50.9048C113.21 54.9765 114.403 58.934 116.204 62.6242C116.569 63.2188 116.73 63.9168 116.661 64.6114C116.592 65.306 116.298 65.9589 115.824 66.4702C114.882 67.2684 109.374 66.3251 109.374 66.3251" fill="white"/>
<path d="M113.885 67.7038C112.322 67.6617 110.766 67.4979 109.229 67.214L109.518 65.3998C111.409 65.8162 113.354 65.9264 115.28 65.7264C115.571 65.3712 115.742 64.9331 115.769 64.4746C115.834 64.0208 115.738 63.5586 115.497 63.1684C113.551 59.2902 112.288 55.1045 111.765 50.796C111.679 49.4934 111.977 48.1942 112.621 47.0593C113.265 45.9243 114.227 45.0033 115.388 44.4102L116.331 45.9703C115.422 46.4137 114.673 47.1278 114.187 48.0146C113.7 48.9015 113.5 49.9174 113.613 50.9229C114.178 54.7587 115.294 58.4923 116.928 62.0074C117.453 62.7876 117.691 63.7258 117.601 64.662C117.512 65.5983 117.101 66.4745 116.439 67.1414C115.666 67.5892 114.774 67.7857 113.885 67.7038Z" fill="black"/>
<path d="M116.186 42.2875C113.614 41.7977 115.135 45.9158 115.135 45.9158L119.701 47.2764L120.1 45.172C119.099 43.8541 117.74 42.8526 116.186 42.2875Z" fill="black"/>
<path d="M110.787 63.6584C110.083 63.4447 109.341 63.3908 108.614 63.5006C107.886 63.6105 107.193 63.8813 106.584 64.2933C105.406 65.146 105.116 63.3137 105.08 61.7173C105.073 61.4578 105.117 61.1995 105.212 60.9577C105.306 60.7158 105.447 60.4954 105.628 60.3093C105.809 60.1233 106.025 59.9754 106.264 59.8745C106.503 59.7735 106.759 59.7216 107.018 59.7217H110.153" fill="white"/>
<path d="M106.04 65.418C105.826 65.4175 105.615 65.3678 105.424 65.2728C104.608 64.8737 104.228 63.7852 104.174 61.7352C104.157 61.3568 104.219 60.979 104.356 60.626C104.493 60.273 104.703 59.9526 104.971 59.6852C105.235 59.409 105.553 59.1894 105.905 59.0397C106.257 58.89 106.636 58.8134 107.018 58.8145H110.152V60.6286H107.018C106.88 60.6255 106.742 60.6514 106.614 60.7045C106.486 60.7576 106.371 60.8368 106.275 60.937C106.177 61.033 106.1 61.149 106.05 61.2774C106 61.4057 105.978 61.5433 105.985 61.6808C105.968 62.293 106.041 62.9044 106.203 63.495C106.922 63.0461 107.73 62.7571 108.571 62.6476C109.411 62.538 110.266 62.6105 111.076 62.86L110.497 64.5653C109.929 64.3963 109.332 64.3541 108.746 64.4419C108.161 64.5297 107.602 64.7452 107.109 65.0733C106.801 65.3059 106.425 65.4274 106.04 65.418Z" fill="black"/>
<path d="M100.188 72.9829C100.188 72.9829 103.468 73.5634 106.33 73.7811C109.193 73.9988 113.179 73.7811 113.179 73.7811" fill="white"/>
<path d="M109.391 74.7793C108.359 74.7793 107.254 74.7793 106.275 74.6704C103.377 74.4709 100.17 73.9085 100.043 73.8903L100.351 72.0762C100.351 72.0762 103.612 72.6567 106.402 72.8563C109.192 73.0558 113.087 72.8563 113.124 72.8563V74.6704C113.124 74.6704 111.348 74.7793 109.391 74.7793Z" fill="black"/>
<path d="M92.1445 46.678C95.6964 45.752 99.4093 45.6281 103.015 46.3152L92.1445 46.678Z" fill="white"/>
<path d="M92.3802 47.5669L91.9092 45.7527C95.6246 44.7691 99.514 44.6389 103.287 45.3717L102.798 47.1859C99.3392 46.5472 95.7829 46.6773 92.3802 47.5669Z" fill="black"/>
<path d="M98.4312 49.5261C98.5862 49.0299 98.9162 48.6072 99.3596 48.3368C99.803 48.0664 100.33 47.9668 100.841 48.0566C101.225 48.1554 101.555 48.4002 101.761 48.739C101.968 49.0778 102.034 49.4838 101.946 49.8707C101.783 50.4875 101.203 50.542 100.352 50.4694C99.2284 50.3061 98.2682 50.1247 98.4312 49.5261Z" fill="black"/>
<path d="M113.16 50.0887C114.837 49.2391 116.741 48.9468 118.595 49.2541L113.16 50.0887Z" fill="white"/>
<path d="M113.577 50.905L112.78 49.2904C114.668 48.3272 116.819 48.0087 118.904 48.3833L118.324 50.1067C116.697 49.8606 115.035 50.1402 113.577 50.905Z" fill="black"/>
<path d="M114.972 51.7214C115.131 51.2238 115.464 50.8007 115.911 50.5305C116.357 50.2603 116.886 50.1614 117.4 50.252C117.781 50.3547 118.109 50.6003 118.314 50.938C118.52 51.2756 118.588 51.6795 118.505 52.0661C118.342 52.6829 117.762 52.7373 116.911 52.6648C115.697 52.5015 114.737 52.3201 114.972 51.7214Z" fill="black"/>
<path d="M60.2937 74.4162C27.6827 71.1144 33.2447 101.211 33.2447 101.211C33.2447 101.211 10.5257 104.658 3.11574 140.505C-3.56951 172.906 6.92037 213.38 6.92037 213.38H133.741C133.741 213.38 144.811 179.237 132.11 160.352C136.205 141.304 114.7 123.979 114.7 123.979C112 103.932 92.9591 77.736 60.2937 74.4162Z" fill="white"/>
<path d="M134.376 214.287H6.26871L6.08752 213.598C5.97882 213.199 -4.38424 172.562 2.26479 140.324C8.91381 108.087 27.9188 101.629 32.2669 100.413C31.8684 97.329 31.0531 86.8796 37.5753 79.7681C42.4126 74.5252 50.0943 72.3845 60.4211 73.4367C92.1625 76.6478 112.454 101.502 115.57 123.416C118.215 125.63 136.713 141.83 133.089 160.08C145.572 179.147 135.082 212.164 134.611 213.561L134.376 214.287ZM7.64561 212.473H133.089C134.484 207.756 142.746 177.768 131.386 160.86L131.169 160.534V160.153C135.1 141.884 114.302 124.868 114.084 124.686L113.813 124.469V124.106C110.95 102.79 91.2023 78.4619 60.2218 75.3235C50.4929 74.3438 43.3184 76.2849 38.8978 81.0924C31.9408 88.6574 34.133 100.921 34.1692 101.048L34.3323 101.973L33.4083 102.118C33.1909 102.118 11.1966 105.964 4.02216 140.705C-2.08335 170.24 6.2687 207.03 7.64561 212.473Z" fill="black"/>
<path d="M141.061 146.402L148.597 139.345L155.699 144.606" fill="black"/>
<path d="M172.313 175.156L134.43 130.673L139.865 125.956L177.839 170.439C178.147 170.802 178.381 171.223 178.526 171.676C178.672 172.13 178.728 172.608 178.689 173.083C178.65 173.558 178.518 174.021 178.301 174.445C178.084 174.869 177.785 175.246 177.422 175.555C177.06 175.865 176.641 176.1 176.189 176.247C175.736 176.395 175.259 176.452 174.785 176.415C174.31 176.378 173.848 176.248 173.424 176.031C173 175.815 172.622 175.518 172.313 175.156Z" fill="white"/>
<path d="M175.085 177.333H174.759C174.163 177.289 173.583 177.127 173.051 176.856C172.519 176.585 172.046 176.211 171.66 175.755L133.089 130.564L139.992 124.687L178.473 169.859C179.032 170.518 179.393 171.324 179.51 172.181C179.628 173.038 179.498 173.911 179.136 174.697C178.774 175.483 178.195 176.149 177.468 176.616C176.74 177.083 175.894 177.332 175.03 177.333H175.085ZM172.947 174.557C173.169 174.856 173.45 175.106 173.772 175.291C174.094 175.477 174.451 175.594 174.82 175.636C175.19 175.678 175.564 175.644 175.919 175.535C176.275 175.427 176.605 175.246 176.888 175.005C177.171 174.764 177.402 174.467 177.565 174.133C177.729 173.799 177.823 173.434 177.841 173.063C177.859 172.691 177.8 172.319 177.669 171.971C177.538 171.623 177.336 171.305 177.078 171.038L139.774 127.244L135.625 130.764L172.947 174.557Z" fill="black"/>
<path d="M127.472 162.82C130.415 157.114 133.982 151.754 138.107 146.837C143.905 140.433 166.769 140.977 170.302 142.864C173.834 144.751 172.476 147.671 171.135 149.54C170.626 150.1 169.99 150.53 169.281 150.792C168.571 151.054 167.809 151.141 167.059 151.046C167.059 151.046 170.41 158.774 168.417 161.659C166.879 163.513 164.759 164.791 162.402 165.287L159.468 172.289C159.468 172.289 150.608 181.759 139.539 181.269C128.469 180.78 118.486 181.269 118.486 181.269" fill="white"/>
<path d="M140.336 182.231H139.466C128.596 181.759 118.595 182.231 118.505 182.231L118.414 180.417C118.505 180.417 128.505 179.927 139.539 180.417C149.467 180.852 157.656 172.888 158.707 171.836L161.75 164.58L162.222 164.489C164.349 164.001 166.258 162.829 167.657 161.151C168.907 159.337 167.457 154.221 166.244 151.409L165.609 149.939L167.186 150.139C167.774 150.217 168.372 150.157 168.932 149.961C169.492 149.766 169.999 149.441 170.411 149.014C170.832 148.543 171.153 147.992 171.355 147.393C171.558 146.795 171.637 146.161 171.588 145.531C171.442 145.126 171.213 144.756 170.917 144.444C170.621 144.131 170.263 143.884 169.867 143.717C166.642 141.903 144.213 141.485 138.778 147.508C134.706 152.363 131.188 157.656 128.288 163.291L126.657 162.457C129.637 156.683 133.253 151.261 137.437 146.293C143.506 139.562 166.841 140.034 170.718 142.12C171.354 142.408 171.918 142.831 172.372 143.361C172.826 143.891 173.158 144.514 173.346 145.186C173.466 146.066 173.397 146.961 173.144 147.812C172.891 148.663 172.459 149.45 171.878 150.121C171.452 150.645 170.924 151.076 170.326 151.388C169.728 151.7 169.072 151.886 168.399 151.935C169.305 154.384 170.918 159.627 169.16 162.185C167.617 164.141 165.47 165.532 163.055 166.14L160.138 172.997C159.776 173.378 151.315 182.231 140.336 182.231Z" fill="black"/>
<path d="M61.3634 112.132C55.9282 108.885 48.0291 106.907 37.811 110.935C31.6505 113.225 26.3085 117.296 22.4635 122.632C18.6184 127.969 16.4436 134.328 16.2152 140.905C16.2152 140.905 7.8994 211.257 46.8514 236.056C89.0102 230.142 126.314 214.65 131.405 185.551C133.452 181.922 130.336 173.94 129.828 159.572C120.48 153.295 88.0682 170.584 76.763 176.97C76.5723 177.074 76.3536 177.115 76.1382 177.088C75.9227 177.06 75.7214 176.965 75.5628 176.816C75.4043 176.668 75.2966 176.473 75.2552 176.259C75.2137 176.046 75.2405 175.825 75.3317 175.627C75.9057 174.515 76.2394 173.294 76.3112 172.043C76.383 170.793 76.1912 169.542 75.7484 168.371C73.4294 162.584 68.5016 164.434 68.5016 164.434L69.498 145.349" fill="white"/>
<path d="M46.6514 237L46.3615 236.819C7.39135 212.056 15.3267 141.503 15.3267 140.796C15.6007 134.066 17.8482 127.566 21.7887 122.107C25.7292 116.648 31.1881 112.472 37.4841 110.101C46.3434 106.599 54.5324 107.035 61.8155 111.352L60.8915 112.913C54.1157 108.885 46.3978 108.504 38.1544 111.788C32.1892 114.023 27.0134 117.968 23.2728 123.13C19.5322 128.292 17.3924 134.442 17.1203 140.814C17.0297 141.63 9.348 210.713 47.0499 235.041C75.8563 230.959 124.61 219.094 130.516 185.333L130.607 185.025C131.621 183.211 131.132 179.782 130.444 174.974C129.673 170.016 129.171 165.02 128.94 160.008C119.41 154.692 87.0166 172.144 77.2151 177.696C76.8551 177.901 76.439 177.985 76.0278 177.935C75.6165 177.886 75.2318 177.707 74.93 177.423C74.6282 177.139 74.4252 176.765 74.3506 176.357C74.276 175.95 74.3339 175.528 74.5157 175.156C75.0414 174.161 75.3474 173.065 75.413 171.941C75.4787 170.817 75.3024 169.693 74.8961 168.643C72.9938 163.872 69.316 165.015 68.8993 165.214L67.613 165.686L68.6638 145.241H70.4755L69.5335 163.146C71.3452 162.947 74.7512 163.255 76.581 167.881C77.071 169.164 77.287 170.536 77.2153 171.907C77.1435 173.279 76.7855 174.621 76.1643 175.845L76.7622 176.807L76.3274 176.009C89.3537 168.643 120.733 152.207 130.335 158.647L130.715 158.919V159.373C130.926 164.483 131.428 169.577 132.219 174.63C132.962 179.873 133.469 183.392 132.219 185.696C125.987 220.6 76.0556 232.682 46.9231 236.782L46.6514 237Z" fill="black"/>
<path d="M73.7917 178.331C66.2549 184.354 60.2582 188.29 54.9317 199.647C49.6052 211.003 44.9853 196.871 48.6812 191.084" fill="white"/>
<path d="M50.9093 204.835C50.2593 204.784 49.6351 204.558 49.1026 204.182C48.5701 203.805 48.149 203.291 47.8837 202.695C46.9236 200.823 46.4229 198.749 46.4229 196.645C46.4229 194.54 46.9236 192.466 47.8837 190.594L49.4055 191.556C48.6277 193.149 48.2234 194.899 48.2234 196.672C48.2234 198.445 48.6277 200.195 49.4055 201.788C49.6773 202.259 50.2027 203.039 50.9093 203.021C51.2354 203.021 52.4674 202.695 54.0798 199.266C58.9533 188.853 64.5153 184.481 70.965 179.401L73.1935 177.587L74.3167 179.002L72.0702 180.816C65.5661 185.968 60.4027 190.014 55.7647 200.028C54.2972 203.148 52.7029 204.763 51.0361 204.835H50.9093Z" fill="black"/>
<path d="M63.4103 165.904C56.3264 169.278 52.8842 171.346 47.3584 170.82L63.4103 165.904Z" fill="white"/>
<path d="M49.2067 171.872C48.5527 171.864 47.8995 171.822 47.25 171.745L47.4493 169.931C51.9967 170.439 54.9861 168.988 60.4031 166.303L63.0301 165.033L63.791 166.684L61.1822 167.935C56.3992 170.348 53.2468 171.872 49.2067 171.872Z" fill="black"/>
<path d="M108.432 125.448C102.58 127.625 86.3829 115.525 76.6721 110.463C66.9612 105.402 47.3584 101.792 47.3584 101.792" fill="white"/>
<path d="M106.837 126.609C101.8 126.609 93.5027 121.548 85.4587 116.65C82.107 114.6 78.9365 112.658 76.2551 111.207C66.7798 106.254 47.3763 102.662 47.2676 102.626L47.5937 100.812C48.3908 100.957 67.5226 104.44 77.161 109.556C79.8967 110.989 83.0853 112.931 86.4732 114.999C94.4448 119.861 104.373 125.884 108.214 124.505L108.83 126.21C108.198 126.472 107.521 126.608 106.837 126.609Z" fill="black"/>
<path d="M71.2009 40.129C71.2009 40.129 59.7508 44.5737 59.1167 37.9339C58.4826 31.2942 55.2759 20.0283 65.1679 16.1642C64.6606 9.19787 78.1579 2.32225 91.1661 7.90982C104.174 13.4974 121.639 16.9806 126.404 16.1642C124.502 20.4637 119.157 26.0331 112.309 25.2349C105.461 24.4367 77.3064 20.6996 74.2627 25.2349C71.219 29.7703 71.2009 40.129 71.2009 40.129Z" fill="#0500FF"/>
<path d="M68.9907 64.3116C65.7658 64.9466 62.1061 60.1028 60.7836 53.4267C59.461 46.7507 60.9829 40.891 64.1896 40.256C66.5267 39.7844 69.0994 42.2153 70.8387 46.1157" fill="white"/>
<path d="M68.3924 65.1824C67.3855 65.08 66.4157 64.7469 65.558 64.209C64.7003 63.671 63.9778 62.9427 63.4464 62.0802C61.6235 59.5414 60.386 56.6293 59.8229 53.5537C58.3736 46.2972 60.1853 40.0746 63.9356 39.3308C66.6713 38.7866 69.5881 41.2357 71.5991 45.7166L69.9324 46.4604C68.3562 42.8321 66.0915 40.7459 64.2979 41.1087C61.9608 41.5804 60.2759 46.66 61.5984 53.209C62.0961 56.0014 63.1967 58.6513 64.8233 60.9736C66.1277 62.7877 67.559 63.5678 68.7366 63.332L69.0809 65.1461C68.8531 65.1809 68.6225 65.193 68.3924 65.1824Z" fill="black"/>
</g>
<defs>
<clipPath id="clip0_66_5612">
<rect width="204" height="237" fill="white"/>
</clipPath>
</defs>
</svg>
