<svg width="226" height="221" viewBox="0 0 226 221" fill="none" xmlns="http://www.w3.org/2000/svg">
<g clip-path="url(#clip0_66_3592)">
<path d="M101.971 164.74C101.971 164.74 103.083 186.596 116.624 192.081C129.331 196.836 142.33 200.775 155.539 203.873C156.633 203.873 177.134 154.162 177.134 154.162L141.331 163.321C141.331 163.321 143.724 155.255 135.227 157.443C135.227 157.443 123.378 114.225 112.47 102.485C101.561 90.7455 83.4031 88.8145 83.4031 88.8145" fill="white"/>
<path d="M155.539 204.693C156.292 204.693 157.249 204.693 177.921 154.452L178.57 152.88L142.425 162.125C142.587 161.308 142.568 160.466 142.37 159.657C142.172 158.849 141.8 158.093 141.28 157.443C140.539 156.811 139.648 156.381 138.692 156.195C137.736 156.01 136.749 156.074 135.826 156.383C134.116 150.283 123.344 112.892 113.102 101.87C102.091 90.0106 84.2241 88.0454 83.4718 87.9771L83.2837 89.6859C83.4718 89.6859 101.288 91.6853 111.837 103.049C122.387 114.413 134.27 157.221 134.389 157.733L134.612 158.536L135.432 158.331C136.971 157.938 139.04 157.682 140.049 158.724C141.058 159.767 140.767 162.313 140.51 163.15L140.083 164.586L175.681 155.477C168.141 173.745 157.181 199.737 155.163 203.018C142.186 199.904 129.408 196.012 116.898 191.364C104.041 186.237 102.81 165.013 102.792 164.808H101.083C101.083 165.714 102.382 187.28 116.266 192.868C129.083 197.665 142.203 201.616 155.539 204.693Z" fill="black"/>
<path d="M27.4592 93.7703C27.4592 93.7703 7.38627 129.554 12.3276 170.857C17.2689 212.161 19.2522 219.646 19.2522 219.646H107.785L105.733 192.047C107.033 187.912 101.425 176.668 101.425 176.668C103.391 174.053 102.006 164.705 102.006 164.705C105.203 161.083 106.742 151.034 105.733 142.746" fill="white"/>
<path d="M18.5337 220.5H108.64L106.485 192.15C107.597 188.049 103.408 179.009 102.296 176.77C103.852 173.831 103.049 166.91 102.809 165.047C105.887 161.134 107.528 151.274 106.468 142.712L104.758 142.934C105.767 151.154 104.16 160.912 101.236 164.227L100.98 164.535V164.928C101.493 168.345 101.835 174.514 100.569 176.206L100.245 176.633L100.484 177.112C102.006 180.137 105.733 188.715 104.741 191.842V192.013L106.776 218.843H19.8502C19.3202 216.313 17.2343 205.411 13.0966 170.806C8.24078 130.272 27.9204 94.5905 28.1256 94.2487L26.6381 93.4114C26.4329 93.7702 6.47966 129.896 11.4039 171.011C16.328 212.127 18.2431 219.612 18.3456 219.919L18.5337 220.5Z" fill="black"/>
<path d="M69.8958 213.767H192.573V219.646H69.8958V213.767Z" fill="white"/>
<path d="M69.0415 220.5H193.429V212.913H69.0415V220.5ZM191.719 218.791H70.7513V214.621H191.719V218.791Z" fill="black"/>
<path d="M78.1035 195.961C82.4902 193.622 87.3528 192.314 92.3215 192.136C97.2902 191.958 102.234 192.916 106.777 194.935C116.036 198.707 124.084 204.942 130.047 212.964L68.8022 213.853C68.6131 210.312 69.3761 206.785 71.0117 203.639C72.6474 200.493 75.0961 197.841 78.1035 195.961Z" fill="white"/>
<path d="M68.0321 214.638L131.619 213.716L130.764 212.417C130.474 211.956 123.173 200.916 107.101 194.064C102.441 191.968 97.36 190.975 92.2535 191.161C87.1469 191.348 82.1523 192.71 77.6581 195.14C74.4892 197.1 71.9141 199.885 70.2091 203.197C68.5042 206.508 67.7338 210.222 67.9808 213.938L68.0321 214.638ZM128.388 212.058L69.5879 212.912C69.5685 209.653 70.383 206.443 71.9541 203.587C73.5251 200.73 75.8005 198.323 78.5643 196.593C82.8389 194.349 87.5646 193.098 92.3898 192.933C97.215 192.767 102.015 193.691 106.434 195.636C114.989 199.227 122.528 204.867 128.388 212.058Z" fill="black"/>
<path d="M38.3166 84.0979C26.3337 86.7391 15.8838 94.0133 9.2502 104.331C-2.54735 122.001 1.23125 154.298 2.32552 164.774C3.41978 175.249 12.5843 202.557 12.5843 202.557C12.5843 202.557 25.9035 213.032 50.1996 213.682C74.4957 214.331 74.9403 213.682 74.9403 213.682C67.8789 206.709 80.4971 198.78 87.6611 192.662C87.6611 192.662 72.6834 181.333 58.0476 179.658C52.9812 179.213 47.9531 178.408 43.0014 177.248C45.8603 167.236 46.2359 156.679 44.0957 146.489C41.8716 135.766 37.6491 125.558 31.6485 116.396" fill="white"/>
<path d="M67.1094 214.758C75.0257 214.758 75.3164 214.399 75.5044 214.143L75.9832 213.545L75.436 213.015C74.8474 212.517 74.3788 211.893 74.065 211.188C73.7513 210.484 73.6004 209.718 73.6237 208.948C73.8459 204.727 79.6079 200.113 84.686 196.046C85.8999 195.089 87.0626 194.149 88.1056 193.243L88.9092 192.56L88.0714 191.91C87.4388 191.449 72.6833 180.41 58.0304 178.735C53.3041 178.266 48.6068 177.541 43.9588 176.565C46.6108 166.665 46.9036 156.282 44.8137 146.249C42.5448 135.417 38.2773 125.102 32.2297 115.832L30.8276 116.806C36.742 125.886 40.9164 135.986 43.1381 146.591C45.2306 156.635 44.861 167.036 42.061 176.907L41.7703 177.744L42.6423 178C47.6449 179.23 52.7308 180.093 57.8594 180.581C70.1015 181.982 82.7881 190.407 86.1735 192.799C85.3699 193.483 84.4637 194.166 83.6088 194.867C78.2572 199.156 72.1703 204.026 71.9139 208.999C71.8498 210.466 72.2837 211.911 73.1449 213.101C70.8709 213.22 65.0234 213.323 50.1141 212.912C28.0578 212.314 15.0121 203.377 13.2852 202.112C12.3619 199.327 4.17202 174.497 3.16325 164.757L3.06066 163.868C1.84671 152.367 -1.35059 121.83 9.89982 104.895C16.4136 94.738 26.6639 87.55 38.4362 84.8839L38.1797 83.175C37.4616 83.2776 20.3808 85.9947 8.51489 103.784C-3.12877 121.232 0.136887 152.213 1.36794 163.868L1.45345 164.774C2.54772 175.215 11.3702 201.617 11.7122 202.745V202.984L11.9174 203.138C12.4816 203.582 25.7325 213.801 49.9773 214.451C57.962 214.758 63.382 214.758 67.1094 214.758Z" fill="black"/>
<path d="M30.5025 79.2276C30.5025 79.2276 17.2003 86.5928 19.594 95.5644C21.9877 104.536 52.08 137.688 77.7269 126.324C103.374 114.96 98.8941 88.37 98.8941 88.37C98.8941 88.37 86.0023 49.3907 30.5025 79.2276Z" fill="white"/>
<path d="M66.4084 129.554C70.3838 129.569 74.3173 128.742 77.9495 127.127C103.784 115.644 99.6468 88.5069 99.5955 88.2335C98.0158 84.0487 95.5829 80.238 92.4511 77.0432C89.3193 73.8484 85.557 71.3392 81.4033 69.675C68.1011 64.3605 50.8322 67.3168 30.1096 78.4758C29.5453 78.8005 16.2432 86.2853 18.7908 95.7866C20.3809 101.785 33.2556 117.541 49.4815 125.282C54.7323 127.955 60.5171 129.415 66.4084 129.554ZM67.3317 68.8206C71.914 68.7671 76.4641 69.5909 80.7365 71.2473C84.63 72.8364 88.1612 75.197 91.1173 78.1868C94.0735 81.1765 96.3933 84.7336 97.937 88.6436C98.0909 89.5835 101.869 114.635 77.2485 125.572C69.2467 129.127 60.1506 128.511 50.1483 123.744C34.6063 116.327 21.8513 100.93 20.3638 95.3423C18.1924 87.1739 30.6225 80.1334 30.8619 79.9625C44.7112 72.546 56.902 68.8206 67.3317 68.8206Z" fill="black"/>
<path d="M221.332 142.763H148.563L119.822 213.767H192.573L221.332 142.763Z" fill="white"/>
<path d="M118.556 214.621H193.155L222.58 141.926H147.982L118.556 214.621ZM192.077 212.912H121.121L149.179 143.635H220.05L192.077 212.912Z" fill="black"/>
<path d="M109.051 114.448C109.051 114.448 116.283 134.612 102.485 146.062L109.051 114.448Z" fill="white"/>
<path d="M103.032 146.711C117.121 135.022 109.872 114.362 109.872 114.242L108.264 114.823C108.264 115.011 115.104 134.561 101.955 145.481L103.032 146.711Z" fill="black"/>
<path d="M7.9165 126.41C7.9165 126.41 18.3975 108.928 24.5014 116.771C30.6054 124.615 41.1035 138.987 39.3424 159.493C37.5814 180 41.4967 183.503 41.4967 183.503C41.4967 183.503 57.5859 182.631 66.5794 185.69C71.8745 187.459 76.9155 189.912 81.5742 192.987C81.5742 192.987 72.0507 201.156 70.5461 204.539C69.6499 206.875 69.4249 209.414 69.8964 211.87C69.8964 211.87 29.5282 211.477 19.714 202.899C9.89985 194.32 3.14619 158.724 7.9165 126.41Z" fill="#D0D5DD"/>
<path d="M43.1383 128.682C43.1383 128.682 64.9552 138.252 78.018 136.031C91.0808 133.809 104.605 118.515 104.605 118.515C104.605 118.515 108.965 123.317 104.605 132.049C102.471 136.044 100.675 140.212 99.2365 144.507C99.2365 144.507 101.852 145.429 100.69 151.24C99.72 155.586 98.4576 159.862 96.9112 164.039C97.6987 164.79 98.2506 165.754 98.4996 166.813C98.7485 167.872 98.6838 168.98 98.3132 170.003C97.2018 173.933 96.6034 175.523 96.6034 175.523C96.6034 175.523 98.4842 176.104 99.8007 181.35C100.635 184.863 101.161 188.443 101.374 192.047C101.374 192.047 86.926 182.939 73.3503 179.897C64.2047 177.935 54.9407 176.571 45.6175 175.813C46.6776 167.621 47.1348 159.362 46.9853 151.103C46.2837 143.541 44.9975 136.045 43.1383 128.682Z" fill="#D0D5DD"/>
<path d="M87.6269 147.497C91.4829 147.552 95.3383 147.352 99.168 146.899L98.9286 145.19C85.6777 147.104 50.3022 143.669 49.9602 143.635L49.7892 145.344C50.9177 145.464 71.9823 147.497 87.6269 147.497Z" fill="black"/>
<path d="M94.4658 164.893C94.4658 164.893 76.325 170.789 63.0057 170.84L94.4658 164.893Z" fill="white"/>
<path d="M62.989 171.695C76.2911 171.695 94.5346 165.765 94.7227 165.697L94.1926 164.073C94.0045 164.073 76.0004 169.935 62.9718 169.986L62.989 171.695Z" fill="black"/>
<path d="M88.4131 192.782C93.6792 150.761 78.4792 126.136 78.3253 125.897L76.872 126.803C77.0259 127.042 91.901 151.188 86.7204 192.56L88.4131 192.782Z" fill="black"/>
<path d="M27.5614 90.3011C27.5614 90.3011 29.5619 108.928 55.4139 118.515C81.2659 128.101 93.0293 93.7702 93.0293 93.7702C93.0293 93.7702 92.0376 87.2422 83.369 93.4967C74.7004 99.7511 58.8677 89.3783 55.3968 86.6612C51.9259 83.9441 30.6219 76.7156 27.5614 90.3011Z" fill="#0500FF"/>
<path d="M115.393 124C115.393 124 121.292 141.841 122.386 151.786C122.814 156.687 123.614 161.549 124.78 166.329C124.78 166.329 129.807 160.655 133.329 160.655C136.851 160.655 133.329 170.652 133.329 170.652L125.156 190.321C121.786 190.308 118.508 189.222 115.797 187.222C113.086 185.222 111.082 182.411 110.076 179.197C106.007 167.627 114.744 133.826 115.393 124Z" fill="#D0D5DD"/>
<path d="M63.3302 26.9874C63.3302 26.9874 67.844 21.1944 81.7104 25.2786C94.5339 29.0552 99.1674 39.4793 101.236 49.2027C103.305 58.9262 98.8596 70.9054 101.236 79.8599C103.613 88.8144 103.938 89.7713 104.023 94.2999C104.109 98.8284 83.9331 88.7972 83.9331 88.7972" fill="white"/>
<path d="M102.314 96.265C102.908 96.295 103.498 96.1652 104.024 95.8891C104.31 95.7107 104.542 95.4567 104.693 95.1551C104.843 94.8536 104.908 94.5162 104.879 94.1802C104.879 89.7372 104.52 88.6948 102.348 80.6289L102.058 79.5352C100.878 75.1263 101.408 69.9484 101.972 64.4801C102.537 59.0117 103.084 53.7997 101.972 48.9294C99.0999 35.566 92.5343 27.5513 81.8481 24.3899C67.5885 20.2032 62.7668 26.0989 62.5617 26.4065L63.9124 27.4489C63.9124 27.4489 68.3237 22.2026 81.3694 26.0305C91.5255 29.0381 97.544 36.4204 100.297 49.2882C101.288 53.9021 100.741 59.1826 100.211 64.2921C99.647 69.6921 99.0657 75.263 100.331 79.9795L100.622 81.0732C102.742 88.9511 103.015 89.9764 103.101 94.2144C101.391 95.3765 92.0555 91.805 84.2931 87.9258L83.5237 89.4466C87.0801 91.258 97.5611 96.265 102.314 96.265Z" fill="black"/>
<path d="M96.2949 56.8244C95.8469 58.7563 95.2408 60.6481 94.4825 62.4808C101.185 76.4593 86.1729 88.4726 86.1729 88.4726C84.6212 90.1337 82.6872 91.3912 80.5389 92.1357C78.3906 92.8802 76.0929 93.0892 73.8454 92.7448C60.68 91.2581 53.1056 73.5542 53.1056 73.5542C52.5585 72.0675 52.0797 70.615 51.6352 69.1966C51.2174 69.5759 50.7123 69.846 50.1648 69.9827C47.7027 70.5637 45.0354 68.2738 44.2318 64.8561C43.4282 61.4384 44.7618 58.1231 47.2239 57.5421C47.8332 57.3696 48.4784 57.3696 49.0876 57.5421C47.1726 41.1711 53.9947 31.5673 65.3306 29.7729" fill="white"/>
<path d="M75.8117 93.7017C77.8635 93.7499 79.9022 93.3637 81.7941 92.5685C83.6859 91.7733 85.388 90.5872 86.7886 89.0878C87.9171 88.1309 101.698 76.22 95.423 62.4465C96.1355 60.683 96.7072 58.8659 97.1328 57.0123L95.423 56.6193C95.0061 58.5031 94.4343 60.3492 93.7132 62.1389L93.5594 62.4978L93.7303 62.8395C100.074 76.0662 85.7969 87.6866 85.6601 87.8062L85.5233 87.9428C84.0644 89.4923 82.2487 90.6619 80.2343 91.3499C78.2198 92.0379 76.0677 92.2234 73.9652 91.8903C61.4495 90.472 53.9777 73.3833 53.9093 73.2124C53.4306 71.8965 52.9518 70.4782 52.4731 68.9402L52.0798 67.6928L51.0882 68.5472C50.7804 68.8365 50.4037 69.0423 49.9939 69.1453C48.0447 69.5896 45.7707 67.5218 45.0868 64.5655C44.7255 63.1691 44.8031 61.6954 45.3091 60.3446C45.4732 59.8567 45.751 59.4147 46.1196 59.0552C46.4883 58.6956 46.9371 58.4289 47.4292 58.2769C47.9013 58.1773 48.3916 58.2068 48.8484 58.3623L50.1136 58.7554L49.9597 57.4395C48.2499 42.4527 53.9948 32.4216 65.4846 30.6102L65.211 28.9014C53.0202 30.8324 46.694 41.1198 48.1131 56.4997C47.7397 56.4829 47.3658 56.5174 47.0018 56.6022C46.2381 56.8076 45.5364 57.1969 44.9581 57.7362C44.3799 58.2754 43.9426 58.948 43.6848 59.6953C43.0467 61.3712 42.9393 63.2025 43.377 64.9415C44.3003 68.8548 47.4292 71.4694 50.3529 70.8029C50.6239 70.7317 50.8873 70.6344 51.1395 70.5124C51.5156 71.6745 51.8918 72.7681 52.285 73.8276C52.6099 74.6137 60.2185 92.0442 73.7429 93.5651C74.4292 93.6519 75.12 93.6975 75.8117 93.7017Z" fill="black"/>
<path d="M71.1613 76.801C74.0718 77.7744 77.0736 78.45 80.1206 78.8175C83.9164 79.0909 85.25 77.963 85.25 77.963" fill="white"/>
<path d="M81.2831 79.7575C82.8652 79.9052 84.4519 79.5268 85.7969 78.6809L84.7026 77.3651C83.3056 78.0565 81.7242 78.2841 80.1888 78.0145C77.2113 77.6593 74.2781 77.0009 71.4347 76.0493L70.8875 77.7582C73.8761 78.7415 76.9589 79.4115 80.0862 79.7575C80.4965 79.7575 80.9069 79.7575 81.2831 79.7575Z" fill="black"/>
<path d="M81.6427 72.6485C81.6427 72.6485 84.5493 72.8706 85.3529 71.4351C86.1565 69.9997 82.1898 59.7123 82.9079 57.7642" fill="white"/>
<path d="M82.0866 73.5201C82.845 73.5842 83.6075 73.4621 84.3078 73.1642C85.0081 72.8664 85.6249 72.4019 86.1045 71.8112C86.6175 70.8884 86.1901 69.0087 85.0103 64.6169C84.3777 62.2929 83.4373 58.8068 83.7108 58.089L82.1036 57.4739C81.6591 58.6359 82.2917 61.1138 83.3518 65.0613C83.9843 66.9911 84.3973 68.9859 84.5829 71.0081C84.2067 71.6746 82.4456 71.8113 81.7104 71.7429L81.5736 73.4518L82.0866 73.5201Z" fill="black"/>
<path d="M77.043 59.849C77.043 59.849 76.6668 55.8332 73.2472 55.5256C70.7744 55.5478 68.3752 56.3691 66.4081 57.8668" fill="white"/>
<path d="M76.1886 59.9003L77.8984 59.7807C77.8666 58.5247 77.3906 57.3207 76.5548 56.3822C75.7191 55.4437 74.5777 54.8314 73.3333 54.6541C70.6258 54.6463 67.9922 55.5357 65.8444 57.1832L66.9045 58.5333C68.7142 57.1654 70.9109 56.4056 73.1794 56.363C75.9151 56.6193 76.1715 59.7636 76.1886 59.9003Z" fill="black"/>
<path d="M67.332 51.5438C67.332 51.5438 70.3754 48.1261 73.3675 49.8349C75.3765 51.0241 77.2461 52.4342 78.9414 54.0388" fill="white"/>
<path d="M78.3764 54.5516L79.5732 53.3382C77.8273 51.6781 75.8935 50.2272 73.8112 49.0148C70.2719 46.9984 66.8695 50.8262 66.7156 50.98L67.9979 52.1079C67.9979 52.1079 70.6481 49.1686 72.9734 50.5015C74.9172 51.6499 76.7291 53.0081 78.3764 54.5516Z" fill="black"/>
<path d="M85.5917 56.4826C85.5917 56.4826 89.9175 52.2788 93.0977 56.4826H85.5917Z" fill="white"/>
<path d="M86.1908 57.0977C87.2006 56.0779 88.5532 55.469 89.9865 55.3888C90.4802 55.4493 90.9547 55.6167 91.377 55.8794C91.7993 56.1421 92.1591 56.4937 92.4315 56.9097L93.7822 55.8673C93.3673 55.2573 92.8226 54.7463 92.1871 54.3711C91.5516 53.9959 90.841 53.7658 90.1061 53.697C88.1951 53.7395 86.3676 54.4884 84.9768 55.7989L86.1908 57.0977Z" fill="black"/>
<path d="M86.2077 60.3959C86.4214 59.8032 86.8222 59.296 87.3496 58.9507C87.877 58.6055 88.5023 58.441 89.1314 58.482C91.4054 58.6016 92.1064 61.7118 92.1064 61.7118" fill="white"/>
<path d="M91.2687 61.9168L92.9785 61.5238C92.9785 61.37 92.0894 57.7813 89.217 57.6275C88.3971 57.5642 87.5794 57.7749 86.8923 58.2265C86.2053 58.6781 85.6878 59.345 85.4212 60.1225L87.0455 60.6693C87.2097 60.2567 87.4993 59.9061 87.8736 59.6669C88.2479 59.4277 88.6879 59.3121 89.1315 59.3364C90.6703 59.4218 91.2687 61.8826 91.2687 61.9168Z" fill="black"/>
<path d="M89.0261 64.1256C88.3351 64.0219 87.8886 63.1813 88.0288 62.2479C88.169 61.3146 88.8429 60.6421 89.5339 60.7458C90.2249 60.8495 90.6715 61.6902 90.5313 62.6235C90.391 63.5568 89.7171 64.2294 89.0261 64.1256Z" fill="black"/>
<path d="M74.034 61.8932C73.3429 61.7895 72.8964 60.9488 73.0366 60.0155C73.1769 59.0822 73.8507 58.4097 74.5418 58.5134C75.2328 58.6171 75.6793 59.4578 75.5391 60.3911C75.3988 61.3244 74.725 61.9969 74.034 61.8932Z" fill="black"/>
<path d="M70.2892 36.7451C70.2892 36.7451 72.3409 39.2571 78.1884 39.2571C84.0359 39.2571 88.3274 44.5376 90.5502 48.5022C92.8304 52.2172 95.3193 55.8001 98.0049 59.2338" fill="white"/>
<path d="M97.3211 59.7464L98.6719 58.704C96.0244 55.2992 93.5588 51.7569 91.2856 48.0919C89.6613 45.1697 85.1474 38.4026 78.2057 38.4026C72.9224 38.4026 71.0075 36.2324 70.9904 36.1982L69.6739 37.2919C69.7593 37.4116 72.0334 40.1115 78.2228 40.1115C84.2584 40.1115 88.3448 46.2806 89.8152 48.9294C92.1147 52.6713 94.6205 56.2825 97.3211 59.7464Z" fill="black"/>
<path d="M32.0585 71.6574C37.8889 60.6865 42.3173 63.2156 43.8219 47.7332C45.3265 32.2509 53.4993 25.9109 61.9798 27.9445C70.4604 29.978 69.1439 39.5136 69.1439 39.5136C65.065 42.0927 61.7573 45.7232 59.569 50.023C56.064 57.1149 54.1661 61.0282 54.1661 61.0282C54.1661 61.0282 49.8061 56.6193 47.2072 57.4567C44.6084 58.294 43.3944 61.3016 44.2151 64.7706C45.0358 68.2396 47.6347 70.5637 50.1481 69.8972C50.6956 69.7605 51.2008 69.4905 51.6185 69.1112C51.4475 83.5853 52.0118 92.8303 46.3866 95.0689C40.7614 97.3076 26.211 82.6454 32.0585 71.6574Z" fill="white"/>
<path d="M45.1041 96.248C45.6548 96.2516 46.2009 96.147 46.7113 95.9403C52.3194 93.7188 52.3707 85.6871 52.4562 73.4345C52.4562 72.0845 52.4562 70.6662 52.4562 69.1966V67.2998L51.0028 68.5472C50.695 68.8365 50.3184 69.0424 49.9086 69.1453C47.9594 69.5896 45.6854 67.5219 45.0015 64.5655C44.3176 61.6092 45.3777 58.9262 47.4123 58.2598C49.0024 57.7642 52.1997 60.3104 53.4991 61.6775L54.354 62.5319L54.8841 61.4553C54.8841 61.4553 56.7819 57.542 60.287 50.4502C62.393 46.2749 65.574 42.7358 69.5028 40.197L69.8618 39.9919V39.5818C69.8618 39.4793 71.1613 29.2431 62.0481 27.0558C60.2161 26.5842 58.3026 26.522 56.4438 26.8735C54.585 27.2249 52.8265 27.9815 51.2935 29.0893C48.0107 31.4476 43.873 36.5742 42.83 47.5964C41.9238 57.337 39.8208 59.7636 36.9142 63.0959C34.6647 65.5739 32.7347 68.3238 31.1693 71.2814C27.5958 77.963 31.0667 85.6359 35.4951 90.5746C38.3333 93.5822 42.0948 96.248 45.1041 96.248ZM50.7635 70.7004C50.7635 71.6232 50.7635 72.5288 50.7635 73.4174C50.7635 84.9523 50.6267 92.5568 46.0957 94.3511C44.0611 95.1714 40.2141 93.0865 36.9142 89.4295C32.8791 84.901 29.6817 77.9802 32.8277 72.0675C34.3328 69.2227 36.1944 66.5812 38.3675 64.2067C41.3596 60.789 43.7362 58.0377 44.6937 47.7503C45.446 39.6331 48.1133 33.4983 52.4562 30.4565C53.7911 29.5038 55.3197 28.8566 56.9332 28.5613C58.5467 28.2659 60.2055 28.3296 61.7916 28.7476C68.6307 30.4565 68.494 37.292 68.3572 39.0009C64.302 41.6811 61.0188 45.3748 58.8337 49.7154L53.9266 59.6782C52.422 58.3282 49.3102 55.9699 46.9849 56.7047C44.0611 57.6446 42.5223 61.2162 43.4113 65.0269C44.3004 68.8377 47.4636 71.5548 50.3873 70.8883L50.7635 70.7004Z" fill="black"/>
<path d="M119.822 53.9876C119.827 44.3513 122.479 34.9012 127.489 26.6677C132.499 18.4342 139.674 11.7333 148.232 7.29555C156.79 2.85776 166.403 0.853478 176.023 1.5011C185.643 2.14872 194.9 5.42338 202.786 10.9682C210.671 16.513 216.882 24.1151 220.742 32.9457C224.602 41.7763 225.961 51.4964 224.673 61.0464C223.385 70.5964 219.499 79.6098 213.438 87.1038C207.376 94.5978 199.373 100.285 190.3 103.545L172.416 121.334L154.6 103.528C144.41 99.8454 135.604 93.1133 129.381 84.2484C123.158 75.3835 119.82 64.8169 119.822 53.9876Z" fill="white"/>
<path d="M172.415 122.479L190.693 104.211C202.52 99.9158 212.455 91.5918 218.751 80.7018C225.048 69.8119 227.303 57.0526 225.121 44.6657C222.939 32.2787 216.459 21.0564 206.82 12.9705C197.181 4.88463 184.999 0.452393 172.415 0.452393C159.831 0.452393 147.649 4.88463 138.01 12.9705C128.371 21.0564 121.891 32.2787 119.709 44.6657C117.527 57.0526 119.783 69.8119 126.079 80.7018C132.375 91.5918 142.31 99.9158 154.137 104.211L172.415 122.479ZM172.415 2.15772C184.618 2.15058 196.432 6.44894 205.774 14.2952C215.117 22.1416 221.388 33.0321 223.483 45.0474C225.578 57.0627 223.362 69.4315 217.226 79.9737C211.089 90.5159 201.427 98.5547 189.94 102.673L189.616 102.861L172.415 120.121L154.89 102.725C143.404 98.606 133.741 90.5671 127.605 80.0249C121.468 69.4827 119.252 57.1139 121.347 45.0986C123.442 33.0833 129.714 22.1928 139.056 14.3465C148.398 6.50015 160.212 2.20179 172.415 2.20893V2.15772Z" fill="black"/>
<path d="M165.457 34.7799L162.328 44.4351H152.172C151.037 44.4337 149.932 44.7913 149.014 45.4567C148.095 46.1222 147.411 47.0612 147.06 48.1391C146.709 49.2171 146.708 50.3785 147.058 51.4569C147.408 52.5352 148.091 53.475 149.009 54.1415L157.233 60.1054L154.087 69.7606C153.733 70.8402 153.731 72.0042 154.082 73.085C154.432 74.1657 155.117 75.1073 156.037 75.7743C156.957 76.4412 158.065 76.799 159.202 76.7962C160.339 76.7934 161.445 76.4301 162.362 75.7586L170.569 69.7947L178.793 75.7586C179.71 76.4231 180.814 76.7806 181.947 76.7799C183.08 76.7793 184.184 76.4204 185.1 75.7548C186.016 75.0892 186.699 74.1509 187.049 73.0742C187.4 71.9975 187.4 70.8377 187.051 69.7606L183.922 60.1054L192.129 54.1415C193.047 53.475 193.73 52.5352 194.08 51.4569C194.43 50.3785 194.429 49.2171 194.078 48.1391C193.727 47.0612 193.043 46.1222 192.124 45.4567C191.206 44.7913 190.101 44.4337 188.966 44.4351H178.827L175.681 34.7799C175.334 33.6976 174.652 32.7534 173.733 32.0835C172.814 31.4137 171.706 31.0527 170.569 31.0527C169.432 31.0527 168.324 31.4137 167.405 32.0835C166.486 32.7534 165.804 33.6976 165.457 34.7799Z" fill="#0500FF"/>
<path d="M159.198 77.6556C160.517 77.6569 161.801 77.2312 162.857 76.4423L170.569 70.8543L178.28 76.4423C179.343 77.1901 180.613 77.5863 181.913 77.5755C183.213 77.5648 184.477 77.1474 185.527 76.3821C186.578 75.6168 187.362 74.542 187.77 73.3085C188.179 72.0749 188.19 70.7447 187.803 69.5043L184.845 60.4473L192.556 54.8422C193.627 54.0748 194.426 52.9867 194.837 51.7354C195.248 50.4842 195.25 49.1347 194.842 47.8824C194.435 46.63 193.639 45.5397 192.57 44.7694C191.501 43.9991 190.215 43.5889 188.898 43.5979H179.374L176.433 34.5238C176.034 33.2681 175.242 32.1736 174.174 31.4014C173.106 30.6293 171.818 30.2202 170.5 30.2345C169.184 30.2212 167.899 30.6309 166.834 31.4032C165.769 32.1755 164.98 33.2695 164.584 34.5238L161.643 43.5979H152.103C150.791 43.6001 149.513 44.0167 148.452 44.7884C147.391 45.56 146.601 46.647 146.195 47.8942C145.789 49.1414 145.788 50.485 146.192 51.7328C146.596 52.9807 147.384 54.0689 148.444 54.8422L156.155 60.4473L153.214 69.5043C152.792 70.7547 152.784 72.1075 153.191 73.3629C153.597 74.6184 154.397 75.7099 155.471 76.4765C156.555 77.2584 157.862 77.6718 159.198 77.6556ZM170.569 68.7353L161.849 75.0752C161.072 75.6495 160.131 75.9596 159.165 75.9599C158.199 75.9602 157.258 75.6506 156.481 75.0768C155.704 74.503 155.132 73.6952 154.849 72.7721C154.565 71.8489 154.586 70.8593 154.907 69.9486L158.241 59.6954L149.521 53.3726C148.747 52.8137 148.17 52.0239 147.874 51.1167C147.577 50.2096 147.576 49.2318 147.871 48.324C148.165 47.4161 148.74 46.6251 149.513 46.0645C150.286 45.5039 151.216 45.2028 152.171 45.2042H162.943L166.362 34.951C166.644 34.0378 167.215 33.2407 167.989 32.6797C168.763 32.1188 169.698 31.8244 170.654 31.8408C171.611 31.8216 172.547 32.1148 173.322 32.6762C174.096 33.2375 174.667 34.0363 174.946 34.951L178.28 45.2042H189.051C190.008 45.1991 190.941 45.4976 191.717 46.0569C192.492 46.6161 193.07 47.4072 193.367 48.3158C193.663 49.2245 193.664 50.2038 193.367 51.1127C193.071 52.0215 192.494 52.8129 191.719 53.3726L182.999 59.6954L186.333 69.9486C186.646 70.8602 186.66 71.8478 186.373 72.7679C186.085 73.6879 185.512 74.4924 184.736 75.0643C183.959 75.6361 183.021 75.9455 182.057 75.9475C181.092 75.9495 180.153 75.6439 179.374 75.0752L170.569 68.7353Z" fill="black"/>
</g>
<defs>
<clipPath id="clip0_66_3592">
<rect width="226" height="220" fill="white" transform="matrix(-1 0 0 1 226 0.5)"/>
</clipPath>
</defs>
</svg>
