<svg width="273" height="231" viewBox="0 0 273 231" fill="none" xmlns="http://www.w3.org/2000/svg">
<path d="M193.908 80.9999L130.027 78.1545L105.896 166.058L202.372 178.815L193.908 80.9999Z" fill="white"/>
<path d="M203.026 179.48L202.302 179.387L105.161 166.559L129.584 77.5598H130.05L194.445 80.4402V80.9533L203.026 179.48ZM106.632 165.557L201.73 178.127L193.371 81.5247L130.471 78.7143L106.632 165.557Z" fill="black"/>
<path d="M153.293 105.734C153.293 105.734 145.39 108.976 129.35 103.973C113.309 98.9701 110.869 91.3202 113.811 83.1923C118.563 70.0616 133.973 60.0328 143.814 60.1611C153.655 60.2893 157.508 57.5722 174.879 62.0036C192.25 66.4349 198.075 80.7667 197.13 85.3963C193.931 101.244 185.07 101.722 176.618 105.734C166.707 110.363 157.601 99.6465 153.293 105.734Z" fill="white"/>
<path d="M171.154 107.506C168.195 107.371 165.278 106.756 162.516 105.687C158.126 104.241 155.511 103.541 153.772 106.072L153.678 106.212L153.515 106.27C153.188 106.41 145.238 109.535 129.174 104.532C120.757 101.897 115.586 98.4452 113.356 93.9789C111.78 90.7954 111.745 87.192 113.262 82.9939C118.06 69.735 133.459 59.5779 143.615 59.5779H143.814C146.285 59.5811 148.755 59.4605 151.215 59.2164C157.052 58.7266 162.539 58.2602 175.007 61.4438C192.296 65.8518 198.74 80.3118 197.69 85.5128C194.97 98.9933 188.245 101.652 181.124 104.474C179.723 105.022 178.276 105.64 176.851 106.258C175.069 107.093 173.123 107.52 171.154 107.506ZM157.029 103.238C159.031 103.391 160.998 103.843 162.866 104.579C166.94 105.932 171.551 107.448 176.361 105.209C177.809 104.532 179.268 103.949 180.692 103.39C187.51 100.696 193.954 98.142 196.546 85.2912C197.34 81.3497 192.285 67.0528 174.727 62.5632C162.434 59.438 157.029 59.8928 151.308 60.3825C148.974 60.5691 146.639 60.779 143.79 60.744H143.615C133.821 60.744 118.983 70.5629 114.348 83.3904C112.947 87.2736 112.959 90.5738 114.348 93.4658C116.391 97.5706 121.469 100.917 129.524 103.413C143.965 107.926 151.787 105.64 152.873 105.244C153.34 104.587 153.966 104.058 154.693 103.707C155.419 103.357 156.223 103.195 157.029 103.238Z" fill="black"/>
<path d="M94.362 178.815C104.332 173.486 94.362 208.972 94.362 208.972C96.6968 213.333 99.6387 218.231 98.7865 222.301C98.7865 222.301 97.1872 225.403 94.9924 225.496C94.5021 225.496 75.0062 226.534 74.4342 226.545C72.006 226.545 52.5802 197.952 57.9153 168.484C61.4176 148.962 71.002 106.935 83.3766 106.935" fill="white"/>
<path d="M74.4228 227.128C74.0375 227.128 73.4188 226.907 72.0879 225.274C65.6321 217.671 52.9773 192.797 57.4018 168.39C60.0285 153.825 69.6947 106.352 83.4352 106.352V107.518C73.2436 107.518 63.8926 139.062 58.5459 168.588C53.2808 197.742 72.5549 225.437 74.5278 225.962L90.3113 225.158L94.9809 224.913C96.4519 224.913 97.806 222.919 98.2497 222.102C98.9268 218.604 96.5686 214.266 94.4906 210.441L93.7435 209.053V208.832C95.8098 201.508 100.386 181.917 96.9422 179.142C96.7437 178.99 96.1483 178.5 94.6073 179.34L94.0586 178.314C95.5412 177.521 96.7671 177.486 97.6893 178.232C102.254 181.894 95.9849 205.252 94.9576 208.913L95.4829 209.893C97.6776 213.928 100.153 218.511 99.3354 222.429V222.58C99.2653 222.709 97.5376 225.985 95.051 226.079L90.3813 226.324L74.5044 227.128H74.4228Z" fill="black"/>
<path d="M91.0462 217.858C81.4968 217.858 73.7568 223.245 73.7568 229.892H108.347C108.347 223.245 100.607 217.858 91.0462 217.858Z" fill="white"/>
<path d="M108.932 230.475H73.1738V229.892C73.1738 222.895 81.194 217.275 91.0586 217.275C100.923 217.275 108.932 222.93 108.932 229.892V230.475ZM74.3529 229.309H107.753C107.297 223.269 99.9894 218.441 91.0586 218.441C82.1279 218.441 74.8316 223.269 74.3529 229.309Z" fill="black"/>
<path d="M76.3371 223.875C76.2915 223.403 76.3673 222.927 76.5573 222.492C76.7473 222.058 77.0452 221.678 77.4228 221.391C78.1351 220.905 78.9245 220.542 79.7576 220.318C79.6835 219.667 79.7858 219.008 80.0538 218.409C80.3218 217.811 80.7457 217.295 81.2812 216.916C81.8168 216.538 82.4443 216.309 83.0983 216.255C83.7523 216.201 84.4089 216.324 84.9994 216.61C85.2769 215.92 85.7296 215.314 86.3131 214.851C86.8965 214.389 87.5904 214.087 88.3265 213.974C89.5124 213.742 90.7416 213.902 91.8287 214.429C92.9713 213.8 94.2769 213.528 95.5761 213.648C98.0044 213.765 100.059 215.467 101.156 218.184C102.254 220.901 102.067 223.933 101.46 224.901C100.853 225.869 98.5063 225.577 98.1211 224.901C97.8307 224.404 97.4644 223.956 97.0354 223.572C96.8807 223.977 96.6075 224.325 96.2514 224.573C95.8953 224.82 95.4729 224.955 95.0391 224.959C94.0608 224.868 93.1311 224.49 92.3657 223.875C92.3015 224.293 92.1008 224.679 91.7947 224.972C91.4887 225.265 91.0944 225.449 90.673 225.496C89.3388 225.446 88.0417 225.043 86.9139 224.33C86.9139 224.33 87.2174 226.032 85.8865 226.51C84.5557 226.988 80.855 224.691 79.349 225.064" fill="white"/>
<path d="M85.4549 227.128C84.4195 227.015 83.4076 226.744 82.4547 226.324C81.5303 225.881 80.5254 225.631 79.5011 225.589L79.2327 224.423C80.485 224.367 81.7308 224.632 82.8516 225.193C83.7446 225.626 84.7196 225.864 85.7118 225.892C86.564 225.589 86.3772 224.411 86.3656 224.365L86.1554 223.094L87.2528 223.77C88.256 224.447 89.4193 224.849 90.6266 224.936C90.9242 224.901 91.2014 224.767 91.4132 224.556C91.6251 224.344 91.7593 224.067 91.7941 223.77L91.9458 222.744L92.7513 223.409C93.4208 223.944 94.2323 224.272 95.0861 224.353C95.3977 224.345 95.6997 224.244 95.9535 224.063C96.2072 223.882 96.4012 223.63 96.5104 223.338L96.8139 222.569L97.4443 223.105C97.906 223.542 98.2996 224.045 98.6117 224.598C99.0255 224.858 99.5155 224.969 100.001 224.913C100.172 224.925 100.343 224.901 100.504 224.842C100.665 224.784 100.811 224.693 100.935 224.575C101.567 222.536 101.443 220.337 100.585 218.382C100.344 217.535 99.9148 216.754 99.3287 216.096C98.7427 215.439 98.0153 214.922 97.2009 214.586C96.3866 214.249 95.5065 214.101 94.6267 214.153C93.7469 214.204 92.8902 214.454 92.1209 214.884L91.7941 215.094L91.4672 214.884C90.5044 214.455 89.4346 214.325 88.3968 214.511C87.7612 214.618 87.1648 214.89 86.6671 215.299C86.1694 215.708 85.7877 216.241 85.56 216.843L85.3265 217.438L84.7545 217.158C84.3257 216.978 83.8654 216.886 83.4003 216.886C82.9353 216.886 82.4749 216.978 82.0461 217.158C81.5067 217.482 81.0648 217.946 80.7669 218.5C80.469 219.054 80.3261 219.678 80.3533 220.307V220.796L79.863 220.901C79.0837 221.104 78.3452 221.439 77.68 221.892C77.3911 222.12 77.164 222.417 77.0192 222.755C76.8744 223.093 76.8166 223.462 76.8511 223.828L75.6837 223.945C75.6314 223.368 75.7286 222.787 75.9657 222.258C76.2028 221.729 76.572 221.27 77.0379 220.925C77.6969 220.479 78.4162 220.129 79.1742 219.887C79.1832 219.103 79.4052 218.336 79.8164 217.669C80.2277 217.001 80.8127 216.458 81.5091 216.097C82.5017 215.654 83.6208 215.584 84.6611 215.899C85.0018 215.233 85.4979 214.658 86.1074 214.224C86.7169 213.79 87.4221 213.508 88.1633 213.403C89.3445 213.231 90.5501 213.364 91.6656 213.788C92.8431 213.214 94.1539 212.968 95.4597 213.077C98.0864 213.205 100.363 215.047 101.542 217.986C102.709 220.726 102.558 224.003 101.799 225.228C101.542 225.544 101.209 225.791 100.832 225.946C100.455 226.1 100.045 226.158 99.6391 226.114C99.2313 226.141 98.8229 226.072 98.4461 225.914C98.0693 225.757 97.7344 225.513 97.4677 225.204C97.3329 224.966 97.1724 224.743 96.989 224.54C96.7435 224.868 96.422 225.132 96.0519 225.308C95.6818 225.485 95.2742 225.57 94.8643 225.554C94.0345 225.502 93.2312 225.242 92.5295 224.796C92.3396 225.153 92.0646 225.459 91.7286 225.684C91.3926 225.91 91.0061 226.05 90.6033 226.091C89.4656 226.114 88.3419 225.836 87.3461 225.286C87.2941 225.677 87.1361 226.047 86.8893 226.355C86.6424 226.663 86.3161 226.899 85.9453 227.035C85.7866 227.088 85.6218 227.119 85.4549 227.128Z" fill="black"/>
<path d="M91.8525 214.464C91.8525 214.464 94.8761 216.225 97.0592 223.607L91.8525 214.464Z" fill="white"/>
<path d="M96.4987 223.793C94.4323 216.797 91.5839 215.012 91.5488 215.001L92.1442 213.986C92.2726 214.068 95.4013 215.945 97.6194 223.467L96.4987 223.793Z" fill="black"/>
<path d="M92.3421 223.875C92.3421 223.875 89.4352 218.732 85.0107 216.61L92.3421 223.875Z" fill="white"/>
<path d="M91.887 224.166C91.887 224.166 89.0152 219.152 84.8125 217.17L85.3145 216.12C89.8557 218.289 92.7743 223.408 92.9027 223.618L91.887 224.166Z" fill="black"/>
<path d="M79.8164 220.295C79.8164 220.295 81.7893 219.677 86.9376 224.271L79.8164 220.295Z" fill="white"/>
<path d="M86.5058 224.738C81.8361 220.552 79.9332 220.878 79.9216 220.89L79.5947 219.724C79.8282 219.642 82.0346 219.129 87.2879 223.817L86.5058 224.738Z" fill="black"/>
<path d="M273 229.834H0V231H273V229.834Z" fill="black"/>
<path d="M176.396 70.0731C175.229 83.647 157.636 93.6058 157.636 93.6058C157.636 93.6058 151.519 91.0636 143.627 70.9711C144.057 63.7982 143.838 56.6011 142.973 49.4675C141.526 36.2902 140.802 26.7045 140.802 26.7045C140.802 26.7045 160.076 13.877 170.361 14.5883C180.646 15.2997 189.273 19.2529 188.082 26.7045" fill="white"/>
<path d="M157.718 94.2589L157.449 94.1424C157.192 94.0374 151.005 91.2737 143.16 71.1811V71.0529V70.9129C143.589 63.7789 143.37 56.6206 142.506 49.526C141.07 36.5002 140.335 26.8563 140.335 26.7513V26.4131L140.627 26.2266C141.421 25.7018 160.158 13.3174 170.559 14.0054C178.323 14.5418 184.37 16.8275 187.137 20.2909C187.868 21.1912 188.397 22.2384 188.688 23.3613C188.978 24.4842 189.022 25.6564 188.818 26.798L187.65 26.623C187.824 25.6417 187.785 24.6347 187.538 23.6693C187.29 22.704 186.839 21.8026 186.214 21.0256C183.646 17.807 177.914 15.673 170.466 15.1949C161.127 14.5535 143.966 25.4569 141.549 27.0312C141.689 28.862 142.413 37.7946 143.685 49.421C144.542 56.5474 144.765 63.7356 144.351 70.9013C151.075 88.0785 156.539 92.2299 157.718 92.9646C159.959 91.6235 174.902 82.2361 175.906 70.0383L177.074 70.1432C175.906 83.8687 158.745 93.7226 158.021 94.1424L157.718 94.2589Z" fill="black"/>
<path d="M146.803 45.9692C146.803 45.9692 148.39 58.8783 150.13 62.0969C151.869 65.3154 163.613 71.2627 168.68 71.7758C171.293 72.0045 173.915 71.4513 176.212 70.1866C178.51 68.9219 180.378 67.0029 181.58 64.674C183.915 59.9045 184.487 53.1992 185.794 46.8787C187.102 40.5583 185.969 37.9345 185.969 37.9345V36.5818C187.465 33.5073 188.209 30.1222 188.141 26.7046" fill="white"/>
<path d="M169.882 72.4172C169.462 72.4172 169.042 72.4172 168.621 72.3589C163.532 71.8341 151.507 65.8868 149.616 62.3768C147.841 59.0883 146.289 46.5756 146.219 46.0509L147.386 45.9109C147.386 46.0392 148.986 58.7384 150.655 61.8287C152.324 64.9189 163.73 70.6913 168.75 71.1577C171.242 71.3726 173.742 70.8447 175.934 69.6409C178.126 68.4371 179.912 66.6113 181.066 64.3942C182.712 61.024 183.401 56.6627 184.253 52.0564C184.557 50.3072 184.872 48.488 185.234 46.7272C186.483 40.7216 185.456 38.1561 185.444 38.1327V37.8996V36.3019C186.904 33.3043 187.628 30.0025 187.557 26.6697H188.724C188.788 30.128 188.045 33.5537 186.553 36.6751V37.8412C186.763 38.4593 187.557 41.258 186.366 47.0071C186.004 48.7563 185.689 50.5638 185.386 52.3013C184.58 56.9659 183.821 61.4206 182.105 64.9423C180.945 67.1844 179.193 69.0663 177.038 70.3841C174.884 71.7018 172.409 72.4049 169.882 72.4172Z" fill="black"/>
<path d="M144.432 52.1263C142.214 52.5694 139.669 49.2226 138.759 44.663C137.848 40.1035 138.899 36.0336 141.094 35.5905C142.705 35.264 144.491 36.9432 145.693 39.6253" fill="white"/>
<path d="M144.036 52.7442C141.62 52.7442 139.11 49.4091 138.199 44.7678C137.207 39.8118 138.444 35.5321 141.024 35.019C142.869 34.6458 144.877 36.3134 146.254 39.392L145.192 39.8701C144.024 37.3979 142.495 35.9169 141.246 36.1617C139.588 36.4883 138.421 39.94 139.343 44.5463C140.265 49.1525 142.659 51.8813 144.328 51.5431L144.561 52.7092C144.388 52.739 144.212 52.7508 144.036 52.7442Z" fill="black"/>
<path d="M169.756 32.5194C168.288 31.5852 166.676 30.898 164.986 30.485C162.005 29.7615 158.953 29.3688 155.887 29.314L156.269 30.9109C159.865 31.8242 163.411 32.9277 166.89 34.217C169.115 35.2392 169.756 32.5194 169.756 32.5194Z" fill="black"/>
<path d="M176.618 36.9783C175.906 37.3372 175.318 37.9015 174.931 38.5981C174.544 39.2946 174.375 40.0914 174.446 40.8849C174.341 42.5175 174.446 46.6456 174.983 47.2986C175.52 47.9517 176.151 49.3627 175.532 49.8991C174.913 50.4355 172.158 52.1614 172.158 52.1614" fill="white"/>
<path d="M172.474 52.6511L171.844 51.6716C172.591 51.1935 174.646 49.8757 175.159 49.4559C175.178 49.4031 175.178 49.3455 175.159 49.2926C175.111 48.6943 174.874 48.1267 174.482 47.6717C173.653 46.6688 173.758 41.5029 173.805 40.8498C173.738 39.9609 173.935 39.0721 174.371 38.2944C174.807 37.5167 175.463 36.8845 176.257 36.4768L176.864 37.4797C175.124 38.5409 175.078 39.3921 174.972 40.9781C174.818 42.9853 174.956 45.0043 175.381 46.972C175.97 47.6636 176.304 48.5363 176.327 49.4442C176.3 49.8137 176.128 50.1576 175.848 50.4005C175.229 50.9136 172.591 52.5812 172.474 52.6511Z" fill="black"/>
<path d="M179.549 33.573C176.046 33.2349 178.089 36.0336 178.089 36.0336L184.405 36.9781L184.954 35.5321C183.302 34.5235 181.464 33.8572 179.549 33.573Z" fill="black"/>
<path d="M170.419 50.7735C169.935 50.6228 169.424 50.5833 168.922 50.658C168.421 50.7327 167.943 50.9197 167.524 51.205C166.719 51.788 166.509 50.5286 166.485 49.4324C166.479 49.254 166.509 49.0761 166.573 48.9094C166.637 48.7426 166.734 48.5905 166.858 48.4621C166.982 48.3337 167.131 48.2316 167.296 48.1619C167.46 48.0922 167.637 48.0563 167.816 48.0564H169.987" fill="white"/>
<path d="M167.15 51.9397C167.009 51.9335 166.871 51.9019 166.742 51.8464C166.204 51.5782 165.936 50.8319 165.901 49.4442C165.89 49.1884 165.933 48.9333 166.025 48.6946C166.117 48.4558 166.258 48.2386 166.438 48.0565C166.616 47.8713 166.83 47.7242 167.067 47.624C167.304 47.5238 167.558 47.4726 167.816 47.4734H169.987V48.6395H167.816C167.614 48.6406 167.422 48.7201 167.279 48.8611C167.206 48.9323 167.15 49.018 167.114 49.1125C167.078 49.207 167.062 49.3082 167.068 49.4092C167.057 49.8388 167.113 50.2674 167.232 50.6803C167.73 50.3644 168.29 50.1593 168.874 50.0788C169.458 49.9984 170.053 50.0444 170.617 50.2139L170.232 51.38L170.419 50.8319L170.232 51.38C169.841 51.261 169.429 51.2306 169.025 51.2912C168.621 51.3517 168.236 51.5016 167.897 51.7298C167.679 51.8829 167.416 51.9569 167.15 51.9397Z" fill="black"/>
<path d="M174.879 51.6364C174.879 51.6364 175.696 50.9601 176.397 51.3566L174.879 51.6364Z" fill="white"/>
<path d="M175.229 52.0914L174.481 51.1935C174.772 50.9295 175.133 50.7558 175.521 50.6937C175.909 50.6316 176.306 50.6837 176.665 50.8437L176.092 51.8582C175.824 51.7066 175.357 51.9981 175.229 52.0914Z" fill="black"/>
<path d="M160.508 53.957C163.276 54.8731 166.115 55.5634 168.995 56.0211C172.14 56.3254 175.306 56.3254 178.451 56.0211" fill="white"/>
<path d="M172.082 57.2223C170.65 57.2383 169.218 57.1399 167.797 56.9279C164.897 56.3663 162.039 55.5271 159.25 54.4184L159.622 53.0164C162.344 54.0932 165.132 54.9135 167.959 55.4699C171.049 55.8301 174.16 55.8301 177.25 55.4699L177.366 56.8718C177.192 56.9419 174.823 57.2223 172.082 57.2223Z" fill="black"/>
<path d="M157.647 39.3687C157.647 39.3687 161.663 37.4096 164.979 37.6895L157.647 39.3687Z" fill="white"/>
<path d="M158.525 38.0521L158.352 36.7745C158.564 36.7499 163.473 36.1136 166.954 37.6073L166.45 38.7961C163.894 37.9734 161.189 37.7195 158.525 38.0521Z" fill="black"/>
<path d="M162.892 38.267C162.748 38.6362 162.476 38.9413 162.125 39.1263C161.775 39.3113 161.369 39.3638 160.983 39.2742C160.703 39.1794 160.469 38.9838 160.327 38.7258C160.184 38.4679 160.143 38.166 160.211 37.8793C160.361 37.4274 160.814 37.4147 161.449 37.5035C162.317 37.6287 163.051 37.7906 162.892 38.267Z" fill="black"/>
<path d="M176.618 39.4505C176.618 39.4505 180.996 38.5526 184.148 39.6487L176.618 39.4505Z" fill="white"/>
<path d="M183.95 40.1967C180.996 39.1705 176.782 40.0217 176.735 40.0217L176.502 38.8556C179.096 38.3376 181.773 38.4094 184.335 39.0655L183.95 40.1967Z" fill="black"/>
<path d="M180.552 39.6953C180.447 40.0377 180.221 40.3304 179.916 40.5191C179.611 40.7077 179.248 40.7797 178.894 40.7216C178.643 40.6579 178.424 40.5036 178.279 40.2883C178.135 40.073 178.075 39.812 178.112 39.5554C178.217 39.1473 178.614 39.1006 179.198 39.1472C179.992 39.1589 180.657 39.2755 180.552 39.6953Z" fill="black"/>
<path d="M143.183 31.1824C143.183 31.1824 141.689 29.0484 141.07 22.6697C140.451 16.2909 142.121 7.12505 142.121 7.12505L147.176 8.66435C149.352 6.01861 152.192 3.99579 155.405 2.80164C158.618 1.6075 162.091 1.28461 165.469 1.86576C177.248 3.85985 179.396 9.04913 183.132 9.04913C186.868 9.04913 192.25 5.64403 192.25 5.64403C192.25 5.64403 195.402 15.1597 193.277 19.0197C192.626 20.174 191.745 21.1832 190.689 21.9853C189.633 22.7874 188.424 23.3656 187.136 23.6842C187.136 23.6842 184.548 17.5312 178.419 17.2513C172.29 16.9714 171.257 18.724 171.257 18.724C171.257 18.724 169.658 16.0735 161.778 17.2513C153.897 18.4291 148.378 22.0516 147.211 26.4946C146.043 30.9375 143.183 31.1824 143.183 31.1824Z" fill="#0500FF"/>
<path d="M141.864 36.0453C141.771 35.9171 140.954 34.6693 139.424 29.0485C137.895 23.4277 140.183 12.7226 140.288 12.2561V12.0229L144.958 9.07258C146.206 7.23777 147.791 5.65516 149.628 4.40804C152.733 2.28567 158.161 -0.174873 166.38 0.116661C171.431 0.435173 176.302 2.10693 180.482 4.95616C180.996 5.27101 181.393 5.52756 181.65 5.67916C182.957 6.33219 188.374 6.27389 190.347 6.19226H190.732L190.896 6.54209C192.575 10.7054 192.953 15.2789 191.981 19.6611C191.363 22.4599 188.561 26.9378 188.479 27.1244L187.825 28.1739L187.44 27.0078C186.903 25.3985 185.047 21.0138 182.934 20.0692C178.019 17.8769 171.984 20.0692 171.925 20.0692H171.762H171.587C166.551 19.0527 161.39 18.8128 156.282 19.3579C155.387 19.4165 154.514 19.6653 153.723 20.0876C152.932 20.5099 152.24 21.096 151.694 21.8068C150.665 23.5654 150.309 25.6366 150.69 27.6375L149.522 27.8824C149.04 25.5653 149.457 23.1517 150.69 21.1305C151.331 20.2869 152.145 19.5895 153.077 19.0848C154.009 18.5801 155.038 18.2797 156.095 18.2035C161.279 17.6308 166.522 17.8668 171.633 18.9031C172.696 18.5416 178.439 16.7691 183.307 18.9731C185.549 19.976 187.253 23.6376 187.977 25.4568C189.152 23.5544 190.085 21.5136 190.756 19.3813C191.609 15.3725 191.309 11.2044 189.892 7.3584C188.222 7.3584 182.665 7.52166 181.031 6.70536C180.716 6.55376 180.272 6.27385 179.724 5.93567C175.722 3.18125 171.044 1.5686 166.193 1.27112C158.29 0.979591 153.107 3.3352 150.153 5.36428C148.389 6.53487 146.877 8.04537 145.705 9.80725L145.635 9.93551L141.374 12.7226C141.035 14.3319 139.191 23.6376 140.545 28.722C142.016 34.1678 142.787 35.3573 142.88 35.404L141.864 36.0453Z" fill="black"/>
<path d="M248.858 83.0757H74.5743C73.6269 83.0757 72.7182 83.4516 72.0483 84.1208C71.3784 84.79 71.002 85.6977 71.002 86.6441V204.669C71.002 205.555 72.6014 206.266 74.5743 206.266H248.858C250.831 206.266 252.36 205.555 252.36 204.669V86.6441C252.363 85.7088 251.997 84.8098 251.342 84.142C250.686 83.4741 249.794 83.091 248.858 83.0757Z" fill="#D0D5DD"/>
<path d="M188.421 223.595C185.211 220.423 183.296 215.234 183.296 209.695V151.644C183.293 151.396 183.192 151.159 183.015 150.984C182.838 150.809 182.599 150.711 182.351 150.711H141.082C140.959 150.71 140.836 150.733 140.721 150.779C140.607 150.825 140.502 150.894 140.414 150.981C140.327 151.067 140.257 151.171 140.209 151.285C140.161 151.399 140.137 151.521 140.137 151.644V209.695C140.137 215.234 138.222 220.423 135 223.595L129.945 228.574H193.476L188.421 223.595Z" fill="white"/>
<path d="M194.9 229.157H128.532L134.603 223.175C137.708 220.12 139.564 215.012 139.564 209.695V151.644C139.567 151.241 139.73 150.856 140.016 150.572C140.303 150.288 140.69 150.128 141.094 150.128H182.35C182.753 150.128 183.139 150.288 183.423 150.572C183.708 150.857 183.868 151.242 183.868 151.644V209.695C183.868 215.071 185.724 220.12 188.829 223.175L194.9 229.157ZM131.369 227.991H192.075L188.035 224.003C184.708 220.726 182.724 215.374 182.724 209.695V151.644C182.725 151.598 182.717 151.552 182.7 151.509C182.683 151.465 182.658 151.426 182.625 151.393C182.592 151.361 182.553 151.335 182.509 151.318C182.466 151.301 182.42 151.293 182.373 151.295H141.082C141.035 151.293 140.988 151.301 140.944 151.318C140.901 151.335 140.86 151.36 140.827 151.393C140.793 151.425 140.766 151.465 140.748 151.508C140.729 151.551 140.72 151.597 140.72 151.644V209.695C140.72 215.374 138.735 220.726 135.408 224.003L131.369 227.991Z" fill="black"/>
<path d="M133.156 228.574L133.144 230.184H129.945V228.574H133.156Z" fill="#D0D5DD"/>
<path d="M134.673 228.574L134.661 230.184H133.144L133.155 228.574H134.673Z" fill="#D0D5DD"/>
<path d="M136.203 228.574L136.191 230.184H134.662L134.674 228.574H136.203Z" fill="#D0D5DD"/>
<path d="M137.721 228.574L137.709 230.184H136.191L136.203 228.574H137.721Z" fill="#D0D5DD"/>
<path d="M139.238 228.574L139.227 230.184H137.709L137.721 228.574H139.238Z" fill="#D0D5DD"/>
<path d="M140.768 228.574L140.756 230.184H139.227L139.238 228.574H140.768Z" fill="#D0D5DD"/>
<path d="M142.285 228.574L142.273 230.184H140.756L140.768 228.574H142.285Z" fill="#D0D5DD"/>
<path d="M143.803 228.574L143.791 230.184H142.273L142.285 228.574H143.803Z" fill="#D0D5DD"/>
<path d="M145.32 228.574V230.184H143.791L143.803 228.574H145.32Z" fill="#D0D5DD"/>
<path d="M146.85 228.574L146.838 230.184H145.32V228.574H146.85Z" fill="#D0D5DD"/>
<path d="M148.367 228.574L148.356 230.184H146.838L146.85 228.574H148.367Z" fill="#D0D5DD"/>
<path d="M149.885 228.574L149.873 230.184H148.355L148.367 228.574H149.885Z" fill="#D0D5DD"/>
<path d="M151.414 228.574L151.402 230.184H149.873L149.885 228.574H151.414Z" fill="#D0D5DD"/>
<path d="M152.932 228.574L152.92 230.184H151.402L151.414 228.574H152.932Z" fill="#D0D5DD"/>
<path d="M154.449 228.574L154.438 230.184H152.92L152.932 228.574H154.449Z" fill="#D0D5DD"/>
<path d="M155.978 228.574L155.967 230.184H154.438L154.449 228.574H155.978Z" fill="#D0D5DD"/>
<path d="M157.496 228.574L157.484 230.184H155.967L155.978 228.574H157.496Z" fill="#D0D5DD"/>
<path d="M159.014 228.574L159.002 230.184H157.484L157.496 228.574H159.014Z" fill="#D0D5DD"/>
<path d="M160.531 228.574V230.184H159.002L159.014 228.574H160.531Z" fill="#D0D5DD"/>
<path d="M162.061 228.574L162.049 230.184H160.531V228.574H162.061Z" fill="#D0D5DD"/>
<path d="M163.578 228.574L163.566 230.184H162.049L162.061 228.574H163.578Z" fill="#D0D5DD"/>
<path d="M165.107 228.574L165.096 230.184H163.566L163.578 228.574H165.107Z" fill="#D0D5DD"/>
<path d="M166.625 228.574L166.613 230.184H165.096L165.107 228.574H166.625Z" fill="#D0D5DD"/>
<path d="M168.144 228.574L168.132 230.184H166.614L166.626 228.574H168.144Z" fill="#D0D5DD"/>
<path d="M169.661 228.574V230.184H168.132L168.144 228.574H169.661Z" fill="#D0D5DD"/>
<path d="M171.19 228.574L171.179 230.184H169.661V228.574H171.19Z" fill="#D0D5DD"/>
<path d="M172.708 228.574L172.696 230.184H171.179L171.19 228.574H172.708Z" fill="#D0D5DD"/>
<path d="M174.226 228.574V230.184H172.696L172.708 228.574H174.226Z" fill="#D0D5DD"/>
<path d="M175.755 228.574L175.743 230.184H174.226V228.574H175.755Z" fill="#D0D5DD"/>
<path d="M177.272 228.574L177.261 230.184H175.743L175.755 228.574H177.272Z" fill="#D0D5DD"/>
<path d="M178.79 228.574L178.778 230.184H177.261L177.272 228.574H178.79Z" fill="#D0D5DD"/>
<path d="M180.319 228.574L180.308 230.184H178.778L178.79 228.574H180.319Z" fill="#D0D5DD"/>
<path d="M180.308 230.184L180.319 228.574H193.476V230.184H180.308Z" fill="#D0D5DD"/>
</svg>
