<svg width="54" height="54" viewBox="0 0 54 54" fill="none" xmlns="http://www.w3.org/2000/svg">
<path d="M54 15.552V43.0312C54.0001 45.833 53.1426 48.5285 51.6033 50.565C50.064 52.6015 47.9596 53.8245 45.7218 53.9831L45.225 54H8.775C6.53363 54.0002 4.37716 52.9283 2.74798 51.0041C1.11879 49.08 0.140396 46.4495 0.0135003 43.6522L0 43.0312V15.552L26.0604 32.616C26.3503 32.8058 26.6727 32.905 27 32.905C27.3273 32.905 27.6497 32.8058 27.9396 32.616L54 15.552ZM8.775 7.96672e-08H45.225C47.4001 -0.000327425 49.4977 1.00911 51.1111 2.83253C52.7245 4.65594 53.7386 7.16338 53.9568 9.8685L27 27.5198L0.0432001 9.8685C0.252513 7.2708 1.19623 4.85162 2.70473 3.04581C4.21321 1.24 6.18754 0.166006 8.2728 0.0168755L8.775 7.96672e-08Z" fill="#0500FF"/>
</svg>
