<svg width="147" height="227" viewBox="0 0 147 227" fill="none" xmlns="http://www.w3.org/2000/svg">
<path d="M140.963 109.186C140.963 109.186 131.789 60.0583 103.31 57.1906C74.8314 54.323 23.7096 56.7785 15.3062 93.9721C6.90281 131.166 1.27192 170.437 1.27192 170.437C1.27192 170.437 2.0764 189.858 8.85387 197.293C15.6313 204.728 35.6215 225.248 35.6215 225.248H145.909L140.963 109.186Z" fill="white"/>
<path d="M35.2273 226.107H146.765V225.214L141.836 109.083C141.459 107.057 132.217 59.2857 103.396 56.3837C65.3667 52.5716 22.032 60.3847 14.3987 93.8348C6.08095 130.633 0.415806 169.973 0.347347 170.368C0.347347 171.33 1.25453 190.339 8.1518 197.843C15.0491 205.347 34.7483 225.626 34.9365 225.832L35.2273 226.107ZM144.985 224.39H35.9462C33.6015 221.986 15.7165 203.595 9.43541 196.709C3.15428 189.824 2.09309 170.592 2.09309 170.403C2.09309 170.214 7.79242 130.908 16.0931 94.1611C25.5405 52.3999 90.3029 56.7443 103.19 58.1009C130.3 60.8311 139.73 107.417 140.107 109.341L144.985 224.39Z" fill="black"/>
<path d="M95.3008 104.584C102.694 84.2702 120.032 83.8753 128.914 88.5975C130.746 89.5762 132.337 90.452 133.604 91.2075C134.115 91.4955 134.7 91.623 135.284 91.5734C135.868 91.5239 136.423 91.2996 136.879 90.9296C137.334 90.5596 137.669 90.0609 137.838 89.4982C138.008 88.9354 138.006 88.3345 137.831 87.7732C136.313 82.4701 134.072 77.4026 131.173 72.7138C128.159 68.2363 124.212 64.4691 119.604 61.6725C119.604 61.6725 107.11 56.521 103.773 55.9544C100.435 55.3877 95.7799 83.9096 95.7799 83.9096L95.3008 104.584Z" fill="#0500FF"/>
<path d="M94.3248 109.77L96.0363 104.876C99.0485 96.6165 104.08 90.9327 110.618 88.4085C113.491 87.3162 116.56 86.8375 119.627 87.0031C122.695 87.1687 125.695 87.9749 128.435 89.3701C130.266 90.3317 131.858 91.1903 133.107 91.9458C133.763 92.3345 134.521 92.5117 135.28 92.4534C136.04 92.395 136.763 92.1039 137.351 91.6196C137.947 91.137 138.383 90.4854 138.602 89.7501C138.822 89.0147 138.816 88.2299 138.584 87.4984C137.005 82.1101 134.702 76.9628 131.738 72.1986C128.64 67.616 124.595 63.7566 119.877 60.8825C119.278 60.6421 107.178 55.7311 103.772 55.0957C103.559 55.0589 103.341 55.0674 103.132 55.1206C102.923 55.1739 102.727 55.2707 102.557 55.4048C99.1342 57.8088 95.4886 79.4449 94.7869 83.755L94.3248 109.77ZM118.474 85.2661C115.602 85.2598 112.754 85.7836 110.071 86.8115C103.929 89.3217 98.9837 94.1048 96.2588 100.171L96.6353 83.9096C98.6548 71.5117 101.958 57.5341 103.721 56.7785C106.836 57.3624 119.124 62.3936 119.295 62.4451C123.727 65.1999 127.534 68.8558 130.471 73.1774C133.311 77.8026 135.51 82.7937 137.009 88.0136C137.143 88.4144 137.151 88.8469 137.032 89.2524C136.912 89.6579 136.671 90.0167 136.342 90.2802C136.021 90.5432 135.627 90.7008 135.213 90.7315C134.8 90.7622 134.387 90.6646 134.031 90.4519C132.713 89.6964 131.156 88.8378 129.308 87.8418C125.952 86.1318 122.238 85.2489 118.474 85.2661Z" fill="black"/>
<path d="M118.286 7.75379C118.286 7.75379 135.281 2.32758 139.543 14.6224C140.829 18.0556 141.19 21.7686 140.589 25.3866C139.988 29.0045 138.446 32.3993 136.12 35.2282C136.12 35.2282 145.584 39.3494 144.472 45.1877C143.584 48.9696 141.508 52.3649 138.55 54.8725C140.488 57.6208 141.563 60.8879 141.636 64.2538C141.709 67.6197 140.777 70.9306 138.961 73.7612C132.508 83.7207 101.839 79.8742 101.839 79.8742C101.839 79.8742 92.6478 70.3955 83.2004 60.2815C73.7531 50.1675 118.286 7.75379 118.286 7.75379Z" fill="black"/>
<path d="M127.151 48.3302C138.567 34.5929 135.709 19.6881 115.411 13.9871C103.79 10.7245 94.0342 17.7305 90.3203 33.1162C86.6064 48.5019 92.6308 64.832 103.413 66.7381C113.186 68.4552 125.868 60.024 127.151 48.3473V48.3302Z" fill="white"/>
<path d="M122.119 40.5514C121.265 42.0296 120.968 43.7659 121.281 45.4453C121.281 45.5999 121.281 45.7716 121.383 45.9433C121.486 46.115 121.127 45.6857 121.298 45.8231C121.659 46.1344 121.955 46.5136 122.171 46.9392C122.369 47.2288 122.503 47.5576 122.564 47.9037C122.625 48.2497 122.611 48.6048 122.524 48.945C122.436 49.2852 122.277 49.6026 122.056 49.8757C121.836 50.1488 121.56 50.3713 121.246 50.5281C119.978 51.0052 118.598 51.1007 117.276 50.8028C116.319 50.6686 115.374 50.4561 114.452 50.1675C113.665 49.9271 114.007 48.6735 114.794 48.9311C115.485 49.1452 116.188 49.3172 116.899 49.4463C118.062 49.7378 119.279 49.7378 120.442 49.4463C120.672 49.3843 120.88 49.2576 121.041 49.0812C121.201 48.9047 121.308 48.6858 121.349 48.4503C121.314 47.9669 121.121 47.5085 120.801 47.1453C120.559 46.9201 120.351 46.6596 120.185 46.3726C120.084 46.0775 120.016 45.7724 119.98 45.4625C119.678 43.5337 120.04 41.5591 121.007 39.8646C121.104 39.7405 121.242 39.656 121.397 39.6265C121.551 39.597 121.711 39.6246 121.847 39.7042C121.982 39.7838 122.085 39.9099 122.135 40.0594C122.185 40.2088 122.179 40.3714 122.119 40.5171V40.5514Z" fill="black"/>
<path d="M108.804 35.2283C109.841 35.1596 110.882 35.1596 111.919 35.2283C113.549 35.1775 115.155 35.6268 116.523 36.5162C116.643 36.6368 116.711 36.8005 116.711 36.9712C116.711 37.1419 116.643 37.3056 116.523 37.4262C116.403 37.5469 116.24 37.6147 116.07 37.6147C115.899 37.6147 115.736 37.5469 115.616 37.4262L115.291 37.2202L114.966 37.0657C114.623 36.9455 114.298 36.8596 113.956 36.7737C113.204 36.6305 112.444 36.5387 111.679 36.499C110.722 36.4475 109.762 36.4475 108.804 36.499C107.983 36.499 107.983 35.2626 108.804 35.2111V35.2283Z" fill="black"/>
<path d="M123.831 41.3242C124.309 41.29 124.79 41.29 125.268 41.3242C126.226 41.3955 127.164 41.6338 128.041 42.0283C128.528 42.2606 128.943 42.623 129.239 43.0757C129.282 43.1479 129.31 43.2278 129.322 43.3109C129.334 43.3939 129.329 43.4785 129.308 43.5598C129.288 43.6412 129.251 43.7176 129.201 43.7848C129.151 43.852 129.088 43.9086 129.016 43.9515C128.944 43.9943 128.865 44.0225 128.782 44.0345C128.699 44.0465 128.615 44.042 128.534 44.0212C128.453 44.0005 128.377 43.964 128.31 43.9137C128.243 43.8634 128.186 43.8004 128.143 43.7282V43.6424C128.143 43.7282 128.143 43.7282 128.143 43.6424L128.024 43.505L127.887 43.3848C127.789 43.3003 127.68 43.2309 127.562 43.1788H127.373C126.865 42.9834 126.337 42.8452 125.799 42.7666H125.611C125.799 42.7666 125.611 42.7666 125.611 42.7666H125.234H124.635C124.43 42.7666 124.241 42.7666 124.036 42.7666C123.866 42.7622 123.705 42.6914 123.587 42.5696C123.469 42.4477 123.403 42.2842 123.403 42.1141C123.407 41.947 123.475 41.7879 123.593 41.6697C123.711 41.5515 123.869 41.4831 124.036 41.4788L123.831 41.3242Z" fill="black"/>
<path d="M112.252 42.2898C111.763 42.1437 111.637 41.1115 111.972 39.9845C112.306 38.8574 112.974 38.0622 113.463 38.2083C113.952 38.3545 114.077 39.3866 113.743 40.5137C113.409 41.6407 112.741 42.436 112.252 42.2898Z" fill="black"/>
<path d="M124.793 48.0904C124.357 47.8243 124.497 46.794 125.106 45.7893C125.715 44.7846 126.563 44.1859 126.999 44.452C127.435 44.7182 127.294 45.7483 126.685 46.753C126.076 47.7577 125.229 48.3565 124.793 48.0904Z" fill="black"/>
<path d="M115.325 55.6624C113.486 54.6674 111.735 53.5185 110.088 52.2281L109.267 51.5756L108.959 51.318C108.959 51.318 108.702 51.1463 108.668 51.0433C108.633 50.9402 108.668 51.0433 108.822 51.0433C108.976 51.0433 108.959 50.8887 108.976 50.8887C108.976 50.8887 108.976 51.2493 108.976 51.4382C108.95 51.8499 108.95 52.2629 108.976 52.6746C108.993 53.6804 109.328 54.6546 109.934 55.4563C110.048 55.5801 110.112 55.7427 110.112 55.9114C110.112 56.0801 110.048 56.2426 109.934 56.3664C109.875 56.4272 109.804 56.4755 109.727 56.5084C109.649 56.5414 109.565 56.5584 109.48 56.5584C109.396 56.5584 109.312 56.5414 109.234 56.5084C109.156 56.4755 109.086 56.4272 109.027 56.3664C108.3 55.4687 107.853 54.3755 107.743 53.224C107.709 52.7152 107.709 52.2046 107.743 51.6958C107.718 51.2244 107.782 50.7525 107.932 50.3049C108 50.1682 108.097 50.0478 108.216 49.952C108.335 49.8562 108.473 49.7872 108.62 49.7498C108.768 49.7123 108.922 49.7072 109.072 49.7348C109.222 49.7625 109.364 49.8222 109.489 49.9099C109.745 50.1024 109.991 50.3087 110.225 50.5281C110.873 51.0881 111.553 51.6098 112.262 52.0907C113.493 52.9329 114.773 53.7012 116.095 54.3917C116.831 54.7867 116.095 55.9028 115.445 55.5079L115.325 55.6624Z" fill="black"/>
<path d="M108.069 31.3647C111.594 30.4375 116.284 30.5062 118.971 33.2879C119.553 33.8889 118.646 34.799 118.064 34.198C117.24 33.4661 116.277 32.9092 115.233 32.561C114.188 32.2127 113.085 32.0803 111.988 32.1718C110.783 32.1674 109.581 32.3116 108.411 32.6011C108.248 32.6466 108.073 32.6252 107.925 32.5415C107.778 32.4577 107.669 32.3186 107.624 32.1546C107.578 31.9907 107.6 31.8153 107.683 31.6672C107.767 31.5191 107.905 31.4103 108.069 31.3647V31.3647Z" fill="black"/>
<path d="M124.225 36.293C125.308 35.962 126.449 35.8644 127.573 36.0064C128.697 36.1484 129.778 36.527 130.746 37.1172C131.538 37.7337 132.133 38.5694 132.457 39.5212C132.503 39.6852 132.481 39.8605 132.398 40.0086C132.314 40.1567 132.176 40.2656 132.012 40.3111C131.849 40.3567 131.674 40.3352 131.526 40.2515C131.379 40.1677 131.27 40.0286 131.225 39.8646C130.976 39.2505 130.578 38.7087 130.067 38.2887C129.555 37.8688 128.947 37.5841 128.298 37.4606C127.737 37.3314 127.162 37.2737 126.587 37.2889C126.319 37.2718 126.05 37.2718 125.782 37.2889H125.44H125.235C125.004 37.3181 124.775 37.364 124.55 37.4263C124.39 37.455 124.226 37.4227 124.088 37.3357C123.951 37.2488 123.851 37.1135 123.808 36.9564C123.765 36.7993 123.783 36.6318 123.857 36.4868C123.93 36.3418 124.056 36.2298 124.208 36.1728L124.225 36.293Z" fill="black"/>
<path d="M95.8654 102.506C95.8654 102.506 97.902 89.954 86.3666 83.9955C74.8312 78.037 58.5038 76.1825 51.8633 77.4017C45.2227 78.6208 39.0956 65.725 42.8437 58.3241C46.5919 50.9231 59.9585 39.1091 59.9585 39.1091L96.995 56.6756C96.995 56.6756 101.873 83.8238 95.8654 102.506Z" fill="#0500FF"/>
<path d="M96.6358 102.764C102.677 84.0985 97.8511 56.7957 97.7997 56.521L97.7141 56.0917L59.7878 38.0959L59.3599 38.4737C58.8123 38.9545 45.805 50.4938 42.0226 57.9462C39.4383 63.0977 41.2867 70.2239 44.3502 74.3451C46.558 77.2986 49.3134 78.7238 51.9662 78.243C58.5383 77.041 74.6604 78.9299 85.9219 84.751C96.7385 90.3489 95.0613 101.923 94.9757 102.369L96.6358 102.764ZM96.1908 57.2594C96.7214 60.4361 99.7508 80.2864 96.4647 96.5994C96.0249 93.749 94.9092 91.0462 93.2116 88.7184C91.514 86.3906 89.2841 84.5059 86.7094 83.2227C75.1226 77.2299 58.4871 75.3067 51.6583 76.5602C49.6901 76.9208 47.5163 75.7359 45.7193 73.3148C42.9296 69.5542 41.355 63.0118 43.5628 58.719C46.8146 52.2796 57.7852 42.1999 60.0786 40.1394L96.1908 57.2594Z" fill="black"/>
<path d="M132.593 26.2648C131.104 28.2396 112.501 30.0769 103.019 25.2517C103.019 25.2517 106.819 36.9455 94.9922 44.6899C94.9922 44.6899 100.127 56.4352 93.8114 65.9826C91.2784 69.8462 68.7722 79.8915 62.2002 73.2118C55.6281 66.5321 46.8997 62.7543 46.5232 50.8888C46.1466 39.0233 50.9045 24.8568 58.5035 19.5508C66.1025 14.2448 83.3541 14.7427 87.4616 9.35087C87.4616 9.35087 87.4618 3.18631 97.2515 1.21158C114.674 -2.32576 113.887 6.70646 113.887 6.70646C121.298 5.86506 139.679 16.9579 132.593 26.2648Z" fill="black"/>
<path d="M130.214 224.837L130.933 196.194C130.933 195.92 131.447 168.72 131.652 164.719C131.858 160.718 130.985 124.744 130.916 121.876L134.459 109.255L132.748 108.791L129.119 121.67V121.79C129.119 122.185 130.06 160.615 129.872 164.719C129.684 168.823 129.153 195.971 129.153 196.246L128.435 224.888L130.214 224.837Z" fill="black"/>
<path d="M87.1537 157.146H87.8041C103.002 156.854 125.457 153.18 125.696 153.145L125.422 151.428C125.2 151.428 102.848 155.12 87.7698 155.412C72.6916 155.704 47.2418 145.555 46.9851 145.452L46.3518 147.049C47.3958 147.41 71.8017 157.146 87.1537 157.146Z" fill="black"/>
<path d="M76.2344 142.568C78.0499 142.601 79.8634 142.434 81.6425 142.07L82.1732 141.949L88.7109 111.144L87.4959 111.315C83.1662 111.804 78.7904 111.7 74.4886 111.006C69.0781 109.879 63.7535 108.369 58.5546 106.49L57.6135 106.147L52.034 136.094L52.633 136.369C57.711 138.761 63.0378 140.581 68.5156 141.795C71.0583 142.297 73.6429 142.556 76.2344 142.568V142.568ZM80.7185 140.507C76.7658 141.071 72.745 140.931 68.8407 140.095C63.7198 138.966 58.734 137.29 53.968 135.098L58.9313 108.448C63.9142 110.225 69.0155 111.648 74.1976 112.706C78.2706 113.371 82.4113 113.516 86.5204 113.136L80.7185 140.507Z" fill="black"/>
<path d="M116.78 144.937C121.161 144.937 121.349 144.233 121.469 143.77L126.603 117.085C126.659 116.776 126.638 116.457 126.543 116.158C126.447 115.859 126.28 115.587 126.056 115.368C125.828 115.159 125.555 115.006 125.257 114.923C124.96 114.839 124.647 114.827 124.344 114.887C120.953 115.696 117.475 116.082 113.99 116.038C109.47 115.659 105.034 114.6 100.829 112.895L99.7847 112.466L96.0878 141.864L96.8239 142.052C102.252 143.429 107.78 144.371 113.357 144.869C114.692 144.903 115.855 144.937 116.78 144.937ZM119.877 142.98C117.748 143.312 115.584 143.358 113.442 143.117C108.247 142.664 103.097 141.797 98.039 140.524L101.274 114.853C105.354 116.433 109.645 117.399 114.007 117.72C117.642 117.778 121.27 117.38 124.807 116.535C124.833 116.523 124.862 116.517 124.892 116.517C124.921 116.517 124.951 116.523 124.978 116.535C124.993 116.565 125 116.597 125 116.63C125 116.663 124.993 116.695 124.978 116.724L119.877 142.98Z" fill="black"/>
<path d="M77.6382 128.727L84.9463 126.615L84.4842 124.898L77.45 126.924C69.7997 126.478 61.345 125.465 60.3352 124.52C58.6237 122.803 56.3989 120.348 56.3818 120.331L55.081 121.447C55.081 121.55 57.306 124.04 59.1715 125.774C61.037 127.508 73.6848 128.418 77.5014 128.642L77.6382 128.727Z" fill="black"/>
<path d="M115.12 131.183C118.183 131.183 120.613 131.063 120.802 131.063H121.093L124.516 128.229L123.437 126.89L120.357 129.38C115.739 129.596 111.112 129.481 106.511 129.036C101.702 128.367 100.058 122.889 100.041 122.837L98.3299 123.301C98.3299 123.576 100.281 129.912 106.22 130.736C109.174 131.077 112.147 131.226 115.12 131.183Z" fill="black"/>
<path d="M108.89 226.639L110.259 225.609C106.491 220.622 102.186 216.067 97.4227 212.026L96.3787 213.4C101.015 217.345 105.21 221.784 108.89 226.639Z" fill="black"/>
<path d="M73.616 211.271C73.616 211.271 82.1734 210.327 92.1855 210.327V208.609C82.1563 208.609 73.5133 209.554 73.3593 209.554L73.616 211.271Z" fill="black"/>
<path d="M99.853 225.832L101.103 224.648C101.103 224.648 95.1464 218.466 91.9117 215.203L90.6966 216.422C93.9313 219.668 99.8016 225.832 99.853 225.832Z" fill="black"/>
<path d="M83.077 218.245L88.3389 224.597L87.0226 225.694L81.7608 219.342L83.077 218.245Z" fill="black"/>
<path d="M113.682 225.592L115.239 224.905C112.779 220.175 109.432 215.965 105.381 212.507C100.692 208.764 92.5793 208.609 92.2371 208.609V210.327C92.3226 210.327 100.127 210.481 104.354 213.864C108.169 217.152 111.333 221.131 113.682 225.592Z" fill="black"/>
<path d="M7.84354 159.567C7.84354 159.567 14.3986 96.9771 20.0807 87.1207C25.7628 77.2642 37.1956 74.2077 45.4278 82.5359C53.66 90.8641 38.1881 120.468 36.5622 132.625C34.9363 144.783 33.7554 161.233 33.7554 161.233C35.2149 161.902 36.4063 163.047 37.1363 164.48C37.8664 165.914 38.0924 167.553 37.7775 169.132C36.6822 174.833 35.1589 176.79 35.1589 176.79L64.4766 205.982C60.6383 209.259 57.3199 213.104 54.6356 217.384C51.5378 223.085 50.0144 223.531 50.0144 223.531C50.0144 223.531 22.9218 210.807 13.9536 191.73C4.98549 172.652 7.84354 159.567 7.84354 159.567Z" fill="#D0D5DD"/>
<path d="M59.0684 225.643C66.0171 212.473 73.5819 211.271 73.6674 211.254L75.3789 211.03L74.215 209.811L41.6969 176.086C43.0204 174.028 44.03 171.782 44.6919 169.424C45.3252 166.419 41.8508 164.599 40.3618 163.963C40.8924 159.138 44.1786 129.105 44.1444 113.771C44.1444 96.5993 32.4721 90.9327 31.9758 90.7095L31.2569 92.2549C31.7018 92.4782 42.3987 97.8013 42.4329 113.771C42.4329 130.29 38.6163 164.083 38.582 164.427V165.114L39.2496 165.337C39.2496 165.337 43.5796 166.882 43.1004 169.063C42.3873 171.423 41.338 173.667 39.9854 175.726L39.5918 176.292L72.1099 209.966C69.3715 210.945 63.3471 214.207 57.7334 224.836L59.0684 225.643Z" fill="black"/>
<path d="M12.6707 181.272C12.7734 181.169 24.1548 171.879 29.409 170.42C32.4078 169.644 35.312 168.538 38.069 167.123L39.3184 166.419L38.1204 165.646C37.7097 165.389 28.0739 159.361 21.3307 163.225L22.1693 164.702C26.6705 162.143 33.0372 164.873 35.8611 166.316C33.6441 167.302 31.3556 168.117 29.0152 168.754C23.4187 170.317 12.1231 179.538 11.6439 179.933L12.6707 181.272Z" fill="black"/>
<path d="M47.6354 127.165L48.1318 105.254C48.3885 93.6973 36.0316 78.7581 35.5182 78.1399L34.2003 79.2389C34.3201 79.3934 46.6599 94.2983 46.4203 105.219L45.9239 127.13L47.6354 127.165Z" fill="black"/>
<path d="M48.6973 150.604C48.6973 150.604 72.6581 166.058 96.9098 165.131C121.161 164.204 123.9 167.792 121.983 169.372C120.066 170.952 86.2816 178.868 68.4993 171.69C50.717 164.513 48.6973 150.604 48.6973 150.604Z" fill="#D0D5DD"/>
<path d="M118.679 173.974L119.073 172.257C118.885 172.257 116.746 171.776 101.513 171.828H101.359C86.1784 171.828 66.0685 164.341 65.8631 164.272L65.2641 165.869C65.4695 165.869 85.8019 173.545 101.359 173.545H101.531C116.403 173.545 118.594 173.957 118.679 173.974Z" fill="black"/>
<path d="M53.0786 179.469C53.0786 179.469 72.0076 187.317 92.2887 182.715C112.57 178.113 118.303 182.715 111.491 187.763C104.68 192.812 81.5747 201.792 73.6164 199.457C65.658 197.122 49.4331 184.003 53.0786 179.469Z" fill="#D0D5DD"/>
<path d="M79.2644 195.062C81.4866 195.065 83.7042 194.858 85.8878 194.444C101.77 191.439 115.548 180.707 115.685 180.707L114.623 179.35C114.487 179.453 101.034 189.911 85.5283 192.847C70.0222 195.783 55.9539 186.562 55.7998 186.476L54.8758 187.919C62.2399 192.405 70.651 194.869 79.2644 195.062V195.062Z" fill="black"/>
<path d="M79.1445 209.983L80.856 209.777L79.2473 196.177C79.9661 194.46 84.2789 184.724 84.6554 181.409C84.7017 177.694 84.3345 173.985 83.5602 170.351L89.6701 162.006C92.032 158.795 87.9587 154.862 86.5039 153.695C87.2056 149.385 92.3572 117.892 96.1396 104.824C97.2079 100.921 99.217 97.341 101.99 94.4003C104.763 91.4596 108.214 89.2486 112.039 87.962L111.594 86.2449C107.47 87.5864 103.744 89.9395 100.756 93.091C97.767 96.2424 95.6097 100.093 94.4793 104.292C90.406 118.373 84.7753 153.506 84.7239 153.866V154.364L85.1347 154.691C85.1347 154.691 90.0808 158.589 88.3523 160.941L82.0199 169.527L81.7974 169.836V170.196C82.5496 173.782 82.928 177.436 82.9268 181.1C82.5674 184.397 77.6214 195.473 77.5701 195.576L77.4673 195.799L79.1445 209.983Z" fill="black"/>
<path d="M133.637 119.386L137.967 113.41L139.576 222.467L131.481 219.891L133.637 119.386Z" fill="#D0D5DD"/>
</svg>
