<svg width="54" height="54" viewBox="0 0 54 54" fill="none" xmlns="http://www.w3.org/2000/svg">
<path d="M46.2857 0H7.71429C3.45335 0 0 3.45335 0 7.71429V46.2857C0 50.5467 3.45335 54 7.71429 54H46.2857C50.5467 54 54 50.5467 54 46.2857V7.71429C54 3.45335 50.5406 0 46.2857 0ZM42.3804 34.8951L40.9797 40.9689C40.7829 41.8277 40.0275 42.4286 39.1428 42.4286C23.9432 42.4286 11.5763 30.0616 11.5763 14.85C11.5763 13.9667 12.177 13.2119 13.0359 13.0154L19.1085 11.6136C19.9937 11.4083 20.9021 11.8678 21.2697 12.7059L24.0746 19.2486C24.234 19.624 24.2674 20.0409 24.1698 20.4369C24.0722 20.8328 23.8488 21.1865 23.5332 21.4447L20.2862 24.1071C22.3341 28.2789 25.7271 31.6708 29.9013 33.7199L32.5555 30.4762C33.0791 29.8264 33.9838 29.6024 34.7541 29.9358L41.2919 32.7382C42.1272 33.0991 42.5853 34.0152 42.3804 34.8951Z" fill="#0500FF"/>
</svg>
