<svg width="695" height="88" viewBox="0 0 695 88" fill="none" xmlns="http://www.w3.org/2000/svg">
<g filter="url(#filter0_d_201_2660)">
<rect x="21.3169" y="6.5" width="652.683" height="45" rx="1.8" stroke="black" stroke-width="1.5"/>
<path d="M56.2283 34.1761C55.3836 34.1761 54.6564 33.9848 54.0465 33.6023C53.4405 33.2159 52.9746 32.6837 52.6488 32.0057C52.323 31.3277 52.1602 30.5511 52.1602 29.6761C52.1602 28.7898 52.3268 28.0076 52.6602 27.3295C52.9935 26.6477 53.4632 26.1155 54.0692 25.733C54.6753 25.3504 55.3893 25.1591 56.2113 25.1591C56.8742 25.1591 57.4651 25.2822 57.984 25.5284C58.503 25.7708 58.9215 26.1117 59.2397 26.5511C59.5617 26.9905 59.753 27.5038 59.8136 28.0909H58.1602C58.0692 27.6818 57.8609 27.3295 57.5352 27.0341C57.2132 26.7386 56.7814 26.5909 56.2397 26.5909C55.7662 26.5909 55.3514 26.7159 54.9954 26.9659C54.6431 27.2121 54.3685 27.5644 54.1715 28.0227C53.9746 28.4773 53.8761 29.0152 53.8761 29.6364C53.8761 30.2727 53.9727 30.822 54.1658 31.2841C54.359 31.7462 54.6317 32.1042 54.984 32.358C55.3401 32.6117 55.7586 32.7386 56.2397 32.7386C56.5617 32.7386 56.8533 32.6799 57.1147 32.5625C57.3799 32.4413 57.6014 32.2689 57.7795 32.0455C57.9613 31.822 58.0882 31.553 58.1602 31.2386H59.8136C59.753 31.803 59.5692 32.3068 59.2624 32.75C58.9556 33.1932 58.5446 33.5417 58.0295 33.7955C57.5181 34.0492 56.9177 34.1761 56.2283 34.1761ZM63.1532 28.8182V34H61.4543V22.3636H63.1305V26.6932H63.2384C63.443 26.2235 63.7555 25.8504 64.1759 25.5739C64.5964 25.2973 65.1456 25.1591 65.8236 25.1591C66.4221 25.1591 66.9449 25.2822 67.3918 25.5284C67.8426 25.7746 68.1911 26.142 68.4373 26.6307C68.6873 27.1155 68.8123 27.7216 68.8123 28.4489V34H67.1134V28.6534C67.1134 28.0133 66.9486 27.517 66.6191 27.1648C66.2896 26.8087 65.8312 26.6307 65.2441 26.6307C64.8426 26.6307 64.4827 26.7159 64.1646 26.8864C63.8502 27.0568 63.6021 27.3068 63.4202 27.6364C63.2422 27.9621 63.1532 28.3561 63.1532 28.8182ZM70.9033 34V25.2727H72.5454V26.6591H72.6363C72.7954 26.1894 73.0757 25.8201 73.4772 25.5511C73.8825 25.2784 74.3408 25.142 74.8522 25.142C74.9583 25.142 75.0833 25.1458 75.2272 25.1534C75.3749 25.161 75.4904 25.1705 75.5738 25.1818V26.8068C75.5056 26.7879 75.3844 26.767 75.2101 26.7443C75.0359 26.7178 74.8617 26.7045 74.6874 26.7045C74.2859 26.7045 73.9279 26.7898 73.6136 26.9602C73.3029 27.1269 73.0567 27.3598 72.8749 27.6591C72.6931 27.9545 72.6022 28.2917 72.6022 28.6705V34H70.9033ZM80.2316 34.1761C79.4134 34.1761 78.6994 33.9886 78.0895 33.6136C77.4797 33.2386 77.0062 32.714 76.6691 32.0398C76.332 31.3655 76.1634 30.5777 76.1634 29.6761C76.1634 28.7708 76.332 27.9792 76.6691 27.3011C77.0062 26.6231 77.4797 26.0966 78.0895 25.7216C78.6994 25.3466 79.4134 25.1591 80.2316 25.1591C81.0498 25.1591 81.7638 25.3466 82.3736 25.7216C82.9835 26.0966 83.457 26.6231 83.7941 27.3011C84.1312 27.9792 84.2998 28.7708 84.2998 29.6761C84.2998 30.5777 84.1312 31.3655 83.7941 32.0398C83.457 32.714 82.9835 33.2386 82.3736 33.6136C81.7638 33.9886 81.0498 34.1761 80.2316 34.1761ZM80.2373 32.75C80.7676 32.75 81.207 32.6098 81.5555 32.3295C81.9039 32.0492 82.1615 31.6761 82.3282 31.2102C82.4986 30.7443 82.5839 30.2311 82.5839 29.6705C82.5839 29.1136 82.4986 28.6023 82.3282 28.1364C82.1615 27.6667 81.9039 27.2898 81.5555 27.0057C81.207 26.7216 80.7676 26.5795 80.2373 26.5795C79.7032 26.5795 79.26 26.7216 78.9077 27.0057C78.5592 27.2898 78.2998 27.6667 78.1293 28.1364C77.9626 28.6023 77.8793 29.1136 77.8793 29.6705C77.8793 30.2311 77.9626 30.7443 78.1293 31.2102C78.2998 31.6761 78.5592 32.0492 78.9077 32.3295C79.26 32.6098 79.7032 32.75 80.2373 32.75ZM86.0201 34V25.2727H87.6508V26.6932H87.7587C87.9405 26.2121 88.2379 25.8371 88.6508 25.5682C89.0636 25.2955 89.558 25.1591 90.1337 25.1591C90.717 25.1591 91.2057 25.2955 91.5996 25.5682C91.9974 25.8409 92.2909 26.2159 92.4803 26.6932H92.5712C92.7795 26.2273 93.111 25.8561 93.5655 25.5795C94.0201 25.2992 94.5617 25.1591 95.1905 25.1591C95.9822 25.1591 96.628 25.4072 97.128 25.9034C97.6318 26.3996 97.8837 27.1477 97.8837 28.1477V34H96.1849V28.3068C96.1849 27.7159 96.0239 27.2879 95.7019 27.0227C95.3799 26.7576 94.9955 26.625 94.5485 26.625C93.9955 26.625 93.5655 26.7955 93.2587 27.1364C92.9519 27.4735 92.7985 27.9072 92.7985 28.4375V34H91.1053V28.1989C91.1053 27.7254 90.9576 27.3447 90.6621 27.0568C90.3667 26.7689 89.9822 26.625 89.5087 26.625C89.1867 26.625 88.8894 26.7102 88.6167 26.8807C88.3477 27.0473 88.1299 27.2803 87.9633 27.5795C87.8004 27.8788 87.7189 28.2254 87.7189 28.6193V34H86.0201ZM103.746 34.1761C102.886 34.1761 102.146 33.9924 101.524 33.625C100.907 33.2538 100.43 32.733 100.093 32.0625C99.7593 31.3883 99.5927 30.5985 99.5927 29.6932C99.5927 28.7992 99.7593 28.0114 100.093 27.3295C100.43 26.6477 100.899 26.1155 101.502 25.733C102.108 25.3504 102.816 25.1591 103.627 25.1591C104.119 25.1591 104.596 25.2405 105.059 25.4034C105.521 25.5663 105.935 25.822 106.303 26.1705C106.67 26.5189 106.96 26.9716 107.172 27.5284C107.384 28.0814 107.49 28.7538 107.49 29.5455V30.1477H100.553V28.875H105.826C105.826 28.428 105.735 28.0322 105.553 27.6875C105.371 27.339 105.115 27.0644 104.786 26.8636C104.46 26.6629 104.078 26.5625 103.638 26.5625C103.161 26.5625 102.744 26.6799 102.388 26.9148C102.036 27.1458 101.763 27.4489 101.57 27.8239C101.381 28.1951 101.286 28.5985 101.286 29.0341V30.0284C101.286 30.6117 101.388 31.108 101.593 31.517C101.801 31.9261 102.091 32.2386 102.462 32.4545C102.833 32.6667 103.267 32.7727 103.763 32.7727C104.085 32.7727 104.379 32.7273 104.644 32.6364C104.909 32.5417 105.138 32.4015 105.331 32.2159C105.524 32.0303 105.672 31.8011 105.774 31.5284L107.382 31.8182C107.254 32.2917 107.023 32.7064 106.689 33.0625C106.36 33.4148 105.945 33.6894 105.445 33.8864C104.949 34.0795 104.382 34.1761 103.746 34.1761ZM110.319 34.108C110.008 34.108 109.741 33.9981 109.518 33.7784C109.294 33.5549 109.182 33.286 109.182 32.9716C109.182 32.661 109.294 32.3958 109.518 32.1761C109.741 31.9527 110.008 31.8409 110.319 31.8409C110.629 31.8409 110.896 31.9527 111.12 32.1761C111.343 32.3958 111.455 32.661 111.455 32.9716C111.455 33.1799 111.402 33.3712 111.296 33.5455C111.194 33.7159 111.057 33.8523 110.887 33.9545C110.716 34.0568 110.527 34.108 110.319 34.108ZM110.319 27.7557C110.008 27.7557 109.741 27.6439 109.518 27.4205C109.294 27.197 109.182 26.9299 109.182 26.6193C109.182 26.3087 109.294 26.0436 109.518 25.8239C109.741 25.6004 110.008 25.4886 110.319 25.4886C110.629 25.4886 110.896 25.6004 111.12 25.8239C111.343 26.0436 111.455 26.3087 111.455 26.6193C111.455 26.8277 111.402 27.0189 111.296 27.1932C111.194 27.3636 111.057 27.5 110.887 27.6023C110.716 27.7045 110.527 27.7557 110.319 27.7557ZM117.986 21.8182L114.236 35.75H112.719L116.469 21.8182H117.986ZM123.685 21.8182L119.935 35.75H118.418L122.168 21.8182H123.685ZM128.714 34.1761C127.854 34.1761 127.114 33.9924 126.492 33.625C125.875 33.2538 125.398 32.733 125.061 32.0625C124.727 31.3883 124.561 30.5985 124.561 29.6932C124.561 28.7992 124.727 28.0114 125.061 27.3295C125.398 26.6477 125.867 26.1155 126.47 25.733C127.076 25.3504 127.784 25.1591 128.595 25.1591C129.087 25.1591 129.564 25.2405 130.026 25.4034C130.489 25.5663 130.903 25.822 131.271 26.1705C131.638 26.5189 131.928 26.9716 132.14 27.5284C132.352 28.0814 132.458 28.7538 132.458 29.5455V30.1477H125.521V28.875H130.793C130.793 28.428 130.703 28.0322 130.521 27.6875C130.339 27.339 130.083 27.0644 129.754 26.8636C129.428 26.6629 129.045 26.5625 128.606 26.5625C128.129 26.5625 127.712 26.6799 127.356 26.9148C127.004 27.1458 126.731 27.4489 126.538 27.8239C126.348 28.1951 126.254 28.5985 126.254 29.0341V30.0284C126.254 30.6117 126.356 31.108 126.561 31.517C126.769 31.9261 127.059 32.2386 127.43 32.4545C127.801 32.6667 128.235 32.7727 128.731 32.7727C129.053 32.7727 129.347 32.7273 129.612 32.6364C129.877 32.5417 130.106 32.4015 130.299 32.2159C130.492 32.0303 130.64 31.8011 130.742 31.5284L132.35 31.8182C132.222 32.2917 131.99 32.7064 131.657 33.0625C131.328 33.4148 130.913 33.6894 130.413 33.8864C129.917 34.0795 129.35 34.1761 128.714 34.1761ZM135.305 25.2727L137.231 28.6705L139.174 25.2727H141.032L138.311 29.6364L141.055 34H139.197L137.231 30.7386L135.271 34H133.407L136.123 29.6364L133.441 25.2727H135.305ZM146.674 25.2727V26.6364H141.907V25.2727H146.674ZM143.186 23.1818H144.885V31.4375C144.885 31.767 144.934 32.0152 145.032 32.1818C145.131 32.3447 145.258 32.4564 145.413 32.517C145.572 32.5739 145.745 32.6023 145.93 32.6023C146.066 32.6023 146.186 32.5928 146.288 32.5739C146.39 32.5549 146.47 32.5398 146.527 32.5284L146.834 33.9318C146.735 33.9697 146.595 34.0076 146.413 34.0455C146.231 34.0871 146.004 34.1098 145.731 34.1136C145.284 34.1212 144.868 34.0417 144.481 33.875C144.095 33.7083 143.782 33.4508 143.544 33.1023C143.305 32.7538 143.186 32.3163 143.186 31.7898V23.1818ZM152.045 34.1761C151.185 34.1761 150.445 33.9924 149.824 33.625C149.206 33.2538 148.729 32.733 148.392 32.0625C148.059 31.3883 147.892 30.5985 147.892 29.6932C147.892 28.7992 148.059 28.0114 148.392 27.3295C148.729 26.6477 149.199 26.1155 149.801 25.733C150.407 25.3504 151.115 25.1591 151.926 25.1591C152.418 25.1591 152.896 25.2405 153.358 25.4034C153.82 25.5663 154.235 25.822 154.602 26.1705C154.97 26.5189 155.259 26.9716 155.471 27.5284C155.684 28.0814 155.79 28.7538 155.79 29.5455V30.1477H148.852V28.875H154.125C154.125 28.428 154.034 28.0322 153.852 27.6875C153.67 27.339 153.415 27.0644 153.085 26.8636C152.759 26.6629 152.377 26.5625 151.937 26.5625C151.46 26.5625 151.043 26.6799 150.687 26.9148C150.335 27.1458 150.062 27.4489 149.869 27.8239C149.68 28.1951 149.585 28.5985 149.585 29.0341V30.0284C149.585 30.6117 149.687 31.108 149.892 31.517C150.1 31.9261 150.39 32.2386 150.761 32.4545C151.132 32.6667 151.566 32.7727 152.062 32.7727C152.384 32.7727 152.678 32.7273 152.943 32.6364C153.208 32.5417 153.437 32.4015 153.631 32.2159C153.824 32.0303 153.971 31.8011 154.074 31.5284L155.682 31.8182C155.553 32.2917 155.322 32.7064 154.988 33.0625C154.659 33.4148 154.244 33.6894 153.744 33.8864C153.248 34.0795 152.682 34.1761 152.045 34.1761ZM159.197 28.8182V34H157.499V25.2727H159.129V26.6932H159.237C159.438 26.2311 159.752 25.8598 160.18 25.5795C160.612 25.2992 161.156 25.1591 161.811 25.1591C162.406 25.1591 162.927 25.2841 163.374 25.5341C163.821 25.7803 164.167 26.1477 164.413 26.6364C164.66 27.125 164.783 27.7292 164.783 28.4489V34H163.084V28.6534C163.084 28.0208 162.919 27.5265 162.589 27.1705C162.26 26.8106 161.807 26.6307 161.232 26.6307C160.838 26.6307 160.487 26.7159 160.18 26.8864C159.877 27.0568 159.637 27.3068 159.459 27.6364C159.285 27.9621 159.197 28.3561 159.197 28.8182ZM173.425 27.4034L171.885 27.6761C171.821 27.4792 171.718 27.2917 171.578 27.1136C171.442 26.9356 171.256 26.7898 171.021 26.6761C170.787 26.5625 170.493 26.5057 170.141 26.5057C169.66 26.5057 169.258 26.6136 168.936 26.8295C168.614 27.0417 168.453 27.3163 168.453 27.6534C168.453 27.9451 168.561 28.1799 168.777 28.358C168.993 28.536 169.342 28.6818 169.823 28.7955L171.209 29.1136C172.012 29.2992 172.61 29.5852 173.004 29.9716C173.398 30.358 173.595 30.8598 173.595 31.4773C173.595 32 173.444 32.4659 173.141 32.875C172.842 33.2803 172.423 33.5985 171.885 33.8295C171.351 34.0606 170.732 34.1761 170.027 34.1761C169.05 34.1761 168.253 33.9678 167.635 33.5511C167.018 33.1307 166.639 32.5341 166.499 31.7614L168.141 31.5114C168.243 31.9394 168.453 32.2633 168.771 32.483C169.09 32.6989 169.504 32.8068 170.016 32.8068C170.573 32.8068 171.018 32.6913 171.351 32.4602C171.684 32.2254 171.851 31.9394 171.851 31.6023C171.851 31.3295 171.749 31.1004 171.544 30.9148C171.343 30.7292 171.035 30.589 170.618 30.4943L169.141 30.1705C168.326 29.9848 167.724 29.6894 167.334 29.2841C166.948 28.8788 166.754 28.3655 166.754 27.7443C166.754 27.2292 166.898 26.7784 167.186 26.392C167.474 26.0057 167.872 25.7045 168.379 25.4886C168.887 25.2689 169.468 25.1591 170.124 25.1591C171.067 25.1591 171.809 25.3636 172.351 25.7727C172.893 26.178 173.251 26.7216 173.425 27.4034ZM175.287 34V25.2727H176.986V34H175.287ZM176.145 23.9261C175.85 23.9261 175.596 23.8277 175.384 23.6307C175.175 23.4299 175.071 23.1913 175.071 22.9148C175.071 22.6345 175.175 22.3958 175.384 22.1989C175.596 21.9981 175.85 21.8977 176.145 21.8977C176.441 21.8977 176.693 21.9981 176.901 22.1989C177.113 22.3958 177.219 22.6345 177.219 22.9148C177.219 23.1913 177.113 23.4299 176.901 23.6307C176.693 23.8277 176.441 23.9261 176.145 23.9261ZM182.772 34.1761C181.954 34.1761 181.24 33.9886 180.63 33.6136C180.02 33.2386 179.546 32.714 179.209 32.0398C178.872 31.3655 178.704 30.5777 178.704 29.6761C178.704 28.7708 178.872 27.9792 179.209 27.3011C179.546 26.6231 180.02 26.0966 180.63 25.7216C181.24 25.3466 181.954 25.1591 182.772 25.1591C183.59 25.1591 184.304 25.3466 184.914 25.7216C185.524 26.0966 185.997 26.6231 186.334 27.3011C186.671 27.9792 186.84 28.7708 186.84 29.6761C186.84 30.5777 186.671 31.3655 186.334 32.0398C185.997 32.714 185.524 33.2386 184.914 33.6136C184.304 33.9886 183.59 34.1761 182.772 34.1761ZM182.777 32.75C183.308 32.75 183.747 32.6098 184.096 32.3295C184.444 32.0492 184.702 31.6761 184.868 31.2102C185.039 30.7443 185.124 30.2311 185.124 29.6705C185.124 29.1136 185.039 28.6023 184.868 28.1364C184.702 27.6667 184.444 27.2898 184.096 27.0057C183.747 26.7216 183.308 26.5795 182.777 26.5795C182.243 26.5795 181.8 26.7216 181.448 27.0057C181.099 27.2898 180.84 27.6667 180.669 28.1364C180.503 28.6023 180.419 29.1136 180.419 29.6705C180.419 30.2311 180.503 30.7443 180.669 31.2102C180.84 31.6761 181.099 32.0492 181.448 32.3295C181.8 32.6098 182.243 32.75 182.777 32.75ZM190.259 28.8182V34H188.56V25.2727H190.191V26.6932H190.299C190.5 26.2311 190.814 25.8598 191.242 25.5795C191.674 25.2992 192.217 25.1591 192.873 25.1591C193.467 25.1591 193.988 25.2841 194.435 25.5341C194.882 25.7803 195.229 26.1477 195.475 26.6364C195.721 27.125 195.844 27.7292 195.844 28.4489V34H194.145V28.6534C194.145 28.0208 193.981 27.5265 193.651 27.1705C193.322 26.8106 192.869 26.6307 192.293 26.6307C191.899 26.6307 191.549 26.7159 191.242 26.8864C190.939 27.0568 190.698 27.3068 190.52 27.6364C190.346 27.9621 190.259 28.3561 190.259 28.8182ZM204.486 27.4034L202.947 27.6761C202.882 27.4792 202.78 27.2917 202.64 27.1136C202.504 26.9356 202.318 26.7898 202.083 26.6761C201.848 26.5625 201.555 26.5057 201.202 26.5057C200.721 26.5057 200.32 26.6136 199.998 26.8295C199.676 27.0417 199.515 27.3163 199.515 27.6534C199.515 27.9451 199.623 28.1799 199.839 28.358C200.055 28.536 200.403 28.6818 200.884 28.7955L202.271 29.1136C203.074 29.2992 203.672 29.5852 204.066 29.9716C204.46 30.358 204.657 30.8598 204.657 31.4773C204.657 32 204.505 32.4659 204.202 32.875C203.903 33.2803 203.485 33.5985 202.947 33.8295C202.413 34.0606 201.793 34.1761 201.089 34.1761C200.111 34.1761 199.314 33.9678 198.697 33.5511C198.079 33.1307 197.7 32.5341 197.56 31.7614L199.202 31.5114C199.305 31.9394 199.515 32.2633 199.833 32.483C200.151 32.6989 200.566 32.8068 201.077 32.8068C201.634 32.8068 202.079 32.6913 202.413 32.4602C202.746 32.2254 202.913 31.9394 202.913 31.6023C202.913 31.3295 202.81 31.1004 202.606 30.9148C202.405 30.7292 202.096 30.589 201.68 30.4943L200.202 30.1705C199.388 29.9848 198.786 29.6894 198.396 29.2841C198.009 28.8788 197.816 28.3655 197.816 27.7443C197.816 27.2292 197.96 26.7784 198.248 26.392C198.536 26.0057 198.933 25.7045 199.441 25.4886C199.949 25.2689 200.53 25.1591 201.185 25.1591C202.129 25.1591 202.871 25.3636 203.413 25.7727C203.954 26.178 204.312 26.7216 204.486 27.4034Z" fill="black"/>
</g>
<defs>
<filter id="filter0_d_201_2660" x="0.566895" y="0.75" width="694.183" height="86.5" filterUnits="userSpaceOnUse" color-interpolation-filters="sRGB">
<feFlood flood-opacity="0" result="BackgroundImageFix"/>
<feColorMatrix in="SourceAlpha" type="matrix" values="0 0 0 0 0 0 0 0 0 0 0 0 0 0 0 0 0 0 127 0" result="hardAlpha"/>
<feOffset dy="15"/>
<feGaussianBlur stdDeviation="10"/>
<feComposite in2="hardAlpha" operator="out"/>
<feColorMatrix type="matrix" values="0 0 0 0 0.0196078 0 0 0 0 0 0 0 0 0 1 0 0 0 0.78 0"/>
<feBlend mode="normal" in2="BackgroundImageFix" result="effect1_dropShadow_201_2660"/>
<feBlend mode="normal" in="SourceGraphic" in2="effect1_dropShadow_201_2660" result="shape"/>
</filter>
</defs>
</svg>
