<svg width="282" height="229" viewBox="0 0 282 229" fill="none" xmlns="http://www.w3.org/2000/svg">
<g clip-path="url(#clip0_66_4952)">
<path d="M267.253 196.896C267.253 196.896 248.728 160.237 238.82 147.775C228.912 135.314 218.154 124.436 218.154 124.436C218.154 124.436 221.571 117.917 220.231 116.992C218.89 116.068 215.179 117.966 215.179 117.966C215.179 117.966 210.699 112.668 198.567 110.01C186.436 107.353 170.577 105.636 170.577 105.636L175.482 89.4277C175.482 89.4277 170.103 87.348 160.636 90.9298C151.17 94.5115 143.011 111.925 143.011 111.925C138.314 103.523 132.005 96.1499 124.454 90.2365C112.225 80.8448 99.717 88.586 99.717 88.586L99.2755 104.53C99.2755 104.53 79.3125 105.141 71.1704 106.693C63.0282 108.244 55.867 110.225 55.867 110.225C55.867 110.225 52.221 104.778 47.4305 107.155C42.6401 109.532 47.5123 116.844 47.5123 116.844C47.5123 116.844 39.5827 127.16 25.1459 150.763C20.7151 158.025 17.4615 169.876 15.0908 182.817" fill="white"/>
<path d="M266.223 197.425C266.026 197.061 247.633 160.733 237.921 148.502C228.21 136.271 217.435 125.394 217.321 125.295L216.716 124.684L217.124 123.925C218.179 122.063 218.94 120.048 219.381 117.95C218.091 118.039 216.835 118.411 215.702 119.039L214.884 119.468L214.296 118.759C214.296 118.759 209.849 113.708 198.322 111.199C186.387 108.574 170.609 106.858 170.528 106.841L169.122 106.693L174.141 90.3027C169.74 89.702 165.261 90.3122 161.176 92.0688C152.265 95.37 144.286 112.288 144.205 112.453L143.191 114.599L142.112 112.503C137.485 104.262 131.289 97.0257 123.882 91.2105C120.651 88.7089 116.776 87.197 112.718 86.8546C108.66 86.5122 104.59 87.3539 100.992 89.2794L100.535 105.653H99.439C99.2429 105.653 79.4761 106.264 71.5301 107.799C63.5841 109.334 56.3739 111.298 56.2921 111.314L55.491 111.546L55.0332 110.836C54.9024 110.654 51.8614 106.28 48.0846 108.162C47.7475 108.313 47.4496 108.54 47.2141 108.826C46.9787 109.113 46.8121 109.45 46.7276 109.812C46.1717 111.892 47.9047 115.144 48.6078 116.217L49.0819 116.91L48.5751 117.587C48.4933 117.686 40.4983 128.134 26.274 151.39C22.3828 157.762 19.0475 168.408 16.3661 183.048L14.0771 182.619C16.8076 167.764 20.2573 156.771 24.2957 150.169C36.6071 130.015 44.2915 119.419 46.2371 116.794C45.3869 115.325 43.7519 111.991 44.4876 109.202C44.6634 108.53 44.9848 107.906 45.4288 107.375C45.8727 106.844 46.4281 106.419 47.0546 106.132C51.0929 104.101 54.7062 106.775 56.4557 108.921C58.5157 108.36 64.5324 106.825 71.1704 105.62C78.2989 104.233 94.06 103.606 98.36 103.458L98.7851 87.9754L99.3246 87.6453C99.4554 87.6453 112.65 79.6566 125.37 89.4115C132.478 94.9712 138.513 101.802 143.175 109.565C145.66 104.795 152.51 92.9601 160.44 89.9561C170.25 86.2588 175.89 88.3055 176.119 88.4541L177.133 88.8502L172.228 104.745C176.381 105.24 188.987 106.808 198.943 108.987C208.9 111.166 213.904 115.111 215.555 116.662C216.994 116.035 219.561 115.144 221.016 116.134C221.539 116.497 223.092 117.57 219.708 124.387C222.111 126.846 231.349 136.469 239.867 147.165C249.677 159.594 267.661 195.031 268.413 196.484L266.223 197.425Z" fill="black"/>
<path d="M257.802 225.897L280.839 224.494C280.839 224.494 281.836 191.879 258.816 187.29C235.795 182.701 220.279 218.04 220.279 218.04L247.142 222.315L257.802 225.897Z" fill="#0500FF"/>
<path d="M257.655 227.069L246.783 223.438L218.596 218.965L219.217 217.562C219.871 216.093 235.354 181.381 259.029 186.201C282.703 191.02 282.016 224.263 281.918 224.593V225.666L257.655 227.069ZM221.996 217.165L247.322 221.193L257.949 224.742L279.613 223.471C279.515 217.908 277.978 192.407 258.522 188.528C239.066 184.649 225.152 210.728 221.996 217.132V217.165Z" fill="black"/>
<path d="M65.7093 192.968C65.7093 192.968 61.1477 190.938 55.4417 197.293C49.7356 203.647 45.2722 222.53 45.2722 222.53H2.68111C1.83092 219.641 -1.52076 198.564 5.75486 187.389C11.7084 178.167 19.3294 170.16 28.2194 163.786" fill="white"/>
<path d="M46.2038 223.702H1.81435L1.56911 222.86C0.767973 220.202 -2.89437 198.547 4.83905 186.745C10.8957 177.369 18.6636 169.242 27.7287 162.796L28.9876 164.776C20.2482 171.076 12.7467 178.962 6.8664 188.033C0.326515 198.118 2.74628 216.72 3.72726 221.358H44.5035C45.4845 217.446 49.5229 202.261 54.7057 196.5C60.9023 189.617 66.1505 191.796 66.314 191.895L65.3821 194.041C65.2349 194.041 61.4254 192.522 56.4224 198.068C50.978 204.126 46.6126 222.612 46.6126 222.827L46.2038 223.702Z" fill="black"/>
<path d="M249.824 221.226H78.4951V227.779H249.824V221.226Z" fill="black"/>
<path d="M60.8534 191.516C60.8534 191.516 54.0683 189.188 42.4436 186.333C30.819 183.477 37.3098 178.377 39.5334 176.429" fill="white"/>
<path d="M60.5273 192.621C60.5273 192.621 53.6604 190.294 42.2156 187.472C37.654 186.349 35.2016 184.732 34.6784 182.52C34.0244 179.648 37 177.123 38.5859 175.769L38.8312 175.571L40.3354 177.354L40.0901 177.568C38.962 178.526 36.6076 180.523 36.951 181.992C37.1145 182.685 38.0791 184.022 42.7551 185.177C54.3144 188.016 61.1976 190.36 61.2794 190.377L60.5273 192.621Z" fill="black"/>
<path d="M63.502 206.008L80.8817 177.816L78.5274 141.322" fill="white"/>
<path d="M64.4832 206.635L62.5049 205.397L79.6884 177.502L77.3668 141.404L79.6884 141.256L82.0591 178.113L64.4832 206.635Z" fill="black"/>
<path d="M76.8765 137.377C76.8765 137.377 66.2166 126.813 60.7557 125.625C55.9151 124.881 51.0158 124.599 46.1227 124.783L29.3643 150.846C36.5339 151.347 43.4493 153.731 49.4253 157.761C53.441 160.704 57.6468 163.373 62.0147 165.75L76.8765 137.377Z" fill="#0500FF"/>
<path d="M56.5537 168.49L55.491 167.846C49.8066 164.442 43.9205 161.394 37.866 158.719C28.8246 154.774 23.0694 156.87 23.0204 156.887L22.1865 154.691C22.4481 154.592 28.8082 152.215 38.7815 156.573C44.5566 159.117 50.1795 161.999 55.6217 165.205L74.7019 128.48C72.7726 125.988 63.8947 116.283 45.4686 121.218L44.8799 118.94C67.1646 112.998 76.9418 127.589 77.0399 127.737L77.4159 128.315L56.5537 168.49Z" fill="black"/>
<path d="M190.735 123.43C190.735 123.43 182.724 128.2 157.235 129.883C149.853 130.289 142.453 130.218 135.081 129.669C134.868 127.259 134.558 124.816 134.116 122.39C130.846 104.399 109.15 90.2531 105.946 92.5144C102.741 94.7757 104.131 108.624 104.131 108.624L68.5049 112.321C68.5049 112.321 79.3938 116.877 84.5766 120.756C87.9283 123.281 89.2363 132.59 89.4816 136.75C90.1519 177.601 86.5713 188.776 86.5713 188.776C86.5713 188.776 98.0161 191.317 104.834 193.727C111.652 196.137 116.867 207.229 116.867 207.229L192.681 201.237C192.681 201.237 199.483 178.361 201.33 166.757C203.178 155.154 190.735 123.43 190.735 123.43Z" fill="#D0D5DD"/>
<path d="M88.6374 167.666L79.9854 177.101L81.6891 178.693L90.3411 169.258L88.6374 167.666Z" fill="black"/>
<path d="M118.143 187.736C96.8882 187.736 85.5415 180.374 85.002 180.011L86.2936 178.047C86.4244 178.146 101.008 187.554 127.462 184.93L127.691 187.257C124.518 187.58 121.332 187.74 118.143 187.736Z" fill="black"/>
<path d="M62.9797 196.038C62.9797 196.038 76.6807 192.06 80.0978 192.539C83.5149 193.018 94.1423 198.943 100.028 207.889C105.914 216.835 104.083 227.564 104.083 227.564L95.4339 225.484L75.242 224.246L75.6671 226.144L68.2116 225.6L61.4755 217.347L49.3276 225.6L27.5498 224.362C27.5498 224.362 35.3486 203.152 46.5319 197.045C52.3526 193.653 58.5126 190.892 64.9089 188.809L62.9797 196.038Z" fill="#0500FF"/>
<path d="M105.014 229L95.204 226.623L76.7942 225.517L77.2193 227.416L67.6874 226.739L61.2947 218.882L49.7191 226.673L25.9629 225.336L26.5188 223.834C26.8458 222.959 34.6119 202.145 46.0567 195.89C51.9507 192.512 58.1819 189.774 64.6463 187.719L66.6083 187.191L64.6954 194.355C68.7338 193.232 77.4319 190.971 80.3094 191.367C84.1516 191.912 95.0241 197.969 101.041 207.229C107.058 216.489 105.341 227.3 105.275 227.762L105.014 229ZM73.7695 222.975L95.4983 224.312L103.036 226.112C103.609 220 102.215 213.865 99.0625 208.616C93.3238 199.901 82.9254 194.19 79.9497 193.76C77.5953 193.447 68.7175 195.659 63.3057 197.243L61.3274 197.821L63.2239 190.69C57.6635 192.691 52.2724 195.142 47.1031 198.019C38.1271 202.971 31.2439 218.354 29.2328 223.24L49.016 224.345L61.7198 215.812L68.7992 224.527L74.1946 224.923L73.7695 222.975Z" fill="black"/>
<path d="M88.1904 205.81C90.7278 207.851 92.606 210.609 93.5858 213.732C94.6158 218.255 95.4333 225.484 95.4333 225.484" fill="#0500FF"/>
<path d="M94.2725 225.616C94.2725 225.616 93.455 218.387 92.4577 214.062C91.5578 211.216 89.8528 208.697 87.5527 206.816L88.9588 204.951C91.723 207.144 93.7545 210.139 94.7793 213.534C95.8094 218.057 96.6105 225.088 96.6595 225.418L94.2725 225.616Z" fill="black"/>
<path d="M77.8242 204.951C81.5324 207.952 84.2564 212.014 85.6394 216.604C87.2744 223.52 86.4732 225.237 86.4732 225.237" fill="#0500FF"/>
<path d="M87.5042 225.748L85.4278 224.709C85.4278 224.709 85.9673 222.909 84.5122 216.885C83.1903 212.554 80.6169 208.72 77.1221 205.876L78.5445 204.01C82.4457 207.181 85.2973 211.476 86.7193 216.324C88.4197 223.141 87.7494 225.27 87.5042 225.748Z" fill="black"/>
<path d="M67.7529 207.51C70.4016 209.985 75.2574 224.246 75.2574 224.246L67.7529 207.51Z" fill="#31BAAE"/>
<path d="M74.1626 224.626C72.3151 219.212 68.7509 210.019 66.9688 208.384L68.6037 206.651C71.3832 209.243 75.8957 222.381 76.4025 223.867L74.1626 224.626Z" fill="black"/>
<path d="M270.947 119.864H135.343L114.219 221.226H249.823L270.947 119.864Z" fill="white"/>
<path d="M250.756 222.398H112.846L134.476 118.676H272.452L250.756 222.398ZM115.658 220.037H248.875L269.509 121.003H136.291L115.658 220.037Z" fill="black"/>
<path d="M182.594 22.2991C183.951 32.2025 186.125 44.0206 182.594 50.0451L182.217 52.7191C182.217 52.7191 183.509 58.166 179.471 70.3142C175.432 82.4624 175.743 83.5187 170.364 92.4483C164.985 101.378 154.554 105.521 145.839 103.243C137.125 100.965 118.045 86.3577 115.936 79.5573C113.827 72.757 114.481 46.8596 114.481 46.8596" fill="white"/>
<path d="M150.646 105.026C148.915 105.036 147.189 104.819 145.513 104.382C136.684 102.088 117.146 87.3318 114.775 79.9207C112.568 73.0214 113.255 47.9492 113.287 46.9093H115.609C115.609 47.1569 114.906 72.6252 116.999 79.1614C118.944 85.252 137.436 99.81 146.085 102.055C154.734 104.3 164.413 99.942 169.383 91.7882C172.504 86.9877 174.849 81.7173 176.332 76.1739C176.888 74.5233 177.542 72.3941 178.376 69.8852C182.218 58.3313 181.09 52.9834 181.073 52.9339V52.7193L181.629 49.4181C184.605 44.3509 183.166 34.299 181.891 25.4354L181.466 22.4479L183.771 22.1343L184.196 25.0888C185.504 34.2494 186.992 44.5985 183.738 50.4085L183.428 52.6698C183.64 53.8912 184.278 59.6021 180.616 70.661C179.782 73.1698 179.128 75.2 178.588 76.9331C177.035 82.6481 174.608 88.0834 171.394 93.0427C169.211 96.6387 166.166 99.6216 162.54 101.716C158.914 103.81 154.823 104.949 150.646 105.026Z" fill="black"/>
<path d="M113.173 67.8879C114.694 76.1407 124.749 60.3283 124.749 60.3283C124.749 60.3283 132.466 54.9309 127.577 42.0235C122.689 29.116 139.594 24.3459 139.594 24.3459C154.456 21.0447 167.225 34.8435 167.225 34.8435C167.225 34.8435 178.163 25.7159 183.804 27.2509L184.638 29.3966C186.077 7.46054 169.073 0.412627 148.848 0.0164906C128.624 -0.379646 111.996 5.19928 110.606 17.6611C109.217 30.1229 108.121 40.3729 113.173 67.8879Z" fill="black"/>
<path d="M169.661 50.9365C168.242 52.3239 167.139 54.007 166.431 55.8685C165.722 57.73 165.424 59.7251 165.557 61.7148C165.982 68.5977 169.677 70.4629 168.696 73.83C167.715 77.1972 163.628 78.6496 159.491 74.4077" fill="white"/>
<path d="M164.592 78.2205C163.457 78.1596 162.346 77.8646 161.328 77.3536C160.31 76.8426 159.407 76.1266 158.674 75.2495L160.309 73.5989C160.897 74.3667 161.67 74.9698 162.554 75.3511C163.439 75.7325 164.405 75.8793 165.361 75.7777C165.892 75.6306 166.374 75.3436 166.759 74.9462C167.144 74.5489 167.418 74.0555 167.552 73.5164C167.895 72.3775 167.552 71.4862 166.669 69.7696C165.347 67.3091 164.567 64.5899 164.38 61.7973C164.235 59.6269 164.564 57.4509 165.344 55.4231C166.124 53.3952 167.335 51.565 168.892 50.0618L170.397 51.8444C169.118 53.1235 168.133 54.6705 167.511 56.376C166.89 58.0816 166.647 59.904 166.8 61.7148C166.966 64.1964 167.663 66.6121 168.843 68.7957C169.372 69.5857 169.737 70.4754 169.917 71.4114C170.097 72.3473 170.088 73.3104 169.89 74.2427C169.639 75.1762 169.149 76.0265 168.468 76.7075C167.788 77.3886 166.942 77.8763 166.015 78.1215C165.547 78.2139 165.069 78.2471 164.592 78.2205Z" fill="black"/>
<path d="M144.875 47.4537C144.875 47.4537 154.145 44.1526 159.492 47.4537H144.875Z" fill="white"/>
<path d="M145.643 49.6655L144.09 45.242C145.153 44.8624 154.603 41.6768 160.718 45.4566L158.281 49.4675C154.668 47.2227 147.932 48.8568 145.643 49.6655Z" fill="black"/>
<path d="M171.083 49.6491C171.083 49.6491 173.601 45.4567 182.528 47.1073L171.083 49.6491Z" fill="white"/>
<path d="M173.029 50.9364L169.089 48.5101C169.432 47.9324 172.751 42.9807 183.003 44.8623L182.169 49.484C175.122 48.1305 173.111 50.8209 173.029 50.9364Z" fill="black"/>
<path d="M142.472 55.9873C142.472 55.9873 153.361 53.1814 157.186 55.9873H142.472Z" fill="white"/>
<path d="M142.749 57.1262L142.177 54.8485C143.354 54.5514 153.72 52.0095 157.807 55.0466L156.434 56.9282C153.72 54.9145 145.643 56.3835 142.749 57.1262Z" fill="black"/>
<path d="M171.083 58.0009C171.083 58.0009 175.988 55.1949 180.288 56.2017L171.083 58.0009Z" fill="white"/>
<path d="M171.705 59.0244L170.561 56.9777C170.773 56.8621 175.858 53.9736 180.599 55.0629L180.076 57.3407C176.185 56.4659 171.705 58.9913 171.705 59.0244Z" fill="black"/>
<path d="M153.018 61.4837C154.246 61.4837 155.241 60.4787 155.241 59.2389C155.241 57.9992 154.246 56.9941 153.018 56.9941C151.789 56.9941 150.794 57.9992 150.794 59.2389C150.794 60.4787 151.789 61.4837 153.018 61.4837Z" fill="black"/>
<path d="M178.076 60.4319C178.299 59.3429 177.749 58.3072 176.847 58.1186C175.945 57.9301 175.033 58.6601 174.81 59.7491C174.586 60.8381 175.136 61.8738 176.038 62.0623C176.94 62.2509 177.852 61.5209 178.076 60.4319Z" fill="black"/>
<path d="M121.2 47.4538C133.07 45.9848 132.089 73.5823 141.196 78.6661C150.303 83.7498 158.739 74.4901 162.761 80.3167C162.761 80.3167 167.666 75.9426 172.113 79.8379C172.113 79.8379 175.988 81.0429 177.525 76.3058C179.062 71.5686 176.937 86.4402 176.462 97.9777C175.988 109.515 149.453 118.824 141.196 108.739C132.94 98.6544 110.606 97.1855 114.366 61.4507C123.898 66.6665 121.478 61.4836 121.2 47.4538Z" fill="black"/>
<path d="M110.704 36.56C104.066 37.1542 107.254 60.4768 115.331 62.7876L121.282 50.0617C122.77 42.5516 117.358 35.9658 110.704 36.56Z" fill="white"/>
<path d="M115.952 64.1905L115.02 63.9265C108.595 62.0778 105.374 49.715 106.044 42.337C106.584 36.6095 109.134 35.5201 110.606 35.3881C112.273 35.2489 113.949 35.5064 115.499 36.1399C117.049 36.7734 118.431 37.7654 119.533 39.0359C120.846 40.5543 121.791 42.3604 122.293 44.3114C122.795 46.2623 122.841 48.3044 122.426 50.2762L122.345 50.5568L115.952 64.1905ZM111.538 37.7814H110.818C109.543 37.8969 108.644 39.6961 108.366 42.6176C107.744 49.3684 110.671 59.0077 114.742 61.3185L120.17 49.7646C120.488 48.1691 120.439 46.5214 120.028 44.9478C119.617 43.3743 118.855 41.9166 117.8 40.6864C117.027 39.767 116.068 39.0249 114.988 38.5097C113.908 37.9945 112.732 37.718 111.538 37.6989V37.7814Z" fill="black"/>
</g>
<defs>
<clipPath id="clip0_66_4952">
<rect width="282" height="229" fill="white"/>
</clipPath>
</defs>
</svg>
