<svg width="775" height="506" viewBox="0 0 775 506" fill="none" xmlns="http://www.w3.org/2000/svg">
<g clip-path="url(#clip0_45_668)">
<path d="M449.71 204.94H308.603V0H449.71V204.94ZM310.319 203.223H447.993V1.71684H310.319V203.223Z" fill="black"/>
<path d="M740.337 183.308H541.372V56.8621H740.337V183.308ZM543.089 181.591H738.62V58.5789H543.089V181.591Z" fill="black"/>
<path d="M549.218 347.163C544.892 332.158 539.775 330.973 514.349 352.073C435.7 417.313 431.7 469.213 431.7 469.213L468.938 494.159L511.327 462.26L551.055 403.887" fill="white"/>
<path d="M468.973 495.154L430.807 469.642V469.144C430.807 468.612 435.752 416.162 513.765 351.403C529.646 338.235 537.457 333.926 542.556 335.488C546.333 336.655 548.273 340.913 550.007 346.939L548.291 347.403C546.436 340.913 544.599 337.943 541.99 337.102C537.595 335.745 529.972 340.106 514.812 352.691C441.434 413.587 433.211 463.307 432.524 468.749L468.835 493.025L510.692 461.539L550.351 403.355L551.759 404.333L511.945 462.706L511.842 462.792L468.973 495.154Z" fill="black"/>
<path d="M457.504 467.822C481.54 454.98 492.648 466.964 492.648 466.964C497.799 465.779 507.172 463.032 513.954 475.548C513.954 475.548 513.542 492.219 508.271 492.459C507.07 492.459 494.245 503.292 492.82 503.344C470.501 504.202 433.074 504.322 430.636 497.3C426.275 484.716 429.76 468.852 434.962 454.053" fill="white"/>
<path d="M472.406 504.666C452.611 504.666 431.82 503.293 429.863 497.627C426.103 486.794 427.477 472.87 434.189 453.813L435.803 454.397C429.331 472.801 427.906 486.759 431.477 497.06C433.194 501.816 456.629 503.928 492.82 502.537C495.492 500.832 498.061 498.969 500.511 496.957C506.297 492.528 507.516 491.687 508.237 491.652C511.276 491.515 512.89 482.381 513.096 475.806C506.898 464.543 498.811 466.398 493.455 467.651L492.356 467.908L492.013 467.548C491.584 467.067 481.042 456.217 457.916 468.595L457.109 467.067C479.428 455.169 490.76 464.011 492.906 466.02H493.077C498.228 464.835 507.876 462.586 514.709 475.257L514.812 475.445V475.686C514.812 477.403 514.212 493.163 508.306 493.421C507.756 493.627 504.168 496.374 501.558 498.365C495.618 502.949 493.764 504.271 492.974 504.306C486.794 504.46 479.703 504.666 472.406 504.666Z" fill="black"/>
<path d="M482.193 461.11C474.633 451.861 464.143 445.471 452.457 442.997L482.193 461.11Z" fill="white"/>
<path d="M481.506 461.539C474.024 452.484 463.703 446.222 452.216 443.769L452.577 442.053C464.51 444.522 475.222 451.043 482.896 460.509L481.506 461.539Z" fill="black"/>
<path d="M667.234 304.259L555.897 296.859L476.991 503.309L682.325 503.859L740.904 349.549L726.568 346.871L667.234 304.259Z" fill="white"/>
<path d="M682.908 504.7L475.754 504.151L555.313 295.949L667.543 303.4L667.731 303.538L726.911 346.047L742.071 348.879L741.71 349.841L682.908 504.7ZM478.209 502.434L681.689 502.983L739.702 350.184L725.967 347.557L666.839 305.083L556.377 297.735L478.209 502.434Z" fill="black"/>
<path d="M621.016 365.104C621.016 365.104 621.514 351.695 608.758 320.792C594.422 286.06 587.847 281.751 587.847 281.751C591.435 273.716 615.11 262.351 633.961 267.673C652.812 272.995 646.889 258.625 677.964 276.137C709.039 293.649 724.49 319.951 719.597 328.003C719.597 328.003 685.724 343.455 667.439 346.648C645.996 350.425 632.45 355.644 621.016 365.104Z" fill="white"/>
<path d="M620.106 366.992V365.087C620.106 364.949 620.416 351.352 607.9 321.118C593.976 287.417 587.298 282.506 587.298 282.455L586.731 282.06L587.006 281.408C590.645 273.253 614.733 261.372 634.116 266.849C638.597 268.376 643.44 268.49 647.988 267.175C653.619 265.784 658.942 264.462 678.308 275.381C703.03 289.305 717.589 308.311 720.662 320.019C721.589 323.453 721.452 326.44 720.267 328.398L720.113 328.621L719.872 328.741C719.546 328.895 685.69 344.193 667.508 347.437C645.893 351.249 632.571 356.537 621.497 365.722L620.106 366.992ZM588.929 281.545C590.851 283.382 597.513 291.262 609.531 320.466C619.832 345.257 621.549 358.769 621.823 363.387C632.863 354.682 646.202 349.549 667.268 345.841C684.437 342.819 715.82 328.792 718.962 327.367C719.795 325.154 719.795 322.714 718.962 320.5C715.889 308.723 700.626 289.957 677.432 276.892C658.667 266.299 653.654 267.536 648.366 268.84C643.53 270.237 638.383 270.117 633.618 268.497C615.557 263.364 593.238 273.871 588.929 281.545Z" fill="black"/>
<path d="M585.392 489.231L583.675 488.682C584.19 487.171 634.373 336.965 627.712 312.328C621.05 287.691 610.646 280.017 610.543 279.931L611.556 278.541C612.003 278.867 622.544 286.713 629.36 311.882C636.176 337.05 587.469 483.017 585.392 489.231Z" fill="black"/>
<path d="M617.463 274.248L613.789 281.751C613.789 281.751 626.545 297.718 628.262 310.8C629.27 318.951 629.015 327.209 627.506 335.282L658.409 315.865L677.93 273.201" fill="white"/>
<path d="M626.253 337.085L626.682 335.093C628.145 327.113 628.388 318.956 627.403 310.903C625.686 298.233 613.239 282.438 613.119 282.283L612.775 281.854L616.69 273.871L618.235 274.626L614.801 281.648C616.896 284.343 627.54 298.576 629.137 310.68C630.04 318.274 629.901 325.957 628.725 333.514L657.774 315.264L677.191 272.841L678.754 273.562L659.13 316.483L626.253 337.085Z" fill="black"/>
<path d="M732.543 212.27C731.066 227.19 730.087 245.216 722.774 252.736L721.263 256.496C721.263 256.496 721.263 264.909 710.962 281.201C700.661 297.494 700.781 299.263 689.759 310.268C678.737 321.273 661.912 323.711 649.894 317.324C637.876 310.937 614.99 282.798 614.183 272.119C613.376 261.441 623.557 224.048 623.557 224.048" fill="white"/>
<path d="M664.384 321.651C659.173 321.694 654.032 320.456 649.413 318.045C637.395 311.641 614.115 283.588 613.239 272.137C612.432 261.441 622.235 225.25 622.647 223.705L624.364 224.168C624.261 224.529 614.218 261.595 615.007 272.017C615.763 282.043 637.841 309.907 650.271 316.517C662.392 322.973 678.805 320.088 689.261 309.65C697.948 301.066 699.562 298.267 705.159 289.185C706.584 286.85 708.249 284.035 710.309 280.738C720.284 264.857 720.404 256.582 720.404 256.496V256.187L722.121 252.136C728.508 245.577 729.95 230.212 731.22 216.666C731.358 215.155 731.512 213.644 731.65 212.185L733.367 212.356C733.212 213.816 733.075 215.309 732.937 216.837C731.65 230.572 730.173 246.144 723.46 253.2L722.087 256.634C722.087 257.956 721.28 266.368 711.786 281.614C709.691 284.962 708.026 287.691 706.635 290.026C701.176 298.988 699.322 302.044 690.497 310.817C683.552 317.716 674.173 321.607 664.384 321.651Z" fill="black"/>
<path d="M614.218 254.058C613.531 266.746 633.944 247.191 633.944 247.191C633.944 247.191 647.215 242.04 644.554 221.438C641.893 200.836 668.487 199.909 668.487 199.909C691.527 200.373 705.468 225.061 705.468 225.061C705.468 225.061 724.817 215.618 732.577 219.91L733.075 223.344C742.912 191.84 720.336 175.513 690.686 167.735C661.036 159.958 634.562 162.173 628.141 179.873C621.72 197.574 616.467 212.133 614.218 254.058Z" fill="black"/>
<path d="M703.408 249.44C700.826 250.956 698.607 253.018 696.907 255.483C695.208 257.948 694.068 260.755 693.57 263.707C691.853 273.905 696.54 277.94 693.896 282.592C691.252 287.245 684.746 287.743 680.162 280.155" fill="white"/>
<path d="M688.317 286.764C686.359 286.764 682.668 285.923 679.423 280.515L680.9 279.639C682.995 283.073 685.621 285.047 688.317 285.047C689.31 285.025 690.279 284.738 691.124 284.216C691.969 283.694 692.66 282.955 693.124 282.077C694.24 280.154 693.811 278.249 693.227 275.639C692.175 271.72 691.994 267.618 692.695 263.621C693.207 260.536 694.396 257.602 696.177 255.031C697.958 252.461 700.287 250.317 702.996 248.753L703.785 250.281C701.328 251.744 699.216 253.721 697.595 256.077C695.973 258.433 694.882 261.112 694.394 263.93C693.738 267.723 693.92 271.614 694.926 275.33C695.545 278.111 696.077 280.48 694.635 283.004C694.012 284.135 693.105 285.083 692.002 285.755C690.9 286.427 689.641 286.798 688.351 286.833L688.317 286.764Z" fill="black"/>
<path d="M662.495 242.573C662.495 242.573 680.556 243.534 689.741 249.148L662.495 242.573Z" fill="white"/>
<path d="M688.849 250.608C680.144 245.285 662.581 244.29 662.41 244.29L662.598 240.856C663.354 240.856 681.192 241.903 690.634 247.723L688.849 250.608Z" fill="black"/>
<path d="M705.948 248.084C705.948 248.084 711.099 242.847 723.803 248.444L705.948 248.084Z" fill="white"/>
<path d="M723.1 250.024C711.855 245.045 707.219 249.251 707.167 249.286L704.729 246.865C704.97 246.624 710.91 240.873 724.49 246.865L723.1 250.024Z" fill="black"/>
<path d="M661.568 247.14C661.568 247.14 678.599 246.934 683.149 252.29L661.568 247.14Z" fill="white"/>
<path d="M682.514 252.908C678.273 247.861 661.774 247.998 661.603 247.998V246.281C662.306 246.281 679.08 246.126 683.921 251.792L682.514 252.908Z" fill="black"/>
<path d="M703.013 260.256C703.013 260.256 711.133 257.904 717.211 260.909L703.013 260.256Z" fill="white"/>
<path d="M716.851 261.681C711.168 258.849 703.356 261.063 703.287 261.08L702.807 259.364C703.15 259.261 711.391 256.943 717.623 260.067L716.851 261.681Z" fill="black"/>
<path d="M670.616 255.226C672.484 255.226 673.998 253.712 673.998 251.844C673.998 249.976 672.484 248.461 670.616 248.461C668.748 248.461 667.234 249.976 667.234 251.844C667.234 253.712 668.748 255.226 670.616 255.226Z" fill="black"/>
<path d="M709.454 263.134C709.881 261.521 709.135 259.924 707.787 259.567C706.44 259.211 705.001 260.229 704.574 261.842C704.147 263.456 704.893 265.053 706.24 265.409C707.588 265.766 709.026 264.748 709.454 263.134Z" fill="black"/>
<path d="M633.257 227.121C651.233 229.198 640.125 269.115 651.696 279.794C663.268 290.473 679.011 279.931 682.891 289.906C682.891 289.906 691.647 285.271 696.832 292.533C696.832 292.533 702.12 295.692 706.034 289.322C709.948 282.953 701.605 303.881 696.832 320.552C692.059 337.222 649.687 341.36 641.086 323.693C632.485 306.027 600.105 296.035 618.218 245.217C630.459 256.05 628.708 247.706 633.257 227.121Z" fill="black"/>
<path d="M621.635 207.446C611.626 205.952 608.123 241.113 619.197 247.345L632.451 230.898C637.275 220.528 631.644 208.974 621.635 207.446Z" fill="white"/>
<path d="M619.403 248.513L618.767 248.152C610.647 243.586 610.029 224.906 613.617 214.571C615.54 208.957 618.424 206.141 621.789 206.639C624.157 207.004 626.406 207.922 628.354 209.318C630.302 210.714 631.893 212.549 633 214.674C634.324 217.239 635.037 220.076 635.081 222.962C635.126 225.848 634.502 228.705 633.258 231.31L633.155 231.482L619.403 248.513ZM621.119 208.304C617.978 208.304 615.969 213.009 615.299 215.172C611.728 225.576 612.879 241.869 619.094 246.315L631.798 230.538C632.908 228.187 633.462 225.612 633.417 223.013C633.372 220.415 632.73 217.861 631.541 215.55C630.56 213.658 629.147 212.024 627.417 210.78C625.687 209.536 623.688 208.718 621.583 208.39L621.119 208.304Z" fill="black"/>
<path d="M658.392 503.001H0V504.717H658.392V503.001Z" fill="black"/>
<path d="M498.812 474.037C475.772 474.037 457.092 487.051 457.092 503.12H540.531C540.48 487.051 521.8 474.037 498.812 474.037Z" fill="white"/>
<path d="M541.337 503.979H456.182V503.121C456.182 486.605 475.273 473.179 498.76 473.179C522.246 473.179 541.337 486.605 541.337 503.121V503.979ZM457.916 502.262H539.603C538.951 487.102 520.873 474.896 498.76 474.896C476.647 474.896 458.569 487.102 457.916 502.262Z" fill="black"/>
<path d="M456.749 488.579C456.646 487.438 456.835 486.29 457.297 485.242C457.76 484.194 458.481 483.28 459.393 482.587C461.142 481.391 463.089 480.513 465.144 479.995C465.144 479.995 464.818 473.419 470.054 471.05C471.276 470.518 472.594 470.244 473.926 470.244C475.258 470.244 476.576 470.518 477.797 471.05C477.797 471.05 479.978 465.247 485.815 464.663C491.652 464.08 494.159 465.779 494.159 465.779C496.921 464.25 500.081 463.592 503.224 463.891C509.061 464.183 514.04 468.269 516.667 474.844C519.294 481.42 518.847 488.733 517.388 491.068C515.928 493.403 510.28 492.699 509.353 491.068C508.651 489.862 507.765 488.773 506.726 487.841C506.373 488.84 505.72 489.706 504.857 490.32C503.993 490.935 502.962 491.268 501.902 491.274C499.55 491.049 497.317 490.135 495.481 488.648C495.319 489.661 494.831 490.593 494.09 491.303C493.349 492.013 492.397 492.461 491.378 492.579C487.738 493.026 482.33 489.678 482.33 489.678C482.33 489.678 483.051 493.764 479.84 494.931C476.63 496.099 467.72 490.553 464.063 491.498" fill="white"/>
<path d="M478.776 495.876C476.328 495.61 473.936 494.967 471.685 493.97C468.938 492.957 465.814 491.824 464.268 492.253L463.856 490.536C465.917 490.038 469.007 491.172 472.286 492.373C475.067 493.403 478.209 494.554 479.548 494.09C482.038 493.18 481.506 489.918 481.488 489.781L481.162 487.91L482.776 488.905C482.776 488.905 487.926 492.099 491.274 491.687C492.122 491.616 492.921 491.263 493.544 490.684C494.166 490.105 494.576 489.333 494.708 488.493L494.931 486.965L496.116 487.961C497.809 489.321 499.861 490.162 502.022 490.382C502.888 490.362 503.729 490.085 504.438 489.587C505.147 489.089 505.692 488.392 506.005 487.583L506.451 486.433L507.378 487.24C508.489 488.232 509.439 489.39 510.194 490.674C511.122 491.439 512.308 491.82 513.508 491.738C514.097 491.831 514.7 491.779 515.265 491.588C515.83 491.397 516.34 491.071 516.752 490.639C518.091 488.493 518.469 481.42 515.945 475.188C513.422 468.956 508.7 465.024 503.258 464.767C500.29 464.479 497.303 465.076 494.674 466.483L494.193 466.81L493.712 466.483C493.712 466.483 491.326 464.973 485.935 465.505C484.32 465.763 482.799 466.434 481.52 467.454C480.242 468.474 479.249 469.808 478.638 471.325L478.295 472.2L477.454 471.806C476.346 471.337 475.155 471.096 473.951 471.096C472.748 471.096 471.557 471.337 470.449 471.806C465.814 473.917 466.037 479.875 466.037 479.943V480.665L465.316 480.819C463.368 481.326 461.522 482.163 459.856 483.291C459.077 483.89 458.462 484.676 458.069 485.577C457.675 486.478 457.517 487.463 457.607 488.442L455.89 488.631C455.752 487.324 455.956 486.003 456.483 484.799C457.01 483.595 457.841 482.549 458.895 481.763C460.552 480.658 462.362 479.801 464.268 479.222C464.268 477.351 464.99 472.355 469.677 470.157C472.099 469.094 474.833 468.984 477.334 469.848C478.105 468.207 479.277 466.786 480.741 465.715C482.205 464.644 483.914 463.958 485.712 463.719C488.553 463.272 491.462 463.61 494.124 464.698C496.946 463.293 500.102 462.699 503.241 462.981C509.37 463.29 514.692 467.582 517.439 474.467C520.031 480.956 519.877 488.631 518.109 491.463C517.553 492.166 516.823 492.711 515.992 493.045C515.161 493.379 514.257 493.491 513.37 493.369C511.499 493.369 509.301 492.7 508.597 491.429C508.111 490.628 507.535 489.885 506.88 489.214C506.361 490.109 505.607 490.843 504.698 491.337C503.79 491.83 502.763 492.064 501.73 492.013C499.614 491.848 497.577 491.132 495.824 489.935C495.467 490.863 494.862 491.673 494.074 492.279C493.287 492.885 492.348 493.262 491.36 493.369C488.596 493.73 485.025 492.133 483.102 491.12C483.1 492.105 482.802 493.066 482.249 493.88C481.695 494.694 480.91 495.323 479.995 495.687C479.6 495.81 479.189 495.874 478.776 495.876Z" fill="black"/>
<path d="M494.159 465.78C494.159 465.78 501.473 470.02 506.726 487.841L494.159 465.78Z" fill="white"/>
<path d="M505.902 488.099C500.752 470.93 493.799 466.569 493.73 466.535L494.588 465.041C494.897 465.23 502.263 469.66 507.55 487.601L505.902 488.099Z" fill="black"/>
<path d="M495.481 488.579C495.481 488.579 488.459 476.167 477.797 471.05L495.481 488.579Z" fill="white"/>
<path d="M494.726 489.008C494.726 488.871 487.721 476.75 477.42 471.84L478.175 470.295C488.957 475.445 495.927 487.652 496.219 488.167L494.726 489.008Z" fill="black"/>
<path d="M465.144 479.995C465.144 479.995 469.9 478.501 482.312 489.609L465.144 479.995Z" fill="white"/>
<path d="M481.763 490.245C470.072 479.806 465.419 480.819 465.385 480.819L464.887 479.102C465.419 478.931 470.466 477.763 482.896 488.871L481.763 490.245Z" fill="black"/>
<path d="M348.485 82.8376H270.454V84.5545H348.485V82.8376Z" fill="black"/>
<path d="M704.695 75.627H563.228V77.3439H704.695V75.627Z" fill="black"/>
<path d="M664.538 108.144H563.228V109.861H664.538V108.144Z" fill="black"/>
<path d="M428.695 18.4045H323.058V20.1213H428.695V18.4045Z" fill="black"/>
<path d="M348.485 112.213H270.454V113.93H348.485V112.213Z" fill="black"/>
<path d="M348.485 138.515H270.454V140.231H348.485V138.515Z" fill="black"/>
<path d="M704.695 124.763C701.578 124.763 698.531 123.839 695.939 122.107C693.347 120.375 691.327 117.914 690.134 115.034C688.941 112.154 688.629 108.985 689.237 105.928C689.846 102.871 691.346 100.062 693.551 97.8581C695.755 95.654 698.563 94.1529 701.62 93.5448C704.678 92.9367 707.847 93.2488 710.726 94.4417C713.606 95.6345 716.068 97.6546 717.8 100.246C719.531 102.838 720.456 105.885 720.456 109.003C720.451 113.181 718.789 117.187 715.835 120.142C712.88 123.097 708.874 124.759 704.695 124.763ZM704.695 94.9588C701.918 94.9588 699.202 95.7825 696.893 97.3256C694.583 98.8688 692.783 101.062 691.72 103.628C690.657 106.194 690.379 109.018 690.921 111.742C691.463 114.467 692.801 116.969 694.765 118.933C696.729 120.897 699.231 122.235 701.955 122.777C704.68 123.318 707.503 123.04 710.069 121.977C712.636 120.914 714.829 119.114 716.372 116.805C717.915 114.495 718.739 111.78 718.739 109.003C718.734 105.279 717.253 101.71 714.621 99.0771C711.988 96.4444 708.419 94.9633 704.695 94.9588Z" fill="black"/>
<path d="M683.166 432.198L703.545 503.121H773.901L742.723 375.113L740.903 349.549" fill="white"/>
<path d="M775 503.979H702.892L702.721 503.361L682.342 432.438L683.99 431.958L704.197 502.262H772.802L741.899 375.319L740.045 349.601L741.762 349.481L743.582 375.062L775 503.979Z" fill="black"/>
<path d="M708.627 438.774L610.921 461.11L634.202 503.31L756.029 503.121" fill="white"/>
<path d="M633.704 504.151L609.617 460.543L708.438 437.95L708.816 439.615L612.226 461.711L634.717 502.434L756.012 502.263L756.029 503.979L633.704 504.151Z" fill="black"/>
<path d="M516.014 504.22L634.202 503.31L610.921 461.11H568.223L516.014 504.22Z" fill="white"/>
<path d="M513.61 505.078L567.914 460.251H611.419L635.661 504.134L513.61 505.078ZM568.549 461.968L518.452 503.327L632.776 502.451L610.458 461.968H568.549Z" fill="black"/>
<path d="M600.105 148.129H179.839C177.562 148.129 175.379 149.034 173.769 150.644C172.159 152.253 171.255 154.437 171.255 156.713V441.709C171.255 443.838 175.101 445.555 179.839 445.555H600.105C604.861 445.555 608.689 443.838 608.689 441.709V156.713C608.689 154.437 607.785 152.253 606.175 150.644C604.565 149.034 602.382 148.129 600.105 148.129Z" fill="#D0D5DD"/>
<path d="M454.414 487.394C446.654 479.737 442.035 467.204 442.035 453.83V313.684C442.036 313.385 441.976 313.089 441.861 312.813C441.746 312.537 441.578 312.286 441.365 312.076C441.153 311.865 440.901 311.698 440.624 311.586C440.347 311.473 440.051 311.416 439.752 311.418H340.175C339.574 311.418 338.998 311.657 338.573 312.082C338.148 312.507 337.909 313.083 337.909 313.684V453.83C337.909 467.204 333.29 479.737 325.53 487.394L313.341 499.412H466.552L454.414 487.394Z" fill="white"/>
<path d="M468.698 500.271H311.298L325.033 486.776C332.638 479.291 337.171 466.964 337.171 453.83V313.684C337.171 312.855 337.5 312.061 338.086 311.475C338.672 310.889 339.467 310.56 340.295 310.56H439.872C440.703 310.559 441.499 310.888 442.088 311.474C442.676 312.059 443.009 312.854 443.014 313.684V453.83C443.014 466.964 447.547 479.291 455.135 486.776L468.698 500.271ZM315.47 498.554H464.475L453.779 487.995C445.864 480.184 441.143 467.393 441.143 453.83V313.684C441.138 313.309 440.986 312.951 440.719 312.688C440.453 312.424 440.093 312.276 439.718 312.276H340.141C339.767 312.276 339.409 312.425 339.145 312.689C338.881 312.953 338.733 313.311 338.733 313.684V453.83C338.733 467.41 334.012 480.184 326.097 487.995L315.47 498.554Z" fill="black"/>
<path d="M466.604 499.429H313.393V503.309H466.604V499.429Z" fill="#D0D5DD"/>
<path d="M321.136 499.429L321.101 503.309H313.393V499.429H321.136Z" fill="#D0D5DD"/>
<path d="M324.809 499.429L324.775 503.309H321.101L321.135 499.429H324.809Z" fill="#D0D5DD"/>
<path d="M328.466 499.429L328.449 503.309H324.775L324.809 499.429H328.466Z" fill="#D0D5DD"/>
<path d="M332.14 499.429L332.106 503.309H328.449L328.466 499.429H332.14Z" fill="#D0D5DD"/>
<path d="M335.814 499.429L335.78 503.309H332.106L332.14 499.429H335.814Z" fill="#D0D5DD"/>
<path d="M339.471 499.429L339.454 503.309H335.78L335.815 499.429H339.471Z" fill="#D0D5DD"/>
<path d="M343.145 499.429L343.111 503.309H339.454L339.471 499.429H343.145Z" fill="#D0D5DD"/>
<path d="M346.82 499.429L346.785 503.309H343.111L343.146 499.429H346.82Z" fill="#D0D5DD"/>
<path d="M350.476 499.429L350.459 503.309H346.785L346.819 499.429H350.476Z" fill="#D0D5DD"/>
<path d="M354.15 499.429L354.133 503.309H350.459L350.476 499.429H354.15Z" fill="#D0D5DD"/>
<path d="M357.825 499.429L357.79 503.309H354.133L354.15 499.429H357.825Z" fill="#D0D5DD"/>
<path d="M361.498 499.429L361.464 503.309H357.79L357.824 499.429H361.498Z" fill="#D0D5DD"/>
<path d="M365.156 499.429L365.138 503.309H361.464L361.499 499.429H365.156Z" fill="#D0D5DD"/>
<path d="M368.829 499.429L368.795 503.309H365.138L365.155 499.429H368.829Z" fill="#D0D5DD"/>
<path d="M372.503 499.429L372.469 503.309H368.795L368.829 499.429H372.503Z" fill="#D0D5DD"/>
<path d="M376.16 499.429L376.143 503.309H372.469L372.503 499.429H376.16Z" fill="#D0D5DD"/>
<path d="M379.834 499.429L379.8 503.309H376.143L376.16 499.429H379.834Z" fill="#D0D5DD"/>
<path d="M383.508 499.429L383.474 503.309H379.8L379.834 499.429H383.508Z" fill="#D0D5DD"/>
<path d="M387.165 499.429L387.148 503.309H383.474L383.508 499.429H387.165Z" fill="#D0D5DD"/>
<path d="M390.839 499.429L390.822 503.309H387.148L387.165 499.429H390.839Z" fill="#D0D5DD"/>
<path d="M394.513 499.429L394.479 503.309H390.822L390.839 499.429H394.513Z" fill="#D0D5DD"/>
<path d="M398.187 499.429L398.153 503.309H394.479L394.513 499.429H398.187Z" fill="#D0D5DD"/>
<path d="M401.845 499.429L401.827 503.309H398.153L398.188 499.429H401.845Z" fill="#D0D5DD"/>
<path d="M405.518 499.429L405.484 503.309H401.827L401.844 499.429H405.518Z" fill="#D0D5DD"/>
<path d="M409.192 499.429L409.158 503.309H405.484L405.518 499.429H409.192Z" fill="#D0D5DD"/>
<path d="M412.849 499.429L412.832 503.309H409.158L409.193 499.429H412.849Z" fill="#D0D5DD"/>
<path d="M416.523 499.429L416.489 503.309H412.832L412.849 499.429H416.523Z" fill="#D0D5DD"/>
<path d="M420.198 499.429L420.163 503.309H416.489L416.524 499.429H420.198Z" fill="#D0D5DD"/>
<path d="M423.854 499.429L423.837 503.309H420.163L420.197 499.429H423.854Z" fill="#D0D5DD"/>
<path d="M427.529 499.429L427.511 503.309H423.837L423.855 499.429H427.529Z" fill="#D0D5DD"/>
<path d="M431.202 499.429L431.168 503.309H427.511L427.528 499.429H431.202Z" fill="#D0D5DD"/>
<path d="M434.859 499.429L434.842 503.309H431.168L431.202 499.429H434.859Z" fill="#D0D5DD"/>
<path d="M434.842 503.309L434.859 499.429H466.603V503.309H434.842Z" fill="#D0D5DD"/>
<path d="M570.37 478.372L531.793 503.607L532.733 505.043L571.31 479.809L570.37 478.372Z" fill="black"/>
<path d="M584.125 490.74L561.94 503.022L562.772 504.524L584.957 492.242L584.125 490.74Z" fill="black"/>
<rect x="321" y="30" width="115" height="38" fill="#0500FF"/>
<rect x="563" y="122" width="115" height="19" fill="#0500FF"/>
</g>
<defs>
<clipPath id="clip0_45_668">
<rect width="775" height="505.095" fill="white"/>
</clipPath>
</defs>
</svg>
