<svg width="213" height="91" viewBox="0 0 213 91" fill="none" xmlns="http://www.w3.org/2000/svg">
<line x1="46" y1="26.5" x2="52" y2="26.5" stroke="url(#paint0_linear_166_2453)" stroke-width="3"/>
<path d="M46 35H52" stroke="url(#paint1_linear_166_2453)" stroke-width="3"/>
<mask id="path-3-inside-1_166_2453" fill="white">
<path d="M53.5 39.149C56.0196 39.149 58.4359 38.2535 60.2175 36.6595C61.9991 35.0654 63 32.9034 63 30.649C63 28.3947 61.9991 26.2327 60.2175 24.6386C58.4359 23.0446 56.0196 22.149 53.5 22.149L53.5 30.649L53.5 39.149Z"/>
</mask>
<path d="M53.5 39.149C56.0196 39.149 58.4359 38.2535 60.2175 36.6595C61.9991 35.0654 63 32.9034 63 30.649C63 28.3947 61.9991 26.2327 60.2175 24.6386C58.4359 23.0446 56.0196 22.149 53.5 22.149L53.5 30.649L53.5 39.149Z" fill="url(#paint2_linear_166_2453)" stroke="url(#paint3_linear_166_2453)" stroke-width="2" mask="url(#path-3-inside-1_166_2453)"/>
<path d="M64 30.4439C75 32.9511 94 10.386 106.5 37.4641C119 64.5423 138 35.4583 138 35.4583" stroke="url(#paint4_linear_166_2453)" stroke-width="3"/>
<path d="M31.744 48.632H15.252L12.4 65H1.178L9.052 20.36H40.176L38.44 30.032H18.476L16.926 38.96H33.418L31.744 48.632Z" fill="url(#paint5_linear_166_2453)"/>
<path d="M55.9549 59.148C55.9549 59.8067 56.2842 60.136 56.9429 60.136C57.6269 60.136 58.1969 60.0093 58.6529 59.756L58.4629 64.05C57.2469 65.038 55.8789 65.532 54.3589 65.532C51.5722 65.532 50.0269 64.5187 49.7229 62.492C48.4562 64.5187 46.5942 65.532 44.1369 65.532C39.9822 65.532 37.9049 63.746 37.9049 60.174C37.9049 59.566 37.9682 58.8947 38.0949 58.16L38.8929 53.714C39.2982 51.434 40.2229 49.6227 41.6669 48.28C43.1362 46.912 45.0362 46.228 47.3669 46.228C49.7229 46.228 51.3189 46.7727 52.1549 47.862L52.3449 46.722H58.1209L55.9929 58.692C55.9675 58.844 55.9549 58.996 55.9549 59.148ZM44.7069 57.324C44.6562 57.552 44.6309 57.8687 44.6309 58.274C44.6309 58.6793 44.8209 59.0847 45.2009 59.49C45.5809 59.87 46.2142 60.06 47.1009 60.06C48.0129 60.06 48.7982 59.7053 49.4569 58.996L50.5969 52.612C50.3182 51.9787 49.6595 51.662 48.6209 51.662C46.6702 51.662 45.5302 52.5993 45.2009 54.474L44.7069 57.324ZM79.1943 60.136C79.7769 60.136 80.2963 60.0093 80.7523 59.756L80.5623 64.05C79.3716 65.038 77.9149 65.532 76.1923 65.532C74.4696 65.532 73.1903 65.076 72.3543 64.164C71.5436 63.252 70.9103 61.7193 70.4543 59.566L70.3403 59.034C69.8083 59.11 69.0103 59.1733 67.9463 59.224L66.9203 65H60.4603L65.5523 36.158H72.0123L69.8083 48.66C71.3029 47.0133 73.3296 46.19 75.8883 46.19C77.6109 46.19 78.8776 46.6207 79.6882 47.482C80.5243 48.318 80.9423 49.4453 80.9423 50.864C80.9423 53.6 79.5109 55.7407 76.6483 57.286L77.0663 58.692C77.3449 59.6547 78.0543 60.136 79.1943 60.136ZM72.6203 51.358C71.2523 51.358 70.0363 52.004 68.9723 53.296L68.5543 55.804C72.3036 55.652 74.1783 54.6513 74.1783 52.802C74.1783 52.3713 74.0389 52.0293 73.7603 51.776C73.5069 51.4973 73.1269 51.358 72.6203 51.358ZM91.9836 65.532C89.045 65.532 86.9296 64.8733 85.6376 63.556C84.675 62.5933 84.1936 61.3013 84.1936 59.68C84.1936 59.148 84.2443 58.578 84.3456 57.97L86.9296 43.264L93.8836 40.376L92.7816 46.722H103.27L102.32 52.08H91.8316L91.0716 56.374C90.9703 56.8553 90.9196 57.286 90.9196 57.666C90.9196 59.262 91.6796 60.06 93.1996 60.06C94.0103 60.06 94.6816 59.718 95.2136 59.034C95.771 58.35 96.151 57.438 96.3536 56.298H102.662C101.598 62.454 98.0383 65.532 91.9836 65.532ZM111.965 56.83C111.889 57.286 111.851 57.742 111.851 58.198C111.851 59.414 112.535 60.022 113.903 60.022C115.018 60.022 115.942 59.6293 116.677 58.844L118.805 46.722H125.265L121.921 65.608C121.364 68.8253 120.084 71.3713 118.083 73.246C116.107 75.1207 113.84 76.058 111.281 76.058C108.722 76.058 106.873 75.5893 105.733 74.652C104.618 73.7147 104.061 72.486 104.061 70.966C104.061 68.8127 105.391 66.9 108.051 65.228C106.607 64.8733 105.695 64.1513 105.315 63.062C105.087 62.454 104.973 61.77 104.973 61.01C104.973 60.25 105.036 59.4773 105.163 58.692L107.291 46.722H113.751L111.965 56.83ZM112.155 70.624C113.802 70.624 114.878 69.1293 115.385 66.14L115.765 63.936C112.244 65.5827 110.483 67.242 110.483 68.914C110.483 69.4207 110.622 69.826 110.901 70.13C111.205 70.4593 111.623 70.624 112.155 70.624ZM134.055 65.532C128.786 65.532 126.151 63.708 126.151 60.06C126.151 59.5533 126.202 59.0087 126.303 58.426L127.101 53.714C127.506 51.282 128.608 49.42 130.407 48.128C132.231 46.836 134.536 46.1773 137.323 46.152C142.719 46.152 145.417 48.0267 145.417 51.776C145.417 52.5867 145.316 53.3213 145.113 53.98C144.936 54.6133 144.746 55.044 144.543 55.272L144.239 55.652H137.779C138.412 55.0947 138.729 54.436 138.729 53.676C138.729 52.308 138.045 51.624 136.677 51.624C135.866 51.624 135.17 51.8647 134.587 52.346C134.004 52.8273 133.624 53.562 133.447 54.55L132.953 57.324C132.902 57.5773 132.877 57.818 132.877 58.046C132.877 59.3887 133.713 60.06 135.385 60.06C135.942 60.06 136.436 59.8827 136.867 59.528C137.323 59.1733 137.589 58.7807 137.665 58.35L143.973 58.426C143.137 63.1633 139.831 65.532 134.055 65.532ZM163.27 65H146.208L147.158 59.68L157.874 52.042H148.488L149.438 46.722H166.5L165.55 52.042L155.176 59.68H164.22L163.27 65ZM186.032 60.136C186.615 60.136 187.134 60.0093 187.59 59.756L187.4 64.05C186.209 65.038 184.753 65.532 183.03 65.532C181.307 65.532 180.028 65.076 179.192 64.164C178.381 63.252 177.748 61.7193 177.292 59.566L177.178 59.034C176.646 59.11 175.848 59.1733 174.784 59.224L173.758 65H167.298L172.39 36.158H178.85L176.646 48.66C178.141 47.0133 180.167 46.19 182.726 46.19C184.449 46.19 185.715 46.6207 186.526 47.482C187.362 48.318 187.78 49.4453 187.78 50.864C187.78 53.6 186.349 55.7407 183.486 57.286L183.904 58.692C184.183 59.6547 184.892 60.136 186.032 60.136ZM179.458 51.358C178.09 51.358 176.874 52.004 175.81 53.296L175.392 55.804C179.141 55.652 181.016 54.6513 181.016 52.802C181.016 52.3713 180.877 52.0293 180.598 51.776C180.345 51.4973 179.965 51.358 179.458 51.358ZM208.252 59.148C208.252 59.8067 208.581 60.136 209.24 60.136C209.924 60.136 210.494 60.0093 210.95 59.756L210.76 64.05C209.544 65.038 208.176 65.532 206.656 65.532C203.869 65.532 202.324 64.5187 202.02 62.492C200.753 64.5187 198.891 65.532 196.434 65.532C192.279 65.532 190.202 63.746 190.202 60.174C190.202 59.566 190.265 58.8947 190.392 58.16L191.19 53.714C191.595 51.434 192.52 49.6227 193.964 48.28C195.433 46.912 197.333 46.228 199.664 46.228C202.02 46.228 203.616 46.7727 204.452 47.862L204.642 46.722H210.418L208.29 58.692C208.264 58.844 208.252 58.996 208.252 59.148ZM197.004 57.324C196.953 57.552 196.928 57.8687 196.928 58.274C196.928 58.6793 197.118 59.0847 197.498 59.49C197.878 59.87 198.511 60.06 199.398 60.06C200.31 60.06 201.095 59.7053 201.754 58.996L202.894 52.612C202.615 51.9787 201.956 51.662 200.918 51.662C198.967 51.662 197.827 52.5993 197.498 54.474L197.004 57.324Z" fill="#03009D"/>
<path d="M31.744 48.632H15.252L12.4 65H1.178L9.052 20.36H40.176L38.44 30.032H18.476L16.926 38.96H33.418L31.744 48.632Z" fill="url(#paint6_linear_166_2453)"/>
<path d="M55.7869 59.148C55.7869 59.8067 56.1162 60.136 56.7749 60.136C57.4589 60.136 58.0289 60.0093 58.4849 59.756L58.2949 64.05C57.0789 65.038 55.7109 65.532 54.1909 65.532C51.4042 65.532 49.8589 64.5187 49.5549 62.492C48.2882 64.5187 46.4262 65.532 43.9689 65.532C39.8142 65.532 37.7369 63.746 37.7369 60.174C37.7369 59.566 37.8002 58.8947 37.9269 58.16L38.7249 53.714C39.1302 51.434 40.0549 49.6227 41.4989 48.28C42.9682 46.912 44.8682 46.228 47.1989 46.228C49.5549 46.228 51.1509 46.7727 51.9869 47.862L52.1769 46.722H57.9529L55.8249 58.692C55.7996 58.844 55.7869 58.996 55.7869 59.148ZM44.5389 57.324C44.4882 57.552 44.4629 57.8687 44.4629 58.274C44.4629 58.6793 44.6529 59.0847 45.0329 59.49C45.4129 59.87 46.0462 60.06 46.9329 60.06C47.8449 60.06 48.6302 59.7053 49.2889 58.996L50.4289 52.612C50.1502 51.9787 49.4916 51.662 48.4529 51.662C46.5022 51.662 45.3622 52.5993 45.0329 54.474L44.5389 57.324ZM79.0263 60.136C79.6089 60.136 80.1283 60.0093 80.5843 59.756L80.3943 64.05C79.2036 65.038 77.7469 65.532 76.0243 65.532C74.3016 65.532 73.0223 65.076 72.1863 64.164C71.3756 63.252 70.7423 61.7193 70.2863 59.566L70.1723 59.034C69.6403 59.11 68.8423 59.1733 67.7783 59.224L66.7523 65H60.2923L65.3843 36.158H71.8443L69.6403 48.66C71.1349 47.0133 73.1616 46.19 75.7203 46.19C77.4429 46.19 78.7096 46.6207 79.5203 47.482C80.3563 48.318 80.7743 49.4453 80.7743 50.864C80.7743 53.6 79.3429 55.7407 76.4803 57.286L76.8983 58.692C77.1769 59.6547 77.8863 60.136 79.0263 60.136ZM72.4523 51.358C71.0843 51.358 69.8683 52.004 68.8043 53.296L68.3863 55.804C72.1356 55.652 74.0103 54.6513 74.0103 52.802C74.0103 52.3713 73.8709 52.0293 73.5923 51.776C73.3389 51.4973 72.9589 51.358 72.4523 51.358ZM91.8157 65.532C88.877 65.532 86.7617 64.8733 85.4697 63.556C84.507 62.5933 84.0257 61.3013 84.0257 59.68C84.0257 59.148 84.0763 58.578 84.1777 57.97L86.7617 43.264L93.7157 40.376L92.6137 46.722H103.102L102.152 52.08H91.6637L90.9037 56.374C90.8023 56.8553 90.7517 57.286 90.7517 57.666C90.7517 59.262 91.5117 60.06 93.0317 60.06C93.8423 60.06 94.5137 59.718 95.0457 59.034C95.603 58.35 95.983 57.438 96.1857 56.298H102.494C101.43 62.454 97.8703 65.532 91.8157 65.532ZM111.797 56.83C111.721 57.286 111.683 57.742 111.683 58.198C111.683 59.414 112.367 60.022 113.735 60.022C114.85 60.022 115.774 59.6293 116.509 58.844L118.637 46.722H125.097L121.753 65.608C121.196 68.8253 119.916 71.3713 117.915 73.246C115.939 75.1207 113.672 76.058 111.113 76.058C108.554 76.058 106.705 75.5893 105.565 74.652C104.45 73.7147 103.893 72.486 103.893 70.966C103.893 68.8127 105.223 66.9 107.883 65.228C106.439 64.8733 105.527 64.1513 105.147 63.062C104.919 62.454 104.805 61.77 104.805 61.01C104.805 60.25 104.868 59.4773 104.995 58.692L107.123 46.722H113.583L111.797 56.83ZM111.987 70.624C113.634 70.624 114.71 69.1293 115.217 66.14L115.597 63.936C112.076 65.5827 110.315 67.242 110.315 68.914C110.315 69.4207 110.454 69.826 110.733 70.13C111.037 70.4593 111.455 70.624 111.987 70.624ZM133.887 65.532C128.618 65.532 125.983 63.708 125.983 60.06C125.983 59.5533 126.034 59.0087 126.135 58.426L126.933 53.714C127.338 51.282 128.44 49.42 130.239 48.128C132.063 46.836 134.368 46.1773 137.155 46.152C142.551 46.152 145.249 48.0267 145.249 51.776C145.249 52.5867 145.148 53.3213 144.945 53.98C144.768 54.6133 144.578 55.044 144.375 55.272L144.071 55.652H137.611C138.244 55.0947 138.561 54.436 138.561 53.676C138.561 52.308 137.877 51.624 136.509 51.624C135.698 51.624 135.002 51.8647 134.419 52.346C133.836 52.8273 133.456 53.562 133.279 54.55L132.785 57.324C132.734 57.5773 132.709 57.818 132.709 58.046C132.709 59.3887 133.545 60.06 135.217 60.06C135.774 60.06 136.268 59.8827 136.699 59.528C137.155 59.1733 137.421 58.7807 137.497 58.35L143.805 58.426C142.969 63.1633 139.663 65.532 133.887 65.532ZM163.102 65H146.04L146.99 59.68L157.706 52.042H148.32L149.27 46.722H166.332L165.382 52.042L155.008 59.68H164.052L163.102 65ZM185.864 60.136C186.447 60.136 186.966 60.0093 187.422 59.756L187.232 64.05C186.042 65.038 184.585 65.532 182.862 65.532C181.14 65.532 179.86 65.076 179.024 64.164C178.214 63.252 177.58 61.7193 177.124 59.566L177.01 59.034C176.478 59.11 175.68 59.1733 174.616 59.224L173.59 65H167.13L172.222 36.158H178.682L176.478 48.66C177.973 47.0133 180 46.19 182.558 46.19C184.281 46.19 185.548 46.6207 186.358 47.482C187.194 48.318 187.612 49.4453 187.612 50.864C187.612 53.6 186.181 55.7407 183.318 57.286L183.736 58.692C184.015 59.6547 184.724 60.136 185.864 60.136ZM179.29 51.358C177.922 51.358 176.706 52.004 175.642 53.296L175.224 55.804C178.974 55.652 180.848 54.6513 180.848 52.802C180.848 52.3713 180.709 52.0293 180.43 51.776C180.177 51.4973 179.797 51.358 179.29 51.358ZM208.084 59.148C208.084 59.8067 208.413 60.136 209.072 60.136C209.756 60.136 210.326 60.0093 210.782 59.756L210.592 64.05C209.376 65.038 208.008 65.532 206.488 65.532C203.701 65.532 202.156 64.5187 201.852 62.492C200.585 64.5187 198.723 65.532 196.266 65.532C192.111 65.532 190.034 63.746 190.034 60.174C190.034 59.566 190.097 58.8947 190.224 58.16L191.022 53.714C191.427 51.434 192.352 49.6227 193.796 48.28C195.265 46.912 197.165 46.228 199.496 46.228C201.852 46.228 203.448 46.7727 204.284 47.862L204.474 46.722H210.25L208.122 58.692C208.096 58.844 208.084 58.996 208.084 59.148ZM196.836 57.324C196.785 57.552 196.76 57.8687 196.76 58.274C196.76 58.6793 196.95 59.0847 197.33 59.49C197.71 59.87 198.343 60.06 199.23 60.06C200.142 60.06 200.927 59.7053 201.586 58.996L202.726 52.612C202.447 51.9787 201.788 51.662 200.75 51.662C198.799 51.662 197.659 52.5993 197.33 54.474L196.836 57.324Z" fill="#03009D"/>
<defs>
<linearGradient id="paint0_linear_166_2453" x1="49" y1="28" x2="49" y2="29" gradientUnits="userSpaceOnUse">
<stop stop-color="#9997FF" stop-opacity="0.96"/>
<stop offset="1" stop-color="#0500FF"/>
</linearGradient>
<linearGradient id="paint1_linear_166_2453" x1="50" y1="37" x2="50" y2="38" gradientUnits="userSpaceOnUse">
<stop stop-color="#9997FF"/>
<stop offset="1" stop-color="#0500FF"/>
</linearGradient>
<linearGradient id="paint2_linear_166_2453" x1="49.5" y1="33" x2="109" y2="23" gradientUnits="userSpaceOnUse">
<stop stop-color="#9997FF"/>
<stop offset="1" stop-color="#0500FF"/>
</linearGradient>
<linearGradient id="paint3_linear_166_2453" x1="44" y1="30.649" x2="88.5" y2="61.5" gradientUnits="userSpaceOnUse">
<stop offset="0.097041" stop-color="#9997FF"/>
<stop offset="1" stop-color="#0500FF"/>
</linearGradient>
<linearGradient id="paint4_linear_166_2453" x1="94.75" y1="20.2105" x2="94.75" y2="36.1489" gradientUnits="userSpaceOnUse">
<stop offset="0.536458" stop-color="#9997FF"/>
<stop offset="1" stop-color="#0500FF"/>
</linearGradient>
<linearGradient id="paint5_linear_166_2453" x1="106.5" y1="0" x2="106.5" y2="91" gradientUnits="userSpaceOnUse">
<stop stop-color="#9997FF"/>
<stop offset="1" stop-color="#0500FF"/>
</linearGradient>
<linearGradient id="paint6_linear_166_2453" x1="19" y1="0" x2="19" y2="91" gradientUnits="userSpaceOnUse">
<stop stop-color="#9997FF"/>
<stop offset="1" stop-color="#0500FF"/>
</linearGradient>
</defs>
</svg>
